<svg xmlns="http://www.w3.org/2000/svg" xmlns:xlink="http://www.w3.org/1999/xlink" width="1920" zoomAndPan="magnify" viewBox="0 0 1440 809.999993" height="1080" preserveAspectRatio="xMidYMid meet" version="1.0"><defs><filter x="0%" y="0%" width="100%" height="100%" id="id1"><feColorMatrix values="0 0 0 0 1 0 0 0 0 1 0 0 0 0 1 0 0 0 1 0" color-interpolation-filters="sRGB"/></filter><mask id="id2"><g filter="url(#id1)"><rect x="-144" width="1728" fill="#000000" y="-80.999999" height="971.999992" fill-opacity="0.2471"/></g></mask><clipPath id="id3"><path d="M 9 29 L 842 29 L 842 504 L 9 504 Z M 9 29 " clip-rule="nonzero"/></clipPath><clipPath id="id4"><path d="M 0.527344 444.628906 L 799.984375 -3.515625 L 867.464844 116.859375 L 68.003906 565.007812 Z M 0.527344 444.628906 " clip-rule="nonzero"/></clipPath><clipPath id="id5"><path d="M 0.527344 444.628906 L 799.984375 -3.515625 L 867.464844 116.859375 L 68.003906 565.007812 Z M 0.527344 444.628906 " clip-rule="nonzero"/></clipPath><clipPath id="id6"><path d="M 54.574219 430.917969 C 50.589844 433.75 41.066406 437.730469 36.425781 440.015625 C 37.765625 437.429688 49.46875 433.335938 54.574219 430.917969 Z M 20.242188 460.589844 C 25.1875 456.871094 28.742188 457.21875 31.863281 453.574219 C 28.445312 455.898438 19.621094 458.347656 20.242188 460.589844 Z M 39.265625 425.589844 C 34.109375 428.257812 26.007812 430.589844 22.15625 434.167969 C 27.789062 431.613281 36.871094 428.546875 39.265625 425.589844 Z M 61.042969 471.445312 C 58.597656 474.144531 53.367188 474.421875 53.4375 476.46875 C 55.796875 474.796875 62.613281 473 61.042969 471.445312 Z M 38.429688 449.070312 C 49.03125 443.347656 62.957031 437.5625 71.445312 431.855469 L 54.339844 440.5 C 49.4375 443.339844 41.265625 446.277344 38.429688 449.070312 Z M 87.035156 425.140625 C 85.707031 425.824219 85.695312 424.785156 84.539062 425.210938 C 86.300781 427.449219 80.175781 425.445312 79.75 428.246094 C 82.292969 426.628906 85.875 427.59375 87.035156 425.140625 Z M 39.082031 473.007812 C 38.851562 472.539062 39.617188 472.042969 39.621094 471.539062 C 37.527344 471.984375 27.875 477.425781 30.007812 477.558594 C 31.289062 476.902344 31.109375 476.246094 32.808594 475.546875 C 35.03125 476.574219 54.1875 465.425781 39.082031 473.007812 Z M 116.859375 389.238281 C 117.28125 389.761719 117.746094 390.195312 119.339844 389.140625 L 118.621094 387.746094 C 116.09375 388.941406 113.699219 390.15625 114.085938 391.234375 C 115.476562 390.550781 116.1875 389.898438 116.859375 389.238281 Z M 27.105469 492.046875 C 30.039062 490.214844 36.121094 488.292969 36.988281 486.507812 C 33.027344 487.75 29.847656 489.3125 27.105469 492.046875 Z M 78.230469 493.007812 C 72.808594 496.046875 59.242188 501.851562 59.238281 503.148438 C 65.980469 498.671875 75.757812 497.015625 78.230469 493.007812 Z M 49.117188 450.222656 L 56.183594 446.671875 C 55.417969 444.570312 49.714844 449.316406 49.117188 450.222656 Z M 20.832031 446.667969 C 17.589844 448.679688 11.15625 450.765625 9.972656 452.726562 C 13.242188 450.703125 19.652344 448.628906 20.832031 446.667969 Z M 39.136719 460.558594 C 35.640625 463.023438 28.765625 466.8125 29.523438 466.578125 C 39.167969 463.382812 53.441406 456.867188 60.035156 451.84375 C 58.425781 452.589844 56.558594 453.667969 56.523438 452.421875 C 48.480469 456.773438 45.523438 459.632812 37.605469 462.519531 C 38.8125 461.84375 39.917969 461.164062 39.136719 460.558594 Z M 129.117188 398.390625 C 124.777344 401.328125 119.472656 401.523438 117.078125 404.539062 C 121.007812 403.472656 132.082031 397.234375 129.117188 398.390625 Z M 164.632812 371.277344 C 167.421875 367.945312 175.492188 366.800781 175.679688 363.1875 C 162.113281 370.792969 140.359375 378.71875 128.070312 386.460938 C 140.6875 382.011719 154.949219 374.683594 166.394531 369.785156 C 165.6875 370.273438 164.4375 370.816406 164.632812 371.277344 Z M 635.941406 110.238281 C 627.273438 115.507812 615.3125 121.011719 608.6875 126.148438 C 620.652344 120.199219 628.683594 115.761719 635.941406 110.238281 Z M 542.941406 160.917969 C 553.351562 154.511719 563.667969 148 572.214844 141.660156 C 561.539062 148.152344 550.835938 154.660156 542.941406 160.917969 Z M 657.886719 91.804688 C 669.726562 87.949219 680.0625 79.152344 687.664062 80.390625 C 709.449219 66.535156 723.378906 58.160156 734.613281 44.464844 C 721.785156 55.035156 698.398438 70.894531 681.316406 76.078125 C 680.730469 78.589844 684.792969 74.480469 685.027344 75.800781 C 675.015625 82.011719 665.792969 86.582031 657.886719 91.804688 Z M 801.546875 29.667969 C 799.199219 29.660156 791.417969 33.070312 789.304688 35.519531 C 793.035156 34.597656 800.246094 31.757812 801.546875 29.667969 Z M 736.34375 51.964844 C 736.675781 50.007812 736.859375 48.074219 738.160156 46.046875 C 734.972656 47.425781 734.875 48.550781 732.539062 49.863281 C 733.25 51.359375 734.4375 52.179688 736.34375 51.964844 Z M 565.652344 150.746094 C 562.476562 152.367188 556.816406 153.234375 554.546875 156.308594 C 556.097656 157.714844 564.777344 153.195312 565.652344 150.746094 Z M 179.410156 363.054688 C 190.265625 356.148438 209.410156 348.261719 218.199219 342.355469 C 207.738281 347.144531 186.460938 356.703125 176.929688 363.152344 C 179.769531 361.496094 180.425781 361.476562 179.410156 363.054688 Z M 191.253906 351.582031 C 187.417969 351.800781 180.460938 356.398438 176.246094 359.332031 C 181.570312 355.839844 188.640625 354.152344 191.253906 351.582031 Z M 234.441406 334.484375 C 233.820312 333.882812 232.757812 335.269531 232.695312 336 C 236.691406 333.917969 240.683594 331.835938 244.679688 329.753906 C 246.378906 327.695312 237.238281 333.261719 234.441406 334.484375 Z M 832.625 92.339844 C 829.445312 93.394531 825.328125 95.765625 822.808594 98 C 823.507812 98.683594 825.101562 98.074219 827.273438 96.636719 C 827.386719 98.53125 819.730469 100.359375 820.664062 101.066406 C 819.714844 101.0625 819.578125 99.242188 814.957031 102.527344 C 818.183594 103.027344 815.488281 109.40625 809.5625 113.582031 C 810.78125 113.78125 813.09375 112.421875 815.011719 111.664062 C 816.398438 112.5 813.5 113.710938 812.867188 114.730469 C 818.28125 114.953125 827.175781 105.222656 831.605469 106.34375 C 830.984375 108.90625 814.285156 116.75 816.503906 118.730469 C 811.289062 123.105469 800.359375 126.324219 794.410156 132.664062 C 807.957031 125.921875 823.195312 116.652344 834.328125 113.289062 C 834.074219 114.535156 832.574219 114.398438 831.390625 115 C 830.285156 115.746094 831.042969 116.300781 831.207031 116.933594 C 823.535156 121.109375 820.226562 123.34375 814.96875 125.089844 C 810.753906 129.949219 801.738281 135.222656 792.414062 140.515625 C 794.816406 137.683594 805.847656 131.023438 812.285156 127.257812 C 797.921875 133.726562 789.582031 141.28125 774.890625 148.695312 C 775.15625 149.113281 776.285156 148.355469 777.109375 148.019531 C 776.042969 149.566406 773.089844 151.25 774.476562 152.59375 C 744.992188 175.316406 692.765625 202.222656 660.695312 221.242188 C 660.464844 220.769531 661.699219 220.203125 662.414062 219.675781 C 655.164062 223.238281 645.605469 230.425781 635.660156 234.613281 C 635.449219 234.066406 635.917969 233.488281 636.753906 232.890625 C 621.84375 241.722656 609.425781 250.707031 591.757812 258.398438 C 577.273438 264.714844 595.605469 255.832031 595.46875 255.75 C 592.601562 254.199219 578.109375 267.503906 574.855469 267.746094 C 574.71875 266.9375 577.738281 265.941406 577.34375 265.183594 C 574.335938 265.636719 572.816406 268.289062 568.914062 271.046875 C 568.871094 270.40625 570.714844 269.625 570.378906 269.027344 C 551.808594 278.898438 533.152344 289.640625 514.3125 300.671875 C 495.460938 311.683594 476.332031 322.820312 456.742188 333.359375 C 455.632812 335.558594 461.621094 331.886719 458.488281 334.210938 C 460.5625 334.1875 461.460938 332.167969 463.980469 332.429688 C 464.070312 333.546875 459.4375 334.945312 461.980469 335.921875 C 458.71875 336.546875 457.648438 334.242188 454.738281 334.417969 C 433.464844 342.582031 419.800781 356.058594 397.671875 367.386719 C 398.875 367.945312 401.027344 367.210938 403.425781 366.121094 C 404.042969 368.238281 388.390625 368.796875 388.390625 374.105469 C 375.355469 378.316406 366.78125 383.816406 353.03125 392.285156 C 352.71875 391.386719 351.257812 391.949219 351.050781 390.960938 C 348.125 392.855469 349.304688 394.5625 343.757812 396.597656 C 343.441406 395.636719 347 394.527344 347.277344 393.550781 C 338.382812 396.386719 330.210938 403.335938 321.390625 407.777344 C 322.917969 405.75 320.492188 407.078125 318.628906 407.425781 C 318.453125 408.410156 318.394531 408.476562 316.347656 410.414062 C 314.496094 411.011719 315.160156 409.65625 316.859375 408.957031 C 302.960938 415.296875 280.65625 428.113281 260.972656 439.335938 C 261.648438 440.316406 265.355469 437.324219 267.265625 436.664062 C 266.917969 437.394531 264.832031 438.816406 266.753906 438.121094 C 234.46875 454.890625 195.550781 474.238281 167.875 486.6875 C 169.621094 483.75 176.449219 480.617188 182.3125 477.519531 C 184.855469 476.0625 180.515625 477.421875 181.347656 475.628906 C 185.25 474.167969 186.300781 472.03125 188.414062 472.015625 C 189.777344 472.925781 183.480469 474.117188 184.84375 475.027344 C 187.164062 475.210938 189.222656 471.371094 192.445312 469.945312 C 183.394531 472.046875 170.679688 479.648438 162.707031 481.589844 C 161.5625 482.261719 162.285156 482.871094 162.425781 483.515625 C 154.492188 485.246094 140.632812 495.101562 130.039062 499.996094 C 145.226562 488.890625 170.484375 477.832031 185.480469 468.761719 C 177.496094 469.664062 171.007812 475.546875 165.8125 477.636719 C 164.488281 478.15625 162.609375 477.628906 162.058594 477.78125 C 160.921875 478.070312 161.703125 479.179688 161.546875 479.238281 C 159.847656 479.9375 158.371094 479.277344 156.792969 479.910156 C 150.527344 482.347656 145.546875 488.046875 135.777344 491.183594 C 136.230469 491.65625 137.832031 490.667969 139.054688 490.136719 C 133.953125 494.484375 131.207031 492.925781 124.871094 497.328125 C 125.285156 495.863281 136.992188 489.90625 143.613281 486.632812 C 138.339844 486.429688 130.285156 492.460938 123.90625 495.4375 C 126.265625 494.335938 116.839844 499.558594 122.660156 495.472656 C 125.1875 493.707031 139.6875 487.03125 143.1875 483.269531 C 144.25 484.601562 151.636719 479.132812 159.605469 475.488281 C 153.347656 476.53125 167.488281 470.628906 171.242188 468.335938 C 166.492188 469.414062 164.429688 468.675781 159.960938 471.148438 C 160.476562 469.53125 166.203125 467.710938 168.808594 466.03125 C 164.960938 466.796875 159.671875 469.449219 154.191406 472.328125 C 153.53125 471.71875 154.738281 471.042969 154.472656 470.402344 C 147.722656 474.976562 139.84375 477.023438 137.539062 479.640625 C 133.542969 479.289062 128.179688 480.683594 120.167969 485.492188 C 117.242188 486.152344 124.949219 482.496094 125.742188 481.480469 C 119.617188 482.703125 115.078125 485.277344 109.089844 488.730469 C 113.085938 483.644531 122.910156 481.394531 132.359375 476.949219 C 127.992188 475.605469 137.175781 475.765625 138.703125 471.941406 C 138.714844 472.410156 137.933594 472.941406 138.191406 473.398438 C 143.417969 471.476562 141.300781 469.789062 145.550781 467.878906 C 142.4375 468.769531 139.066406 470.722656 135.441406 473.011719 C 132.855469 473.542969 140.023438 469.714844 140.785156 468.53125 C 138.160156 468.484375 131.898438 472.625 129.65625 474.167969 C 132.765625 470.558594 126.125 474.535156 121.867188 476.320312 C 128.765625 471.503906 133.320312 471.039062 138.570312 466.671875 C 138.226562 465.949219 132.226562 469.027344 137.066406 466.25 C 129 469.035156 121.335938 474.183594 116.871094 476.5 C 119.191406 473.238281 121.699219 472.625 128.277344 468.933594 C 125.328125 467.742188 120.324219 473.960938 117.457031 472.628906 C 117.21875 471.53125 121.820312 470.246094 122.015625 469.125 C 116.515625 469.933594 107.042969 475.8125 99.324219 479.441406 C 102.890625 473.714844 115.1875 469.601562 122.140625 464.316406 C 119.667969 464.59375 110.679688 469.128906 109.019531 470.972656 C 105.074219 471.953125 110.378906 468.757812 112.566406 467.976562 C 105.757812 469.105469 107.363281 472.25 102.457031 473.105469 C 102.261719 471.347656 107.960938 469.417969 109.828125 467.613281 C 109.300781 467.121094 106.507812 468.527344 106.796875 469.15625 C 105.289062 467.597656 119.308594 461.414062 122.765625 458.085938 C 121.902344 457.054688 114.753906 462.894531 119.5 459.15625 C 115.410156 460.785156 115.652344 460.144531 110.945312 462.308594 C 118.164062 458.011719 116.816406 457.25 124.613281 454.207031 C 123.050781 454.132812 119.972656 455.984375 120.382812 453.382812 C 117.644531 454.601562 120.523438 455.613281 117.070312 456.851562 C 116.839844 456.382812 116.605469 455.914062 116.335938 455.429688 C 109.402344 458.71875 106.574219 460.902344 101.1875 463.101562 C 108.398438 457.828125 110.832031 456.179688 118.867188 452.9375 C 113.765625 452.765625 101.074219 459.847656 98.460938 462.703125 C 96.714844 462.355469 98.882812 461.644531 94.183594 464.277344 C 96.273438 462.191406 95.679688 462.207031 91.6875 464.347656 C 92.695312 462.363281 98.632812 460.582031 100.757812 459.738281 C 99.847656 456.363281 94.363281 461.835938 91.738281 461.953125 C 95.757812 458.273438 102 456.863281 105.382812 453.859375 C 103.902344 454.4375 99.496094 456.242188 95.0625 458.507812 C 99.316406 455.523438 103.898438 450.421875 109.246094 448.945312 C 106.699219 447.621094 101.929688 453.296875 97.679688 453.625 C 101.140625 449.570312 109.09375 448.332031 114.125 443.523438 C 112.644531 442.742188 110.15625 446.664062 107.832031 446.132812 C 108.742188 447.363281 98.722656 451.019531 95.480469 451.792969 C 107.1875 445.101562 113.578125 442.375 126.023438 434.515625 C 118.847656 438.15625 112.808594 439.363281 103.90625 443.371094 C 109.179688 442.945312 101.300781 445.277344 99.628906 444.949219 C 99.273438 446.410156 96.476562 447.917969 93.035156 449.464844 C 92.84375 449.003906 94.089844 448.464844 94.820312 447.957031 C 82.492188 452.46875 69.378906 460.261719 52.734375 467.410156 C 73.160156 454.917969 95.8125 446.960938 108.75 437.9375 C 85.53125 447.605469 72.828125 453.871094 42.988281 468.164062 C 54.390625 460.253906 72.921875 453.816406 84.652344 445.410156 C 86.375 445.042969 84.714844 446.261719 86.59375 446.785156 C 90.390625 443.617188 108.375 436.253906 115.828125 431.980469 C 115.375 431.507812 113.789062 432.523438 112.566406 433.050781 C 113.671875 430.503906 116.5 430.6875 120.390625 428.472656 C 116.96875 426.949219 110.144531 433.425781 102.785156 436.226562 C 103.238281 436.699219 104.824219 435.683594 106.046875 435.15625 C 105.453125 437.828125 99.527344 436.914062 100.007812 438.222656 C 96.789062 439.207031 100.523438 436.039062 102.320312 435.285156 C 101.027344 434.902344 98.214844 435.53125 101.351562 433.394531 C 100.480469 432.460938 97.71875 433.914062 96.378906 433.558594 C 95.703125 434.21875 94.992188 434.871094 93.601562 435.558594 C 90.570312 437.097656 87.5625 438.625 84.53125 440.167969 C 84.734375 438.726562 90.078125 437.121094 92.332031 435.605469 C 101.972656 427.832031 109.023438 424.984375 120.585938 416.449219 C 124.386719 417.070312 129.300781 410.867188 135.414062 408.261719 C 133.558594 409.082031 122.441406 411.171875 121.332031 415.460938 C 119.367188 416.027344 120.738281 414.6875 120.609375 414.0625 C 117.894531 416 117.445312 416.441406 115.355469 416.15625 C 113.863281 417.117188 116.660156 416.5625 114.839844 417.613281 C 112.554688 417.886719 110.519531 418.046875 103.8125 420.824219 C 103.832031 421.824219 105.046875 421.335938 106.304688 420.753906 C 87.269531 429.6875 67.75 439.617188 45.15625 449.882812 C 44.027344 448.777344 50.828125 447.460938 49.714844 446.378906 C 45.773438 446.976562 38.554688 451.78125 33.339844 454.007812 C 33.230469 456.1875 37.65625 452.664062 39.859375 451.902344 C 42.773438 451.34375 31.925781 456.792969 30.785156 456.453125 C 32.59375 452.5625 44.023438 448.429688 51.246094 444.414062 C 50.917969 445.070312 50.574219 445.707031 50.964844 446.34375 C 51.976562 445.835938 52.992188 445.332031 54.007812 444.824219 C 53.476562 443.761719 52.929688 444.195312 54.839844 441.449219 C 57.21875 439.644531 59.347656 443.160156 59.109375 439.910156 C 63.507812 438.265625 60.714844 440.90625 65.089844 439.277344 C 66.753906 435.46875 95.496094 424.917969 105.644531 416.921875 C 105.175781 419.082031 109.097656 415.617188 108.605469 417.792969 C 114.222656 413.125 116.023438 412.714844 122.445312 410.160156 C 124.488281 408.949219 120.34375 409.632812 122.492188 407.761719 C 120.8125 406.398438 116.902344 412.191406 117.003906 409.382812 C 120.734375 407.390625 119.949219 406.785156 121.542969 405.894531 C 123.242188 405.539062 124.316406 405.980469 124.757812 407.21875 C 128.03125 405.828125 128.5625 404.519531 129.046875 403.234375 C 125.273438 406.898438 128.523438 402.359375 123.789062 405.328125 C 123.785156 404.699219 125.609375 403.992188 125.320312 403.363281 C 122.417969 403.726562 117.148438 407.15625 113.804688 408.082031 C 122.46875 402.972656 136.253906 395.464844 136.699219 393.382812 C 136.589844 392.054688 142.363281 391.503906 138.179688 393.816406 C 139.859375 393.253906 145.660156 388.453125 150.757812 386.195312 C 149.152344 386.210938 147.277344 386.820312 148.792969 384.832031 C 144.109375 386.539062 145.496094 386.523438 142.007812 388.890625 C 142.335938 388.230469 142.675781 387.597656 142.289062 386.960938 C 139.261719 389.132812 140.773438 389.234375 137.261719 389.527344 C 160.566406 377.191406 193.429688 359.304688 216.683594 346.710938 C 217.425781 344.8125 220.769531 346.035156 223.160156 344.535156 C 227.050781 342.324219 221.183594 343.496094 225.421875 341.5625 C 233.953125 340.222656 264.527344 322.042969 279.597656 313.785156 C 266.078125 320.574219 254.753906 325.910156 242.160156 332.210938 C 261.75 319.519531 282.570312 310.886719 297.3125 299.050781 C 296.382812 300.550781 295.609375 301.996094 293.320312 303.5625 C 319.8125 291.210938 336.535156 279.339844 356.816406 269.296875 C 356.128906 268.355469 353.765625 269.617188 351.34375 271.007812 C 348.160156 271.148438 360.796875 266.402344 360.796875 264.757812 C 360.753906 269.996094 391.816406 248.953125 401.050781 246.777344 C 395.746094 247.316406 405.027344 244.546875 407.496094 242.121094 C 405.503906 244.722656 409.347656 242.316406 411.953125 240.917969 C 403.21875 242.117188 431.925781 230.546875 443.433594 223.273438 C 418.964844 234.269531 406.910156 240.394531 385.136719 252.917969 C 384.449219 251.183594 390.554688 249.753906 394.320312 246.1875 C 392.996094 245.855469 390.386719 247.191406 388.605469 247.464844 C 393.203125 242.894531 397.160156 246.113281 403.515625 241.855469 C 402.539062 241.582031 400.921875 242.140625 399.035156 243.070312 C 399.429688 242.25 401.058594 241.367188 400.28125 240.601562 C 418.644531 231.382812 437.402344 222.007812 456.417969 212.199219 C 475.386719 202.296875 494.636719 191.945312 513.871094 180.59375 C 514.683594 180.296875 515.507812 179.960938 516.371094 179.636719 C 518.242188 177.542969 524.386719 175.171875 527.6875 172.976562 C 526.402344 174.929688 520.929688 177.144531 517.292969 179.246094 C 528.246094 174.652344 542.871094 166.109375 557.050781 158.570312 C 614.617188 127.851562 666.71875 94.28125 723.164062 60.773438 C 723.078125 61.582031 722.453125 62.4375 720.75 63.359375 C 734.136719 57.628906 744.113281 48.019531 754.625 40.894531 C 753.1875 43.753906 747.734375 46.90625 744.226562 49.917969 C 750.433594 47.039062 761.546875 39.511719 769.34375 34.828125 C 764.109375 39.277344 756.609375 43.925781 748.640625 48.582031 C 756.578125 48.617188 768.421875 40.589844 775.683594 39.078125 C 773.75 39.46875 775.96875 41.730469 779.222656 40.699219 C 779.492188 40.609375 779.710938 40.550781 779.917969 40.46875 C 779.679688 40.664062 779.492188 40.894531 779.476562 41.15625 C 779.480469 40.648438 785.265625 40.914062 781.773438 42.871094 C 790.785156 38.609375 798.996094 35.460938 807.085938 32.539062 C 799.710938 37.242188 778.546875 43.449219 777.578125 51.386719 C 783.882812 51.835938 790.554688 51.761719 802.273438 44.464844 C 803.285156 44.972656 803.867188 46.070312 805.554688 45.628906 C 805.863281 46.464844 801.1875 47.507812 798.714844 49.589844 C 797.902344 50.457031 798.332031 51.226562 796.3125 52.199219 C 797.765625 53.15625 800.589844 52.203125 802.789062 52.109375 C 801.058594 54.058594 792.679688 54.078125 794.523438 58.101562 C 795.40625 59.34375 799.089844 56.585938 801.910156 55.066406 C 802.355469 56.144531 800.03125 57.480469 797.546875 58.808594 C 799.566406 60.492188 802.625 60.070312 799.925781 62.941406 C 806.550781 62.550781 807.359375 61.335938 813.792969 59.816406 C 812.875 61.628906 807.058594 63.402344 804.71875 64.429688 C 803.988281 65.4375 803.269531 66.472656 802.574219 67.496094 C 805.25 67.859375 810.121094 62.539062 811.632812 62.859375 C 811.925781 63.550781 812.230469 64.265625 813.414062 63.664062 C 811.601562 65.914062 806.304688 66.070312 802.097656 68.964844 C 802.667969 69.46875 806.640625 67.460938 802.609375 69.878906 C 804.484375 69.996094 808.753906 66.65625 810.976562 66.265625 C 809.039062 67.949219 804.441406 71.222656 800.746094 73.386719 C 800.773438 75.015625 803.28125 73.105469 804.464844 73.074219 C 806.636719 71.917969 807.371094 70.90625 806.609375 70.007812 C 810.855469 69.269531 812.53125 70.511719 816.292969 68.6875 C 818.738281 68.925781 812.492188 72.082031 816.109375 70.621094 C 814.414062 74.324219 798.835938 80.210938 796.324219 83.863281 C 802.070312 81.96875 807.308594 76.222656 814.476562 74.605469 C 812.195312 77.9375 804.085938 80.585938 796.117188 85.8125 C 800.316406 84.882812 804.554688 84.308594 805.363281 85.972656 C 805.421875 86.757812 803.132812 87.757812 801.691406 88.691406 C 804.777344 90.410156 812.277344 85.824219 819.6875 81.355469 C 819.980469 82.042969 820.269531 82.734375 821.46875 82.160156 C 819.800781 83.757812 817.109375 84.949219 812.898438 87.722656 C 813.609375 88.648438 817.171875 85.515625 819.042969 84.78125 C 819.214844 86.046875 814.324219 87.777344 812.4375 89.214844 L 811.644531 87.855469 C 809.03125 89.351562 806.429688 90.871094 803.792969 92.382812 C 804.703125 93.613281 808.382812 90.851562 811.179688 89.347656 C 811.785156 93.308594 818.148438 91.320312 822.132812 87.917969 C 823.421875 87.734375 823.414062 89.414062 825.875 87.589844 C 824.890625 89.058594 823.320312 90.378906 827.398438 87.9375 C 827.632812 88.40625 826.398438 88.972656 825.691406 89.523438 C 826.707031 90.316406 830.921875 86.53125 832.09375 87.042969 C 825.382812 90.269531 817.957031 95.726562 812.027344 99.839844 C 814.921875 99.863281 818.96875 95.726562 821.839844 94.179688 C 822.230469 95.101562 818.789062 96.367188 819.695312 97.25 C 823.617188 98.085938 833.230469 89.1875 836.925781 88.539062 C 848.296875 82.605469 834.3125 90.320312 832.625 92.339844 Z M 151.136719 461.398438 C 149.933594 459.703125 140.503906 465.714844 138.789062 467.117188 C 137.636719 468.902344 147.71875 462.871094 151.136719 461.398438 Z M 133.09375 398.753906 L 126.050781 402.355469 L 126.539062 403.28125 C 128.671875 401.769531 134.8125 400.128906 133.09375 398.753906 Z M 142.992188 403.191406 C 140.335938 404.554688 136.9375 405.953125 137.453125 407.214844 C 139.359375 405.863281 144.804688 404.390625 142.992188 403.191406 Z M 144.09375 395.496094 C 141.757812 396.867188 132.402344 400.972656 135.292969 400.585938 C 139.585938 397.960938 142.96875 398.179688 144.09375 395.496094 Z M 158.285156 395.949219 C 155.007812 394.847656 148.222656 401.558594 145.707031 403.570312 C 151.792969 400.976562 151.804688 398.570312 158.285156 395.949219 Z M 464.664062 326.640625 C 462.675781 327.722656 460.683594 328.808594 458.65625 329.882812 C 458.820312 330.171875 458.996094 330.484375 459.144531 330.808594 C 461.097656 329.429688 466.523438 327.8125 464.664062 326.640625 Z M 483.265625 199.742188 C 488.058594 196.707031 491.480469 195.800781 494.410156 194.253906 C 511.9375 185.058594 481.945312 198.742188 483.265625 199.742188 Z M 522.300781 179.535156 C 523.5 178.957031 525.058594 177.894531 525.511719 178.367188 C 538.257812 170.875 531.195312 172.96875 522.300781 179.535156 Z M 570.898438 153.273438 C 567.050781 154.765625 558.601562 159.753906 559.101562 159.855469 C 560.375 160.089844 567.695312 155.921875 570.898438 153.273438 Z M 267.933594 313.371094 C 266.453125 314.007812 265.847656 313.496094 264.449219 313.996094 C 265.550781 315.054688 260.976562 316.382812 261.1875 317.5 C 263.128906 316.15625 268.054688 314.660156 267.933594 313.371094 Z M 537.996094 163.625 C 533.792969 166.296875 528.640625 169.027344 525.695312 171.628906 C 530.699219 168.917969 535.839844 166.164062 537.996094 163.625 Z M 779.953125 40.476562 C 783.777344 39.21875 781.085938 39.558594 779.953125 40.476562 Z M 816.59375 75.945312 C 815.175781 75.792969 804.121094 82.179688 806.800781 81.59375 C 810.277344 78.917969 815.882812 77.449219 816.59375 75.945312 Z M 825.835938 76.105469 C 822.460938 76.640625 818.632812 81.566406 814.792969 81.886719 C 815.347656 81.578125 815.683594 80.882812 814.535156 81.429688 C 811.46875 85.960938 824.675781 77.707031 825.835938 76.105469 Z M 780.46875 154.070312 C 784.90625 150.855469 795 147.503906 794.257812 146.179688 C 789.589844 149.429688 783.417969 150.519531 780.46875 154.070312 Z M 729.03125 187.644531 C 741.1875 180.734375 755.769531 174.933594 765.363281 168.824219 C 754.984375 173.253906 740.082031 179.554688 729.03125 187.644531 Z M 110.804688 419.625 C 107.585938 421.964844 103.367188 424.328125 101.707031 426.621094 C 106.675781 424.183594 115.5 420.089844 112.785156 421.011719 C 108.734375 423.21875 112.613281 420.253906 110.804688 419.625 Z M 824.59375 130.566406 C 826.695312 129.230469 827.941406 129.132812 828.339844 130.238281 C 830.800781 128.414062 834.382812 126.5 835.675781 124.796875 C 831.933594 127.273438 826.949219 127.253906 824.59375 130.566406 Z M 103.421875 462.511719 C 98.621094 467.734375 95.339844 464.480469 91.355469 466.242188 C 92.847656 467.777344 103.277344 466.605469 103.421875 462.511719 Z M 66.636719 457.40625 C 63.46875 458.929688 59.25 459.996094 59.039062 462.390625 C 62.621094 460.699219 65.464844 459.042969 66.636719 457.40625 Z M 61.699219 445.097656 C 71.523438 441.265625 71.855469 438.011719 61.699219 445.097656 Z M 69.132812 447.28125 C 81.394531 441.355469 82.277344 440.894531 90.8125 435.097656 C 80.355469 440.292969 74.652344 442.039062 69.132812 447.28125 Z M 91.925781 429.796875 C 88.535156 428.664062 81.617188 435.761719 78.832031 436.441406 C 83.179688 435.835938 86.351562 431.941406 91.925781 429.796875 Z M 395.085938 379.550781 C 398.546875 377.925781 405.820312 375.367188 408.117188 372.625 C 404.246094 373.6875 397.273438 376.332031 395.085938 379.550781 Z M 70.980469 483.636719 C 71.910156 483.652344 81.664062 477.492188 80.632812 477.625 C 77.332031 479.761719 76.09375 479.253906 74.089844 479.746094 C 73.789062 481.019531 71.234375 481.597656 73.785156 481.6875 C 72.636719 482.296875 70.878906 483 70.980469 483.636719 Z M 112.664062 473.230469 C 99.855469 480.503906 92.765625 483.847656 86.335938 488.9375 C 97.140625 483.289062 106.921875 477.460938 112.664062 473.230469 Z M 63.550781 471.398438 C 67.273438 469.785156 75.058594 467.066406 77.6875 464.296875 C 72.582031 467.503906 65.707031 468.292969 63.550781 471.398438 Z M 72.566406 499.40625 C 76.433594 496.636719 81.066406 496.820312 82.679688 494.335938 C 80.433594 495.183594 70.414062 499.125 72.566406 499.40625 Z M 87.171875 485.5625 C 93.136719 482.25 96.101562 481.09375 98.039062 479.46875 C 96.078125 480.316406 98.226562 478.386719 96.5625 479.03125 C 97.402344 479.574219 91.433594 482.601562 91.5 481.585938 C 92.066406 481.300781 92.441406 480.613281 91.265625 481.117188 C 91.59375 482.546875 87.4375 484.117188 87.171875 485.5625 Z M 93.375 455.152344 C 92.535156 454.613281 85.382812 458.242188 85.304688 459.234375 C 87.804688 457.644531 93.976562 457.695312 93.375 455.152344 Z M 98.351562 454.988281 C 98.492188 454.277344 98.984375 453.242188 98.117188 454.519531 C 95.085938 456.628906 90.261719 457.910156 89.816406 458.128906 C 71.414062 467.402344 86.59375 461.925781 98.351562 454.988281 Z M 693.367188 205.328125 C 691.917969 206.867188 687.660156 208.65625 686.949219 210.160156 C 689.054688 209.957031 694.152344 206.785156 693.367188 205.328125 Z M 650.109375 232.644531 C 652.324219 231.054688 657.628906 229.21875 657.796875 227.765625 C 654.714844 228.765625 651.4375 230.605469 650.109375 232.644531 Z M 270.234375 437.496094 C 272.308594 435.542969 280.734375 431.925781 278.042969 432.835938 C 275.425781 433.195312 268.828125 436.734375 270.234375 437.496094 Z M 91.226562 493.589844 C 93.355469 491.734375 100.71875 488.710938 98.074219 489.53125 C 95.96875 489.449219 90.308594 491.609375 91.226562 493.589844 Z M 110.226562 480.980469 C 106.644531 483.179688 99.851562 485.46875 98.332031 487.617188 C 101.9375 485.40625 108.730469 483.113281 110.226562 480.980469 Z M 110.226562 480.980469 " clip-rule="nonzero"/></clipPath><linearGradient x1="-7.373099" gradientTransform="matrix(2.410189, -1.351063, 1.348141, 2.404975, 1.034316, 445.536255)" y1="24.660999" x2="341.080366" gradientUnits="userSpaceOnUse" y2="24.660999" id="id7"><stop stop-opacity="1" stop-color="rgb(0%, 21.998596%, 100%)" offset="0"/><stop stop-opacity="1" stop-color="rgb(0%, 21.998596%, 100%)" offset="0.25"/><stop stop-opacity="1" stop-color="rgb(0%, 21.998596%, 100%)" offset="0.3125"/><stop stop-opacity="1" stop-color="rgb(0.012207%, 22.096252%, 100%)" offset="0.328125"/><stop stop-opacity="1" stop-color="rgb(0.0762939%, 22.554016%, 100%)" offset="0.332031"/><stop stop-opacity="1" stop-color="rgb(0.126648%, 22.914124%, 100%)" offset="0.335938"/><stop stop-opacity="1" stop-color="rgb(0.177002%, 23.272705%, 100%)" offset="0.339844"/><stop stop-opacity="1" stop-color="rgb(0.227356%, 23.632812%, 100%)" offset="0.34375"/><stop stop-opacity="1" stop-color="rgb(0.27771%, 23.991394%, 100%)" offset="0.347656"/><stop stop-opacity="1" stop-color="rgb(0.328064%, 24.351501%, 100%)" offset="0.351562"/><stop stop-opacity="1" stop-color="rgb(0.376892%, 24.711609%, 100%)" offset="0.355469"/><stop stop-opacity="1" stop-color="rgb(0.427246%, 25.071716%, 100%)" offset="0.359375"/><stop stop-opacity="1" stop-color="rgb(0.4776%, 25.430298%, 100%)" offset="0.363281"/><stop stop-opacity="1" stop-color="rgb(0.527954%, 25.790405%, 100%)" offset="0.367188"/><stop stop-opacity="1" stop-color="rgb(0.578308%, 26.148987%, 100%)" offset="0.371094"/><stop stop-opacity="1" stop-color="rgb(0.628662%, 26.509094%, 100%)" offset="0.375"/><stop stop-opacity="1" stop-color="rgb(0.67749%, 26.867676%, 100%)" offset="0.378906"/><stop stop-opacity="1" stop-color="rgb(0.727844%, 27.227783%, 100%)" offset="0.382813"/><stop stop-opacity="1" stop-color="rgb(0.778198%, 27.586365%, 100%)" offset="0.386719"/><stop stop-opacity="1" stop-color="rgb(0.828552%, 27.946472%, 100%)" offset="0.390625"/><stop stop-opacity="1" stop-color="rgb(0.878906%, 28.30658%, 100%)" offset="0.394531"/><stop stop-opacity="1" stop-color="rgb(0.92926%, 28.666687%, 100%)" offset="0.398438"/><stop stop-opacity="1" stop-color="rgb(0.979614%, 29.025269%, 100%)" offset="0.402344"/><stop stop-opacity="1" stop-color="rgb(1.029968%, 29.385376%, 100%)" offset="0.40625"/><stop stop-opacity="1" stop-color="rgb(1.078796%, 29.743958%, 100%)" offset="0.410156"/><stop stop-opacity="1" stop-color="rgb(1.12915%, 30.104065%, 100%)" offset="0.414062"/><stop stop-opacity="1" stop-color="rgb(1.179504%, 30.462646%, 100%)" offset="0.417969"/><stop stop-opacity="1" stop-color="rgb(1.229858%, 30.822754%, 100%)" offset="0.421875"/><stop stop-opacity="1" stop-color="rgb(1.280212%, 31.181335%, 100%)" offset="0.425781"/><stop stop-opacity="1" stop-color="rgb(1.330566%, 31.541443%, 100%)" offset="0.429688"/><stop stop-opacity="1" stop-color="rgb(1.379395%, 31.90155%, 100%)" offset="0.433594"/><stop stop-opacity="1" stop-color="rgb(1.429749%, 32.261658%, 100%)" offset="0.4375"/><stop stop-opacity="1" stop-color="rgb(1.480103%, 32.620239%, 100%)" offset="0.441406"/><stop stop-opacity="1" stop-color="rgb(1.530457%, 32.980347%, 100%)" offset="0.445313"/><stop stop-opacity="1" stop-color="rgb(1.580811%, 33.338928%, 100%)" offset="0.449219"/><stop stop-opacity="1" stop-color="rgb(1.631165%, 33.699036%, 100%)" offset="0.453125"/><stop stop-opacity="1" stop-color="rgb(1.679993%, 34.057617%, 100%)" offset="0.457031"/><stop stop-opacity="1" stop-color="rgb(1.730347%, 34.417725%, 100%)" offset="0.460938"/><stop stop-opacity="1" stop-color="rgb(1.780701%, 34.776306%, 100%)" offset="0.464844"/><stop stop-opacity="1" stop-color="rgb(1.831055%, 35.136414%, 100%)" offset="0.46875"/><stop stop-opacity="1" stop-color="rgb(1.881409%, 35.494995%, 100%)" offset="0.472656"/><stop stop-opacity="1" stop-color="rgb(1.931763%, 35.855103%, 100%)" offset="0.476563"/><stop stop-opacity="1" stop-color="rgb(1.982117%, 36.21521%, 100%)" offset="0.480469"/><stop stop-opacity="1" stop-color="rgb(2.032471%, 36.575317%, 100%)" offset="0.484375"/><stop stop-opacity="1" stop-color="rgb(2.081299%, 36.933899%, 100%)" offset="0.488281"/><stop stop-opacity="1" stop-color="rgb(2.131653%, 37.294006%, 100%)" offset="0.492188"/><stop stop-opacity="1" stop-color="rgb(2.182007%, 37.652588%, 100%)" offset="0.496094"/><stop stop-opacity="1" stop-color="rgb(2.232361%, 38.012695%, 100%)" offset="0.5"/><stop stop-opacity="1" stop-color="rgb(2.282715%, 38.371277%, 100%)" offset="0.503906"/><stop stop-opacity="1" stop-color="rgb(2.333069%, 38.731384%, 100%)" offset="0.507812"/><stop stop-opacity="1" stop-color="rgb(2.381897%, 39.089966%, 100%)" offset="0.511719"/><stop stop-opacity="1" stop-color="rgb(2.432251%, 39.450073%, 100%)" offset="0.515625"/><stop stop-opacity="1" stop-color="rgb(2.482605%, 39.810181%, 100%)" offset="0.519531"/><stop stop-opacity="1" stop-color="rgb(2.532959%, 40.170288%, 100%)" offset="0.523438"/><stop stop-opacity="1" stop-color="rgb(2.583313%, 40.52887%, 100%)" offset="0.527344"/><stop stop-opacity="1" stop-color="rgb(2.633667%, 40.888977%, 100%)" offset="0.53125"/><stop stop-opacity="1" stop-color="rgb(2.684021%, 41.247559%, 100%)" offset="0.535156"/><stop stop-opacity="1" stop-color="rgb(2.734375%, 41.607666%, 100%)" offset="0.539063"/><stop stop-opacity="1" stop-color="rgb(2.783203%, 41.966248%, 100%)" offset="0.542969"/><stop stop-opacity="1" stop-color="rgb(2.833557%, 42.326355%, 100%)" offset="0.546875"/><stop stop-opacity="1" stop-color="rgb(2.883911%, 42.684937%, 100%)" offset="0.550781"/><stop stop-opacity="1" stop-color="rgb(2.934265%, 43.045044%, 100%)" offset="0.554688"/><stop stop-opacity="1" stop-color="rgb(2.984619%, 43.405151%, 100%)" offset="0.558594"/><stop stop-opacity="1" stop-color="rgb(3.034973%, 43.765259%, 100%)" offset="0.5625"/><stop stop-opacity="1" stop-color="rgb(3.083801%, 44.12384%, 100%)" offset="0.566406"/><stop stop-opacity="1" stop-color="rgb(3.134155%, 44.483948%, 100%)" offset="0.570313"/><stop stop-opacity="1" stop-color="rgb(3.184509%, 44.842529%, 100%)" offset="0.574219"/><stop stop-opacity="1" stop-color="rgb(3.234863%, 45.202637%, 100%)" offset="0.578125"/><stop stop-opacity="1" stop-color="rgb(3.285217%, 45.561218%, 100%)" offset="0.582031"/><stop stop-opacity="1" stop-color="rgb(3.335571%, 45.921326%, 100%)" offset="0.585938"/><stop stop-opacity="1" stop-color="rgb(3.385925%, 46.279907%, 100%)" offset="0.589844"/><stop stop-opacity="1" stop-color="rgb(3.436279%, 46.640015%, 100%)" offset="0.59375"/><stop stop-opacity="1" stop-color="rgb(3.485107%, 46.998596%, 100%)" offset="0.597656"/><stop stop-opacity="1" stop-color="rgb(3.535461%, 47.358704%, 100%)" offset="0.601562"/><stop stop-opacity="1" stop-color="rgb(3.585815%, 47.718811%, 100%)" offset="0.605469"/><stop stop-opacity="1" stop-color="rgb(3.636169%, 48.078918%, 100%)" offset="0.609375"/><stop stop-opacity="1" stop-color="rgb(3.686523%, 48.4375%, 100%)" offset="0.613281"/><stop stop-opacity="1" stop-color="rgb(3.736877%, 48.797607%, 100%)" offset="0.617188"/><stop stop-opacity="1" stop-color="rgb(3.785706%, 49.156189%, 100%)" offset="0.621094"/><stop stop-opacity="1" stop-color="rgb(3.83606%, 49.516296%, 100%)" offset="0.625"/><stop stop-opacity="1" stop-color="rgb(3.886414%, 49.874878%, 100%)" offset="0.628906"/><stop stop-opacity="1" stop-color="rgb(3.936768%, 50.234985%, 100%)" offset="0.632812"/><stop stop-opacity="1" stop-color="rgb(3.987122%, 50.593567%, 100%)" offset="0.636719"/><stop stop-opacity="1" stop-color="rgb(4.037476%, 50.953674%, 100%)" offset="0.640625"/><stop stop-opacity="1" stop-color="rgb(4.08783%, 51.313782%, 100%)" offset="0.644531"/><stop stop-opacity="1" stop-color="rgb(4.138184%, 51.673889%, 100%)" offset="0.648438"/><stop stop-opacity="1" stop-color="rgb(4.187012%, 52.032471%, 100%)" offset="0.652344"/><stop stop-opacity="1" stop-color="rgb(4.237366%, 52.392578%, 100%)" offset="0.65625"/><stop stop-opacity="1" stop-color="rgb(4.28772%, 52.75116%, 100%)" offset="0.660156"/><stop stop-opacity="1" stop-color="rgb(4.338074%, 53.111267%, 100%)" offset="0.664063"/><stop stop-opacity="1" stop-color="rgb(4.388428%, 53.469849%, 100%)" offset="0.667969"/><stop stop-opacity="1" stop-color="rgb(4.438782%, 53.829956%, 100%)" offset="0.671875"/><stop stop-opacity="1" stop-color="rgb(4.48761%, 54.188538%, 100%)" offset="0.675781"/><stop stop-opacity="1" stop-color="rgb(4.537964%, 54.548645%, 100%)" offset="0.679688"/><stop stop-opacity="1" stop-color="rgb(4.588318%, 54.908752%, 100%)" offset="0.683594"/><stop stop-opacity="1" stop-color="rgb(4.638672%, 55.26886%, 100%)" offset="0.6875"/><stop stop-opacity="1" stop-color="rgb(4.689026%, 55.627441%, 100%)" offset="0.691406"/><stop stop-opacity="1" stop-color="rgb(4.73938%, 55.987549%, 100%)" offset="0.695312"/><stop stop-opacity="1" stop-color="rgb(4.788208%, 56.34613%, 100%)" offset="0.699219"/><stop stop-opacity="1" stop-color="rgb(4.838562%, 56.706238%, 100%)" offset="0.703125"/><stop stop-opacity="1" stop-color="rgb(4.888916%, 57.064819%, 100%)" offset="0.707031"/><stop stop-opacity="1" stop-color="rgb(4.93927%, 57.424927%, 100%)" offset="0.710938"/><stop stop-opacity="1" stop-color="rgb(4.989624%, 57.783508%, 100%)" offset="0.714844"/><stop stop-opacity="1" stop-color="rgb(5.039978%, 58.143616%, 100%)" offset="0.71875"/><stop stop-opacity="1" stop-color="rgb(5.090332%, 58.502197%, 100%)" offset="0.722656"/><stop stop-opacity="1" stop-color="rgb(5.140686%, 58.862305%, 100%)" offset="0.726562"/><stop stop-opacity="1" stop-color="rgb(5.189514%, 59.222412%, 100%)" offset="0.730469"/><stop stop-opacity="1" stop-color="rgb(5.239868%, 59.58252%, 100%)" offset="0.734375"/><stop stop-opacity="1" stop-color="rgb(5.290222%, 59.941101%, 100%)" offset="0.738281"/><stop stop-opacity="1" stop-color="rgb(5.340576%, 60.301208%, 100%)" offset="0.742188"/><stop stop-opacity="1" stop-color="rgb(5.39093%, 60.65979%, 100%)" offset="0.746094"/><stop stop-opacity="1" stop-color="rgb(5.441284%, 61.019897%, 100%)" offset="0.75"/><stop stop-opacity="1" stop-color="rgb(5.490112%, 61.378479%, 100%)" offset="0.753906"/><stop stop-opacity="1" stop-color="rgb(5.540466%, 61.738586%, 100%)" offset="0.757813"/><stop stop-opacity="1" stop-color="rgb(5.59082%, 62.097168%, 100%)" offset="0.761719"/><stop stop-opacity="1" stop-color="rgb(5.641174%, 62.457275%, 100%)" offset="0.765625"/><stop stop-opacity="1" stop-color="rgb(5.691528%, 62.817383%, 100%)" offset="0.769531"/><stop stop-opacity="1" stop-color="rgb(5.741882%, 63.17749%, 100%)" offset="0.773438"/><stop stop-opacity="1" stop-color="rgb(5.792236%, 63.536072%, 100%)" offset="0.777344"/><stop stop-opacity="1" stop-color="rgb(5.84259%, 63.896179%, 100%)" offset="0.78125"/><stop stop-opacity="1" stop-color="rgb(5.891418%, 64.254761%, 100%)" offset="0.785156"/><stop stop-opacity="1" stop-color="rgb(5.941772%, 64.614868%, 100%)" offset="0.789063"/><stop stop-opacity="1" stop-color="rgb(5.992126%, 64.97345%, 100%)" offset="0.792969"/><stop stop-opacity="1" stop-color="rgb(6.04248%, 65.333557%, 100%)" offset="0.796875"/><stop stop-opacity="1" stop-color="rgb(6.092834%, 65.692139%, 100%)" offset="0.800781"/><stop stop-opacity="1" stop-color="rgb(6.143188%, 66.052246%, 100%)" offset="0.804688"/><stop stop-opacity="1" stop-color="rgb(6.192017%, 66.412354%, 100%)" offset="0.808594"/><stop stop-opacity="1" stop-color="rgb(6.242371%, 66.772461%, 100%)" offset="0.8125"/><stop stop-opacity="1" stop-color="rgb(6.292725%, 67.131042%, 100%)" offset="0.816406"/><stop stop-opacity="1" stop-color="rgb(6.343079%, 67.49115%, 100%)" offset="0.820312"/><stop stop-opacity="1" stop-color="rgb(6.393433%, 67.849731%, 100%)" offset="0.824219"/><stop stop-opacity="1" stop-color="rgb(6.443787%, 68.209839%, 100%)" offset="0.828125"/><stop stop-opacity="1" stop-color="rgb(6.494141%, 68.56842%, 100%)" offset="0.832031"/><stop stop-opacity="1" stop-color="rgb(6.544495%, 68.928528%, 100%)" offset="0.835938"/><stop stop-opacity="1" stop-color="rgb(6.593323%, 69.287109%, 100%)" offset="0.839844"/><stop stop-opacity="1" stop-color="rgb(6.643677%, 69.647217%, 100%)" offset="0.84375"/><stop stop-opacity="1" stop-color="rgb(6.694031%, 70.007324%, 100%)" offset="0.847656"/><stop stop-opacity="1" stop-color="rgb(6.744385%, 70.367432%, 100%)" offset="0.851562"/><stop stop-opacity="1" stop-color="rgb(6.794739%, 70.726013%, 100%)" offset="0.855469"/><stop stop-opacity="1" stop-color="rgb(6.845093%, 71.086121%, 100%)" offset="0.859375"/><stop stop-opacity="1" stop-color="rgb(6.893921%, 71.444702%, 100%)" offset="0.863281"/><stop stop-opacity="1" stop-color="rgb(6.944275%, 71.80481%, 100%)" offset="0.867188"/><stop stop-opacity="1" stop-color="rgb(6.994629%, 72.163391%, 100%)" offset="0.871094"/><stop stop-opacity="1" stop-color="rgb(7.044983%, 72.523499%, 100%)" offset="0.875"/><stop stop-opacity="1" stop-color="rgb(7.095337%, 72.88208%, 100%)" offset="0.878906"/><stop stop-opacity="1" stop-color="rgb(7.145691%, 73.242188%, 100%)" offset="0.882813"/><stop stop-opacity="1" stop-color="rgb(7.196045%, 73.600769%, 100%)" offset="0.886719"/><stop stop-opacity="1" stop-color="rgb(7.246399%, 73.960876%, 100%)" offset="0.890625"/><stop stop-opacity="1" stop-color="rgb(7.295227%, 74.320984%, 100%)" offset="0.894531"/><stop stop-opacity="1" stop-color="rgb(7.345581%, 74.681091%, 100%)" offset="0.898438"/><stop stop-opacity="1" stop-color="rgb(7.395935%, 75.039673%, 100%)" offset="0.902344"/><stop stop-opacity="1" stop-color="rgb(7.446289%, 75.39978%, 100%)" offset="0.90625"/><stop stop-opacity="1" stop-color="rgb(7.496643%, 75.758362%, 100%)" offset="0.910156"/><stop stop-opacity="1" stop-color="rgb(7.546997%, 76.118469%, 100%)" offset="0.914063"/><stop stop-opacity="1" stop-color="rgb(7.595825%, 76.477051%, 100%)" offset="0.917969"/><stop stop-opacity="1" stop-color="rgb(7.646179%, 76.837158%, 100%)" offset="0.921875"/><stop stop-opacity="1" stop-color="rgb(7.696533%, 77.19574%, 100%)" offset="0.925781"/><stop stop-opacity="1" stop-color="rgb(7.746887%, 77.555847%, 100%)" offset="0.929688"/><stop stop-opacity="1" stop-color="rgb(7.797241%, 77.915955%, 100%)" offset="0.933594"/><stop stop-opacity="1" stop-color="rgb(7.847595%, 78.276062%, 100%)" offset="0.9375"/><stop stop-opacity="1" stop-color="rgb(7.897949%, 78.634644%, 100%)" offset="0.941406"/><stop stop-opacity="1" stop-color="rgb(7.948303%, 78.994751%, 100%)" offset="0.945312"/><stop stop-opacity="1" stop-color="rgb(7.997131%, 79.353333%, 100%)" offset="0.949219"/><stop stop-opacity="1" stop-color="rgb(8.047485%, 79.71344%, 100%)" offset="0.953125"/><stop stop-opacity="1" stop-color="rgb(8.097839%, 80.072021%, 100%)" offset="0.957031"/><stop stop-opacity="1" stop-color="rgb(8.148193%, 80.432129%, 100%)" offset="0.960937"/><stop stop-opacity="1" stop-color="rgb(8.172607%, 80.615234%, 100%)" offset="0.96875"/><stop stop-opacity="1" stop-color="rgb(8.198547%, 80.799866%, 100%)" offset="1"/></linearGradient><clipPath id="id8"><rect x="0" width="862" y="0" height="566"/></clipPath><mask id="id9"><g filter="url(#id1)"><rect x="-144" width="1728" fill="#000000" y="-80.999999" height="971.999992" fill-opacity="0.2471"/></g></mask><clipPath id="id10"><path d="M 8 27 L 793 27 L 793 474 L 8 474 Z M 8 27 " clip-rule="nonzero"/></clipPath><clipPath id="id11"><path d="M -0.0351562 418.273438 L 753.628906 -4.203125 L 817.441406 109.632812 L 63.777344 532.109375 Z M -0.0351562 418.273438 " clip-rule="nonzero"/></clipPath><clipPath id="id12"><path d="M -0.0351562 418.273438 L 753.628906 -4.203125 L 817.441406 109.632812 L 63.777344 532.109375 Z M -0.0351562 418.273438 " clip-rule="nonzero"/></clipPath><clipPath id="id13"><path d="M 50.9375 405.382812 C 47.179688 408.054688 38.203125 411.804688 33.828125 413.957031 C 35.085938 411.519531 46.125 407.664062 50.9375 405.382812 Z M 18.585938 433.382812 C 23.25 429.871094 26.601562 430.203125 29.539062 426.765625 C 26.320312 428.957031 17.996094 431.261719 18.585938 433.382812 Z M 36.488281 400.332031 C 31.628906 402.847656 23.988281 405.035156 20.359375 408.417969 C 25.667969 406.007812 34.230469 403.121094 36.488281 400.332031 Z M 57.09375 443.6875 C 54.789062 446.234375 49.855469 446.492188 49.921875 448.425781 C 52.144531 446.851562 58.574219 445.160156 57.09375 443.6875 Z M 35.726562 422.515625 C 45.722656 417.121094 58.855469 411.675781 66.855469 406.292969 L 50.726562 414.4375 C 46.109375 417.117188 38.402344 419.882812 35.726562 422.515625 Z M 81.554688 399.964844 C 80.300781 400.609375 80.289062 399.628906 79.203125 400.03125 C 80.867188 402.144531 75.082031 400.246094 74.683594 402.890625 C 77.085938 401.367188 80.464844 402.28125 81.554688 399.964844 Z M 36.375 445.140625 C 36.15625 444.695312 36.878906 444.230469 36.878906 443.75 C 34.90625 444.167969 25.808594 449.300781 27.820312 449.425781 C 29.027344 448.808594 28.855469 448.1875 30.457031 447.527344 C 32.558594 448.503906 50.613281 437.992188 36.375 445.140625 Z M 109.648438 366.074219 C 110.042969 366.570312 110.484375 366.980469 111.988281 365.988281 L 111.308594 364.667969 C 108.921875 365.792969 106.667969 366.9375 107.03125 367.960938 C 108.34375 367.316406 109.011719 366.699219 109.648438 366.074219 Z M 25.101562 463.117188 C 27.867188 461.386719 33.601562 459.578125 34.417969 457.894531 C 30.683594 459.0625 27.683594 460.53125 25.101562 463.117188 Z M 73.332031 464.085938 C 68.222656 466.949219 55.429688 472.417969 55.429688 473.644531 C 61.785156 469.425781 71.007812 467.871094 73.332031 464.085938 Z M 45.8125 423.621094 L 52.476562 420.273438 C 51.75 418.289062 46.378906 422.765625 45.8125 423.621094 Z M 19.125 420.226562 C 16.066406 422.121094 10 424.085938 8.886719 425.933594 C 11.96875 424.027344 18.011719 422.074219 19.125 420.226562 Z M 36.410156 433.375 C 33.113281 435.699219 26.636719 439.269531 27.347656 439.050781 C 36.441406 436.042969 49.902344 429.90625 56.117188 425.167969 C 54.597656 425.867188 52.839844 426.882812 52.804688 425.707031 C 45.222656 429.808594 42.433594 432.507812 34.96875 435.226562 C 36.105469 434.589844 37.148438 433.945312 36.410156 433.375 Z M 121.222656 374.742188 C 117.132812 377.511719 112.125 377.6875 109.871094 380.535156 C 113.578125 379.535156 124.019531 373.652344 121.222656 374.742188 Z M 154.695312 349.164062 C 157.320312 346.019531 164.933594 344.949219 165.109375 341.53125 C 152.316406 348.703125 131.804688 356.167969 120.21875 363.46875 C 132.117188 359.28125 145.5625 352.371094 156.351562 347.753906 C 155.6875 348.21875 154.511719 348.730469 154.695312 349.164062 Z M 599.011719 103.085938 C 590.835938 108.054688 579.558594 113.242188 573.316406 118.085938 C 584.597656 112.480469 592.167969 108.296875 599.011719 103.085938 Z M 511.332031 150.859375 C 521.148438 144.820312 530.875 138.679688 538.929688 132.699219 C 528.863281 138.820312 518.773438 144.953125 511.332031 150.859375 Z M 619.691406 85.695312 C 630.855469 82.066406 640.59375 73.765625 647.765625 74.945312 C 668.304688 61.882812 681.433594 53.984375 692.015625 41.058594 C 679.929688 51.03125 657.882812 65.988281 641.773438 70.863281 C 641.222656 73.234375 645.050781 69.355469 645.273438 70.605469 C 635.835938 76.464844 627.140625 80.769531 619.691406 85.695312 Z M 755.144531 27.160156 C 752.925781 27.148438 745.59375 30.363281 743.601562 32.671875 C 747.121094 31.808594 753.921875 29.128906 755.144531 27.160156 Z M 693.660156 48.144531 C 693.96875 46.296875 694.136719 44.46875 695.363281 42.558594 C 692.359375 43.851562 692.269531 44.917969 690.066406 46.15625 C 690.738281 47.570312 691.859375 48.347656 693.660156 48.144531 Z M 532.746094 141.277344 C 529.753906 142.804688 524.414062 143.617188 522.277344 146.515625 C 523.742188 147.847656 531.925781 143.589844 532.746094 141.277344 Z M 168.625 341.414062 C 178.859375 334.902344 196.910156 327.472656 205.195312 321.902344 C 195.332031 326.414062 175.265625 335.417969 166.285156 341.5 C 168.960938 339.941406 169.578125 339.921875 168.625 341.414062 Z M 179.785156 330.585938 C 176.167969 330.789062 169.609375 335.125 165.632812 337.890625 C 170.65625 334.597656 177.320312 333.011719 179.785156 330.585938 Z M 220.507812 314.484375 C 219.917969 313.914062 218.921875 315.222656 218.859375 315.914062 C 222.628906 313.953125 226.394531 311.988281 230.160156 310.027344 C 231.761719 308.085938 223.144531 313.332031 220.507812 314.484375 Z M 784.542969 86.421875 C 781.542969 87.414062 777.660156 89.648438 775.289062 91.757812 C 775.949219 92.402344 777.449219 91.828125 779.496094 90.472656 C 779.605469 92.265625 772.386719 93.980469 773.269531 94.652344 C 772.371094 94.648438 772.242188 92.925781 767.886719 96.023438 C 770.933594 96.5 768.394531 102.523438 762.808594 106.464844 C 763.960938 106.652344 766.140625 105.375 767.949219 104.65625 C 769.257812 105.449219 766.527344 106.59375 765.929688 107.554688 C 771.039062 107.769531 779.417969 98.589844 783.597656 99.652344 C 783.011719 102.074219 767.269531 109.464844 769.363281 111.335938 C 764.453125 115.464844 754.144531 118.492188 748.539062 124.476562 C 761.3125 118.121094 775.675781 109.382812 786.175781 106.21875 C 785.9375 107.398438 784.519531 107.265625 783.40625 107.832031 C 782.363281 108.535156 783.078125 109.058594 783.234375 109.660156 C 776.003906 113.59375 772.886719 115.699219 767.925781 117.34375 C 763.957031 121.929688 755.457031 126.90625 746.667969 131.890625 C 748.929688 129.21875 759.328125 122.941406 765.398438 119.390625 C 751.855469 125.488281 743.996094 132.613281 730.144531 139.601562 C 730.394531 139.996094 731.457031 139.28125 732.238281 138.964844 C 731.234375 140.425781 728.453125 142.011719 729.761719 143.28125 C 701.972656 164.71875 652.730469 190.078125 622.503906 208.011719 C 622.28125 207.566406 623.445312 207.03125 624.121094 206.535156 C 617.285156 209.890625 608.277344 216.671875 598.898438 220.613281 C 598.699219 220.097656 599.140625 219.550781 599.929688 218.988281 C 585.875 227.316406 574.171875 235.789062 557.511719 243.039062 C 543.855469 248.988281 561.140625 240.613281 561.007812 240.539062 C 558.300781 239.066406 544.644531 251.625 541.578125 251.847656 C 541.449219 251.085938 544.296875 250.144531 543.921875 249.429688 C 541.085938 249.851562 539.652344 252.359375 535.976562 254.960938 C 535.933594 254.355469 537.671875 253.621094 537.355469 253.050781 C 519.847656 262.355469 502.261719 272.484375 484.503906 282.886719 C 466.730469 293.265625 448.699219 303.765625 430.226562 313.699219 C 429.183594 315.777344 434.828125 312.316406 431.875 314.507812 C 433.835938 314.488281 434.675781 312.582031 437.058594 312.832031 C 437.144531 313.886719 432.773438 315.203125 435.171875 316.128906 C 432.097656 316.714844 431.085938 314.535156 428.339844 314.699219 C 408.28125 322.386719 395.40625 335.105469 374.542969 345.78125 C 375.679688 346.3125 377.710938 345.621094 379.96875 344.59375 C 380.554688 346.59375 365.789062 347.101562 365.796875 352.121094 C 353.503906 356.082031 345.421875 361.269531 332.460938 369.253906 C 332.164062 368.402344 330.789062 368.933594 330.589844 367.996094 C 327.832031 369.785156 328.945312 371.402344 323.71875 373.316406 C 323.417969 372.40625 326.773438 371.363281 327.035156 370.441406 C 318.644531 373.109375 310.945312 379.667969 302.628906 383.851562 C 304.066406 381.941406 301.78125 383.191406 300.023438 383.519531 C 299.859375 384.449219 299.804688 384.507812 297.875 386.339844 C 296.125 386.898438 296.753906 385.621094 298.355469 384.960938 C 285.25 390.933594 264.222656 403.019531 245.667969 413.601562 C 246.308594 414.527344 249.800781 411.703125 251.601562 411.082031 C 251.273438 411.773438 249.308594 413.113281 251.121094 412.457031 C 220.683594 428.261719 183.992188 446.5 157.898438 458.226562 C 159.539062 455.453125 165.980469 452.503906 171.507812 449.582031 C 173.902344 448.210938 169.8125 449.488281 170.59375 447.792969 C 174.273438 446.417969 175.261719 444.398438 177.257812 444.386719 C 178.546875 445.25 172.601562 446.367188 173.890625 447.230469 C 176.082031 447.40625 178.019531 443.78125 181.058594 442.433594 C 172.523438 444.410156 160.535156 451.578125 153.015625 453.402344 C 151.9375 454.035156 152.617188 454.613281 152.753906 455.222656 C 145.273438 456.847656 132.207031 466.144531 122.222656 470.753906 C 136.535156 460.28125 160.347656 449.859375 174.484375 441.308594 C 166.953125 442.152344 160.839844 447.703125 155.941406 449.671875 C 154.691406 450.160156 152.917969 449.660156 152.402344 449.800781 C 151.328125 450.074219 152.066406 451.125 151.917969 451.179688 C 150.316406 451.835938 148.921875 451.214844 147.433594 451.808594 C 141.523438 454.105469 136.835938 459.484375 127.621094 462.4375 C 128.050781 462.882812 129.558594 461.949219 130.710938 461.453125 C 125.902344 465.550781 123.3125 464.074219 117.34375 468.230469 C 117.730469 466.84375 128.765625 461.226562 135.011719 458.144531 C 130.03125 457.949219 122.441406 463.636719 116.429688 466.441406 C 118.652344 465.402344 109.765625 470.324219 115.253906 466.472656 C 117.632812 464.808594 131.308594 458.519531 134.601562 454.96875 C 135.609375 456.226562 142.570312 451.070312 150.082031 447.636719 C 144.179688 448.613281 157.515625 443.050781 161.050781 440.886719 C 156.574219 441.902344 154.628906 441.203125 150.410156 443.535156 C 150.898438 442.007812 156.296875 440.292969 158.753906 438.707031 C 155.125 439.425781 150.136719 441.925781 144.96875 444.640625 C 144.347656 444.066406 145.484375 443.425781 145.234375 442.820312 C 138.871094 447.132812 131.441406 449.058594 129.269531 451.527344 C 125.5 451.191406 120.441406 452.503906 112.890625 457.035156 C 110.128906 457.65625 117.398438 454.210938 118.144531 453.253906 C 112.367188 454.398438 108.085938 456.828125 102.441406 460.082031 C 106.203125 455.285156 115.46875 453.167969 124.378906 448.980469 C 120.257812 447.703125 128.921875 447.871094 130.359375 444.253906 C 130.367188 444.695312 129.632812 445.199219 129.875 445.628906 C 134.804688 443.824219 132.804688 442.226562 136.8125 440.425781 C 133.878906 441.265625 130.699219 443.105469 127.28125 445.261719 C 124.84375 445.761719 131.601562 442.152344 132.316406 441.035156 C 129.84375 440.988281 123.9375 444.894531 121.828125 446.347656 C 124.757812 442.941406 118.496094 446.691406 114.480469 448.371094 C 120.984375 443.832031 125.277344 443.394531 130.226562 439.277344 C 129.902344 438.59375 124.242188 441.496094 128.808594 438.875 C 121.199219 441.496094 113.976562 446.351562 109.765625 448.535156 C 111.953125 445.457031 114.316406 444.878906 120.519531 441.402344 C 117.734375 440.273438 113.023438 446.140625 110.316406 444.878906 C 110.089844 443.839844 114.429688 442.632812 114.613281 441.574219 C 109.421875 442.332031 100.496094 447.871094 93.21875 451.296875 C 96.574219 445.886719 108.171875 442.015625 114.722656 437.027344 C 112.390625 437.289062 103.917969 441.5625 102.355469 443.304688 C 98.632812 444.226562 103.632812 441.214844 105.695312 440.476562 C 99.273438 441.535156 100.789062 444.507812 96.164062 445.308594 C 95.980469 443.648438 101.351562 441.832031 103.113281 440.128906 C 102.613281 439.664062 99.980469 440.988281 100.253906 441.582031 C 98.832031 440.109375 112.050781 434.28125 115.304688 431.140625 C 114.488281 430.164062 107.753906 435.675781 112.226562 432.152344 C 108.371094 433.683594 108.597656 433.078125 104.15625 435.121094 C 110.960938 431.066406 109.691406 430.34375 117.042969 427.476562 C 115.570312 427.40625 112.667969 429.152344 113.050781 426.695312 C 110.46875 427.84375 113.1875 428.800781 109.929688 429.972656 C 109.710938 429.527344 109.492188 429.082031 109.238281 428.625 C 102.699219 431.722656 100.035156 433.785156 94.953125 435.855469 C 101.75 430.878906 104.042969 429.324219 111.621094 426.273438 C 106.804688 426.101562 94.84375 432.78125 92.382812 435.472656 C 90.734375 435.144531 92.777344 434.476562 88.347656 436.957031 C 90.316406 434.988281 89.757812 435.003906 85.992188 437.023438 C 86.941406 435.144531 92.542969 433.472656 94.546875 432.675781 C 93.683594 429.484375 88.515625 434.652344 86.035156 434.757812 C 89.824219 431.289062 95.710938 429.960938 98.898438 427.128906 C 97.503906 427.671875 93.351562 429.371094 89.171875 431.503906 C 93.175781 428.691406 97.496094 423.878906 102.539062 422.488281 C 100.136719 421.234375 95.644531 426.589844 91.632812 426.894531 C 94.890625 423.066406 102.394531 421.910156 107.136719 417.371094 C 105.738281 416.628906 103.394531 420.335938 101.199219 419.832031 C 102.058594 420.992188 92.613281 424.433594 89.558594 425.160156 C 100.59375 418.855469 106.617188 416.285156 118.347656 408.871094 C 111.585938 412.304688 105.886719 413.4375 97.496094 417.214844 C 102.46875 416.816406 95.039062 419.011719 93.460938 418.699219 C 93.128906 420.082031 90.488281 421.5 87.246094 422.960938 C 87.0625 422.523438 88.238281 422.015625 88.929688 421.539062 C 77.304688 425.78125 64.941406 433.132812 49.246094 439.867188 C 68.503906 428.085938 89.863281 420.59375 102.054688 412.085938 C 80.164062 421.191406 68.1875 427.097656 40.054688 440.566406 C 50.800781 433.105469 68.277344 427.046875 79.332031 419.117188 C 80.957031 418.773438 79.390625 419.917969 81.164062 420.421875 C 84.742188 417.429688 101.699219 410.492188 108.726562 406.464844 C 108.296875 406.019531 106.804688 406.976562 105.648438 407.472656 C 106.691406 405.066406 109.359375 405.246094 113.027344 403.160156 C 109.796875 401.710938 103.367188 407.824219 96.425781 410.460938 C 96.855469 410.90625 98.347656 409.949219 99.503906 409.453125 C 98.949219 411.976562 93.355469 411.105469 93.808594 412.347656 C 90.773438 413.269531 94.292969 410.28125 95.988281 409.570312 C 94.769531 409.207031 92.113281 409.800781 95.074219 407.78125 C 94.25 406.898438 91.644531 408.269531 90.378906 407.933594 C 89.746094 408.558594 89.074219 409.171875 87.761719 409.816406 C 84.90625 411.269531 82.070312 412.710938 79.210938 414.164062 C 79.402344 412.800781 84.441406 411.292969 86.5625 409.863281 C 95.652344 402.527344 102.300781 399.84375 113.195312 391.792969 C 116.78125 392.386719 121.414062 386.53125 127.175781 384.078125 C 125.425781 384.847656 114.941406 386.8125 113.898438 390.863281 C 112.046875 391.394531 113.335938 390.128906 113.214844 389.542969 C 110.65625 391.367188 110.230469 391.78125 108.261719 391.511719 C 106.855469 392.417969 109.492188 391.898438 107.777344 392.890625 C 105.621094 393.140625 103.703125 393.289062 97.375 395.910156 C 97.398438 396.855469 98.542969 396.390625 99.730469 395.847656 C 81.785156 404.261719 63.378906 413.621094 42.074219 423.292969 C 41.011719 422.246094 47.425781 421.011719 46.375 419.988281 C 42.65625 420.546875 35.851562 425.078125 30.933594 427.175781 C 30.835938 429.234375 35.003906 425.910156 37.082031 425.195312 C 39.832031 424.671875 29.601562 429.808594 28.523438 429.484375 C 30.226562 425.808594 41.007812 421.917969 47.8125 418.132812 C 47.503906 418.753906 47.183594 419.355469 47.550781 419.953125 C 48.507812 419.476562 49.464844 419 50.421875 418.523438 C 49.917969 417.519531 49.402344 417.929688 51.203125 415.335938 C 53.441406 413.632812 55.457031 416.957031 55.226562 413.886719 C 59.375 412.339844 56.742188 414.832031 60.867188 413.296875 C 62.433594 409.699219 89.535156 399.765625 99.101562 392.222656 C 98.664062 394.261719 102.355469 390.996094 101.894531 393.046875 C 107.191406 388.644531 108.886719 388.261719 114.941406 385.855469 C 116.871094 384.714844 112.957031 385.351562 114.984375 383.589844 C 113.394531 382.296875 109.714844 387.769531 109.808594 385.113281 C 113.324219 383.234375 112.585938 382.660156 114.085938 381.820312 C 115.691406 381.488281 116.703125 381.910156 117.117188 383.078125 C 120.207031 381.765625 120.707031 380.53125 121.164062 379.320312 C 117.605469 382.777344 120.667969 378.488281 116.207031 381.289062 C 116.199219 380.695312 117.917969 380.03125 117.644531 379.4375 C 114.910156 379.773438 109.941406 383.007812 106.789062 383.878906 C 114.957031 379.0625 127.949219 371.984375 128.371094 370.015625 C 128.265625 368.761719 133.710938 368.25 129.765625 370.429688 C 131.351562 369.902344 136.816406 365.371094 141.625 363.246094 C 140.109375 363.257812 138.339844 363.832031 139.765625 361.953125 C 135.351562 363.5625 136.660156 363.546875 133.371094 365.78125 C 133.679688 365.160156 134 364.558594 133.632812 363.957031 C 130.78125 366.007812 132.207031 366.101562 128.898438 366.375 C 150.867188 354.746094 181.847656 337.886719 203.769531 326.015625 C 204.464844 324.222656 207.625 325.382812 209.878906 323.96875 C 213.546875 321.882812 208.011719 322.984375 212.007812 321.160156 C 220.054688 319.910156 248.875 302.765625 263.085938 294.980469 C 250.335938 301.378906 239.660156 306.40625 227.789062 312.34375 C 246.253906 300.378906 265.882812 292.246094 279.777344 281.078125 C 278.902344 282.496094 278.171875 283.863281 276.015625 285.339844 C 300.992188 273.699219 316.753906 262.503906 335.875 253.039062 C 335.226562 252.148438 332.996094 253.339844 330.714844 254.648438 C 327.710938 254.777344 339.628906 250.308594 339.625 248.753906 C 339.59375 253.707031 368.871094 233.855469 377.578125 231.816406 C 372.574219 232.316406 381.328125 229.714844 383.65625 227.421875 C 381.777344 229.878906 385.402344 227.609375 387.859375 226.289062 C 379.621094 227.414062 406.6875 216.515625 417.535156 209.65625 C 394.464844 220.015625 383.101562 225.789062 362.574219 237.59375 C 361.925781 235.957031 367.679688 234.613281 371.230469 231.25 C 369.976562 230.933594 367.519531 232.195312 365.839844 232.449219 C 370.171875 228.136719 373.910156 231.183594 379.898438 227.167969 C 378.976562 226.90625 377.449219 227.433594 375.671875 228.308594 C 376.042969 227.535156 377.578125 226.703125 376.84375 225.980469 C 394.160156 217.289062 411.84375 208.453125 429.773438 199.210938 C 447.652344 189.875 465.804688 180.117188 483.933594 169.417969 C 484.699219 169.136719 485.480469 168.820312 486.292969 168.511719 C 488.050781 166.539062 493.847656 164.308594 496.957031 162.234375 C 495.75 164.078125 490.589844 166.164062 487.160156 168.144531 C 497.488281 163.820312 511.277344 155.761719 524.640625 148.660156 C 578.910156 119.703125 628.027344 88.046875 681.238281 56.453125 C 681.15625 57.214844 680.566406 58.027344 678.960938 58.894531 C 691.582031 53.496094 700.980469 44.429688 710.890625 37.707031 C 709.539062 40.410156 704.398438 43.382812 701.089844 46.222656 C 706.945312 43.507812 717.417969 36.410156 724.769531 31.992188 C 719.835938 36.191406 712.765625 40.574219 705.253906 44.964844 C 712.746094 45.007812 723.90625 37.4375 730.757812 36.019531 C 728.929688 36.382812 731.027344 38.527344 734.097656 37.554688 C 734.347656 37.472656 734.554688 37.414062 734.75 37.335938 C 734.527344 37.523438 734.351562 37.738281 734.339844 37.984375 C 734.339844 37.507812 739.796875 37.765625 736.503906 39.609375 C 745.003906 35.59375 752.746094 32.628906 760.371094 29.878906 C 753.421875 34.3125 733.460938 40.152344 732.558594 47.652344 C 738.503906 48.082031 744.800781 48.023438 755.847656 41.144531 C 756.800781 41.625 757.351562 42.660156 758.941406 42.246094 C 759.238281 43.039062 754.828125 44.015625 752.496094 45.980469 C 751.730469 46.796875 752.136719 47.527344 750.234375 48.445312 C 751.605469 49.347656 754.269531 48.453125 756.34375 48.367188 C 754.714844 50.207031 746.808594 50.214844 748.550781 54.019531 C 749.390625 55.195312 752.859375 52.59375 755.519531 51.160156 C 755.941406 52.179688 753.75 53.4375 751.40625 54.691406 C 753.3125 56.28125 756.199219 55.890625 753.65625 58.601562 C 759.902344 58.238281 760.664062 57.09375 766.734375 55.664062 C 765.871094 57.375 760.386719 59.042969 758.179688 60.011719 C 757.492188 60.964844 756.816406 61.941406 756.160156 62.90625 C 758.683594 63.253906 763.273438 58.230469 764.699219 58.535156 C 764.976562 59.1875 765.265625 59.863281 766.382812 59.296875 C 764.675781 61.421875 759.675781 61.5625 755.714844 64.292969 C 756.25 64.769531 759.996094 62.878906 756.199219 65.15625 C 757.964844 65.273438 761.992188 62.117188 764.085938 61.75 C 762.257812 63.34375 757.925781 66.429688 754.441406 68.472656 C 754.46875 70.011719 756.832031 68.207031 757.953125 68.179688 C 760 67.089844 760.6875 66.136719 759.972656 65.28125 C 763.972656 64.59375 765.558594 65.765625 769.105469 64.046875 C 771.414062 64.277344 765.523438 67.25 768.933594 65.878906 C 767.339844 69.371094 752.652344 74.914062 750.285156 78.363281 C 755.703125 76.582031 760.636719 71.15625 767.398438 69.636719 C 765.25 72.785156 757.601562 75.277344 750.09375 80.207031 C 754.050781 79.332031 758.050781 78.792969 758.8125 80.367188 C 758.871094 81.113281 756.710938 82.054688 755.355469 82.933594 C 758.265625 84.5625 765.339844 80.238281 772.324219 76.023438 C 772.597656 76.675781 772.875 77.328125 774.003906 76.785156 C 772.429688 78.292969 769.894531 79.417969 765.925781 82.03125 C 766.597656 82.910156 769.957031 79.949219 771.71875 79.261719 C 771.882812 80.457031 767.269531 82.085938 765.492188 83.441406 L 764.742188 82.15625 C 762.277344 83.566406 759.828125 85 757.339844 86.425781 C 758.199219 87.585938 761.667969 84.984375 764.308594 83.566406 C 764.882812 87.308594 770.882812 85.4375 774.636719 82.230469 C 775.851562 82.054688 775.847656 83.640625 778.167969 81.921875 C 777.242188 83.308594 775.761719 84.558594 779.605469 82.253906 C 779.828125 82.695312 778.664062 83.230469 778 83.75 C 778.957031 84.5 782.925781 80.929688 784.035156 81.414062 C 777.707031 84.453125 770.707031 89.601562 765.117188 93.480469 C 767.847656 93.507812 771.664062 89.605469 774.371094 88.148438 C 774.738281 89.015625 771.496094 90.207031 772.351562 91.042969 C 776.050781 91.835938 785.109375 83.441406 788.59375 82.835938 C 799.3125 77.242188 786.128906 84.511719 784.542969 86.421875 Z M 142.074219 434.308594 C 140.9375 432.707031 132.050781 438.375 130.433594 439.699219 C 129.347656 441.382812 138.851562 435.699219 142.074219 434.308594 Z M 124.972656 375.089844 L 118.335938 378.484375 L 118.796875 379.359375 C 120.804688 377.933594 126.597656 376.390625 124.972656 375.089844 Z M 134.320312 379.296875 C 131.8125 380.582031 128.609375 381.898438 129.097656 383.089844 C 130.894531 381.816406 136.027344 380.429688 134.320312 379.296875 Z M 135.347656 372.023438 C 133.148438 373.316406 124.328125 377.1875 127.050781 376.824219 C 131.097656 374.347656 134.289062 374.558594 135.347656 372.023438 Z M 148.738281 372.46875 C 145.640625 371.425781 139.25 377.757812 136.878906 379.65625 C 142.617188 377.214844 142.625 374.9375 148.738281 372.46875 Z M 437.695312 307.363281 C 435.820312 308.382812 433.941406 309.40625 432.03125 310.417969 C 432.183594 310.691406 432.351562 310.984375 432.492188 311.292969 C 434.332031 309.992188 439.449219 308.46875 437.695312 307.363281 Z M 455.085938 187.472656 C 459.601562 184.609375 462.828125 183.757812 465.59375 182.296875 C 482.117188 173.632812 453.839844 186.527344 455.085938 187.472656 Z M 491.886719 168.425781 C 493.015625 167.882812 494.484375 166.878906 494.914062 167.324219 C 506.929688 160.261719 500.269531 162.230469 491.886719 168.425781 Z M 537.703125 143.667969 C 534.070312 145.078125 526.109375 149.78125 526.578125 149.875 C 527.777344 150.097656 534.683594 146.167969 537.703125 143.667969 Z M 252.078125 294.574219 C 250.683594 295.175781 250.113281 294.691406 248.792969 295.160156 C 249.832031 296.160156 245.515625 297.414062 245.71875 298.46875 C 247.546875 297.203125 252.195312 295.792969 252.078125 294.574219 Z M 506.671875 153.410156 C 502.710938 155.929688 497.851562 158.503906 495.078125 160.957031 C 499.796875 158.402344 504.640625 155.804688 506.671875 153.410156 Z M 734.785156 37.347656 C 738.390625 36.160156 735.851562 36.480469 734.785156 37.347656 Z M 769.398438 70.910156 C 768.058594 70.761719 757.640625 76.78125 760.167969 76.230469 C 763.441406 73.710938 768.730469 72.328125 769.398438 70.910156 Z M 778.117188 71.070312 C 774.933594 71.570312 771.328125 76.222656 767.703125 76.519531 C 768.226562 76.226562 768.546875 75.570312 767.460938 76.089844 C 764.574219 80.367188 777.023438 72.582031 778.117188 71.070312 Z M 735.414062 144.6875 C 739.597656 141.652344 749.117188 138.5 748.414062 137.25 C 744.011719 140.316406 738.195312 141.335938 735.414062 144.6875 Z M 686.929688 176.347656 C 698.390625 169.835938 712.136719 164.371094 721.183594 158.613281 C 711.398438 162.78125 697.34375 168.714844 686.929688 176.347656 Z M 103.972656 394.785156 C 100.9375 396.992188 96.964844 399.21875 95.398438 401.382812 C 100.082031 399.085938 108.402344 395.230469 105.84375 396.097656 C 102.023438 398.175781 105.679688 395.378906 103.972656 394.785156 Z M 777.015625 122.53125 C 778.996094 121.273438 780.167969 121.183594 780.546875 122.226562 C 782.867188 120.507812 786.246094 118.703125 787.460938 117.09375 C 783.933594 119.429688 779.234375 119.40625 777.015625 122.53125 Z M 97.0625 435.300781 C 92.539062 440.226562 89.441406 437.152344 85.683594 438.8125 C 87.09375 440.261719 96.933594 439.171875 97.0625 435.300781 Z M 62.351562 430.429688 C 59.363281 431.863281 55.386719 432.867188 55.191406 435.128906 C 58.566406 433.535156 61.246094 431.976562 62.351562 430.429688 Z M 57.675781 418.792969 C 66.941406 415.183594 67.25 412.109375 57.675781 418.792969 Z M 64.695312 420.867188 C 76.253906 415.28125 77.085938 414.847656 85.128906 409.378906 C 75.273438 414.277344 69.894531 415.917969 64.695312 420.867188 Z M 86.175781 404.371094 C 82.972656 403.296875 76.457031 409.996094 73.828125 410.632812 C 77.929688 410.066406 80.917969 406.390625 86.175781 404.371094 Z M 372.117188 357.273438 C 375.382812 355.742188 382.242188 353.332031 384.40625 350.746094 C 380.753906 351.746094 374.179688 354.234375 372.117188 357.273438 Z M 66.484375 455.222656 C 67.359375 455.238281 76.554688 449.429688 75.578125 449.554688 C 72.46875 451.570312 71.300781 451.085938 69.410156 451.546875 C 69.128906 452.753906 66.71875 453.296875 69.125 453.382812 C 68.042969 453.957031 66.386719 454.621094 66.484375 455.222656 Z M 105.792969 445.441406 C 93.71875 452.296875 87.035156 455.449219 80.976562 460.25 C 91.164062 454.925781 100.382812 449.429688 105.792969 445.441406 Z M 59.457031 443.648438 C 62.964844 442.128906 70.308594 439.566406 72.785156 436.953125 C 67.972656 439.980469 61.488281 440.714844 59.457031 443.648438 Z M 68 470.125 C 71.640625 467.515625 76.011719 467.695312 77.535156 465.347656 C 75.414062 466.148438 65.96875 469.859375 68 470.125 Z M 81.757812 457.0625 C 87.382812 453.9375 90.175781 452.851562 92.003906 451.316406 C 90.152344 452.117188 92.179688 450.292969 90.609375 450.902344 C 91.402344 451.414062 85.777344 454.269531 85.835938 453.308594 C 86.371094 453.039062 86.726562 452.394531 85.617188 452.867188 C 85.925781 454.214844 82.007812 455.695312 81.757812 457.0625 Z M 87.574219 428.335938 C 86.78125 427.824219 80.039062 431.246094 79.964844 432.183594 C 82.320312 430.683594 88.144531 430.734375 87.574219 428.335938 Z M 92.265625 428.183594 C 92.398438 427.515625 92.863281 426.535156 92.046875 427.742188 C 89.191406 429.730469 84.640625 430.933594 84.21875 431.140625 C 66.871094 439.878906 81.183594 434.726562 92.265625 428.183594 Z M 653.304688 193.015625 C 651.9375 194.46875 647.925781 196.152344 647.257812 197.570312 C 649.242188 197.382812 654.046875 194.394531 653.304688 193.015625 Z M 612.527344 218.773438 C 614.617188 217.273438 619.617188 215.542969 619.773438 214.171875 C 616.867188 215.113281 613.777344 216.847656 612.527344 218.773438 Z M 254.40625 411.871094 C 256.359375 410.027344 264.300781 406.621094 261.765625 407.476562 C 259.296875 407.8125 253.074219 411.152344 254.40625 411.871094 Z M 85.597656 464.652344 C 87.601562 462.902344 94.546875 460.054688 92.050781 460.828125 C 90.0625 460.746094 84.726562 462.78125 85.597656 464.652344 Z M 103.503906 452.761719 C 100.128906 454.832031 93.722656 456.988281 92.292969 459.019531 C 95.691406 456.933594 102.097656 454.777344 103.503906 452.761719 Z M 103.503906 452.761719 " clip-rule="nonzero"/></clipPath><linearGradient x1="-7.405953" gradientTransform="matrix(2.272126, -1.27367, 1.274889, 2.274299, 0.44542, 419.130797)" y1="24.660999" x2="341.114245" gradientUnits="userSpaceOnUse" y2="24.660999" id="id14"><stop stop-opacity="1" stop-color="rgb(8.198547%, 80.799866%, 100%)" offset="0"/><stop stop-opacity="1" stop-color="rgb(8.198547%, 80.799866%, 100%)" offset="0.25"/><stop stop-opacity="1" stop-color="rgb(8.198547%, 80.799866%, 100%)" offset="0.3125"/><stop stop-opacity="1" stop-color="rgb(8.184814%, 80.702209%, 100%)" offset="0.328125"/><stop stop-opacity="1" stop-color="rgb(8.122253%, 80.245972%, 100%)" offset="0.332031"/><stop stop-opacity="1" stop-color="rgb(8.071899%, 79.88739%, 100%)" offset="0.335938"/><stop stop-opacity="1" stop-color="rgb(8.021545%, 79.527283%, 100%)" offset="0.339844"/><stop stop-opacity="1" stop-color="rgb(7.971191%, 79.167175%, 100%)" offset="0.34375"/><stop stop-opacity="1" stop-color="rgb(7.920837%, 78.807068%, 100%)" offset="0.347656"/><stop stop-opacity="1" stop-color="rgb(7.872009%, 78.448486%, 100%)" offset="0.351563"/><stop stop-opacity="1" stop-color="rgb(7.821655%, 78.088379%, 100%)" offset="0.355469"/><stop stop-opacity="1" stop-color="rgb(7.771301%, 77.729797%, 100%)" offset="0.359375"/><stop stop-opacity="1" stop-color="rgb(7.720947%, 77.36969%, 100%)" offset="0.363281"/><stop stop-opacity="1" stop-color="rgb(7.670593%, 77.011108%, 100%)" offset="0.367188"/><stop stop-opacity="1" stop-color="rgb(7.620239%, 76.651001%, 100%)" offset="0.371094"/><stop stop-opacity="1" stop-color="rgb(7.569885%, 76.290894%, 100%)" offset="0.375"/><stop stop-opacity="1" stop-color="rgb(7.519531%, 75.930786%, 100%)" offset="0.378906"/><stop stop-opacity="1" stop-color="rgb(7.470703%, 75.572205%, 100%)" offset="0.382813"/><stop stop-opacity="1" stop-color="rgb(7.420349%, 75.212097%, 100%)" offset="0.386719"/><stop stop-opacity="1" stop-color="rgb(7.369995%, 74.853516%, 100%)" offset="0.390625"/><stop stop-opacity="1" stop-color="rgb(7.319641%, 74.493408%, 100%)" offset="0.394531"/><stop stop-opacity="1" stop-color="rgb(7.269287%, 74.134827%, 100%)" offset="0.398438"/><stop stop-opacity="1" stop-color="rgb(7.218933%, 73.774719%, 100%)" offset="0.402344"/><stop stop-opacity="1" stop-color="rgb(7.170105%, 73.414612%, 100%)" offset="0.40625"/><stop stop-opacity="1" stop-color="rgb(7.119751%, 73.054504%, 100%)" offset="0.410156"/><stop stop-opacity="1" stop-color="rgb(7.069397%, 72.695923%, 100%)" offset="0.414063"/><stop stop-opacity="1" stop-color="rgb(7.019043%, 72.335815%, 100%)" offset="0.417969"/><stop stop-opacity="1" stop-color="rgb(6.968689%, 71.977234%, 100%)" offset="0.421875"/><stop stop-opacity="1" stop-color="rgb(6.918335%, 71.617126%, 100%)" offset="0.425781"/><stop stop-opacity="1" stop-color="rgb(6.867981%, 71.257019%, 100%)" offset="0.429688"/><stop stop-opacity="1" stop-color="rgb(6.817627%, 70.896912%, 100%)" offset="0.433594"/><stop stop-opacity="1" stop-color="rgb(6.768799%, 70.53833%, 100%)" offset="0.4375"/><stop stop-opacity="1" stop-color="rgb(6.718445%, 70.178223%, 100%)" offset="0.441406"/><stop stop-opacity="1" stop-color="rgb(6.668091%, 69.819641%, 100%)" offset="0.445313"/><stop stop-opacity="1" stop-color="rgb(6.617737%, 69.459534%, 100%)" offset="0.449219"/><stop stop-opacity="1" stop-color="rgb(6.567383%, 69.100952%, 100%)" offset="0.453125"/><stop stop-opacity="1" stop-color="rgb(6.517029%, 68.740845%, 100%)" offset="0.457031"/><stop stop-opacity="1" stop-color="rgb(6.468201%, 68.380737%, 100%)" offset="0.460938"/><stop stop-opacity="1" stop-color="rgb(6.417847%, 68.02063%, 100%)" offset="0.464844"/><stop stop-opacity="1" stop-color="rgb(6.367493%, 67.662048%, 100%)" offset="0.46875"/><stop stop-opacity="1" stop-color="rgb(6.317139%, 67.301941%, 100%)" offset="0.472656"/><stop stop-opacity="1" stop-color="rgb(6.266785%, 66.943359%, 100%)" offset="0.476563"/><stop stop-opacity="1" stop-color="rgb(6.216431%, 66.583252%, 100%)" offset="0.480469"/><stop stop-opacity="1" stop-color="rgb(6.166077%, 66.223145%, 100%)" offset="0.484375"/><stop stop-opacity="1" stop-color="rgb(6.115723%, 65.863037%, 100%)" offset="0.488281"/><stop stop-opacity="1" stop-color="rgb(6.066895%, 65.504456%, 100%)" offset="0.492188"/><stop stop-opacity="1" stop-color="rgb(6.016541%, 65.144348%, 100%)" offset="0.496094"/><stop stop-opacity="1" stop-color="rgb(5.966187%, 64.785767%, 100%)" offset="0.5"/><stop stop-opacity="1" stop-color="rgb(5.915833%, 64.425659%, 100%)" offset="0.503906"/><stop stop-opacity="1" stop-color="rgb(5.865479%, 64.067078%, 100%)" offset="0.507813"/><stop stop-opacity="1" stop-color="rgb(5.815125%, 63.70697%, 100%)" offset="0.511719"/><stop stop-opacity="1" stop-color="rgb(5.764771%, 63.346863%, 100%)" offset="0.515625"/><stop stop-opacity="1" stop-color="rgb(5.714417%, 62.986755%, 100%)" offset="0.519531"/><stop stop-opacity="1" stop-color="rgb(5.665588%, 62.628174%, 100%)" offset="0.523438"/><stop stop-opacity="1" stop-color="rgb(5.615234%, 62.268066%, 100%)" offset="0.527344"/><stop stop-opacity="1" stop-color="rgb(5.56488%, 61.909485%, 100%)" offset="0.53125"/><stop stop-opacity="1" stop-color="rgb(5.514526%, 61.549377%, 100%)" offset="0.535156"/><stop stop-opacity="1" stop-color="rgb(5.464172%, 61.190796%, 100%)" offset="0.539063"/><stop stop-opacity="1" stop-color="rgb(5.413818%, 60.830688%, 100%)" offset="0.542969"/><stop stop-opacity="1" stop-color="rgb(5.36499%, 60.470581%, 100%)" offset="0.546875"/><stop stop-opacity="1" stop-color="rgb(5.314636%, 60.110474%, 100%)" offset="0.550781"/><stop stop-opacity="1" stop-color="rgb(5.264282%, 59.751892%, 100%)" offset="0.554688"/><stop stop-opacity="1" stop-color="rgb(5.213928%, 59.391785%, 100%)" offset="0.558594"/><stop stop-opacity="1" stop-color="rgb(5.163574%, 59.033203%, 100%)" offset="0.5625"/><stop stop-opacity="1" stop-color="rgb(5.11322%, 58.673096%, 100%)" offset="0.566406"/><stop stop-opacity="1" stop-color="rgb(5.062866%, 58.312988%, 100%)" offset="0.570312"/><stop stop-opacity="1" stop-color="rgb(5.012512%, 57.952881%, 100%)" offset="0.574219"/><stop stop-opacity="1" stop-color="rgb(4.963684%, 57.594299%, 100%)" offset="0.578125"/><stop stop-opacity="1" stop-color="rgb(4.91333%, 57.234192%, 100%)" offset="0.582031"/><stop stop-opacity="1" stop-color="rgb(4.862976%, 56.87561%, 100%)" offset="0.585938"/><stop stop-opacity="1" stop-color="rgb(4.812622%, 56.515503%, 100%)" offset="0.589844"/><stop stop-opacity="1" stop-color="rgb(4.762268%, 56.156921%, 100%)" offset="0.59375"/><stop stop-opacity="1" stop-color="rgb(4.711914%, 55.796814%, 100%)" offset="0.597656"/><stop stop-opacity="1" stop-color="rgb(4.663086%, 55.436707%, 100%)" offset="0.601563"/><stop stop-opacity="1" stop-color="rgb(4.612732%, 55.076599%, 100%)" offset="0.605469"/><stop stop-opacity="1" stop-color="rgb(4.562378%, 54.718018%, 100%)" offset="0.609375"/><stop stop-opacity="1" stop-color="rgb(4.512024%, 54.35791%, 100%)" offset="0.613281"/><stop stop-opacity="1" stop-color="rgb(4.46167%, 53.999329%, 100%)" offset="0.617188"/><stop stop-opacity="1" stop-color="rgb(4.411316%, 53.639221%, 100%)" offset="0.621094"/><stop stop-opacity="1" stop-color="rgb(4.360962%, 53.279114%, 100%)" offset="0.625"/><stop stop-opacity="1" stop-color="rgb(4.310608%, 52.919006%, 100%)" offset="0.628906"/><stop stop-opacity="1" stop-color="rgb(4.26178%, 52.560425%, 100%)" offset="0.632813"/><stop stop-opacity="1" stop-color="rgb(4.211426%, 52.200317%, 100%)" offset="0.636719"/><stop stop-opacity="1" stop-color="rgb(4.161072%, 51.841736%, 100%)" offset="0.640625"/><stop stop-opacity="1" stop-color="rgb(4.110718%, 51.481628%, 100%)" offset="0.644531"/><stop stop-opacity="1" stop-color="rgb(4.060364%, 51.123047%, 100%)" offset="0.648438"/><stop stop-opacity="1" stop-color="rgb(4.01001%, 50.762939%, 100%)" offset="0.652344"/><stop stop-opacity="1" stop-color="rgb(3.959656%, 50.402832%, 100%)" offset="0.65625"/><stop stop-opacity="1" stop-color="rgb(3.909302%, 50.042725%, 100%)" offset="0.660156"/><stop stop-opacity="1" stop-color="rgb(3.860474%, 49.684143%, 100%)" offset="0.664063"/><stop stop-opacity="1" stop-color="rgb(3.81012%, 49.324036%, 100%)" offset="0.667969"/><stop stop-opacity="1" stop-color="rgb(3.759766%, 48.965454%, 100%)" offset="0.671875"/><stop stop-opacity="1" stop-color="rgb(3.709412%, 48.605347%, 100%)" offset="0.675781"/><stop stop-opacity="1" stop-color="rgb(3.659058%, 48.245239%, 100%)" offset="0.679688"/><stop stop-opacity="1" stop-color="rgb(3.608704%, 47.885132%, 100%)" offset="0.683594"/><stop stop-opacity="1" stop-color="rgb(3.559875%, 47.52655%, 100%)" offset="0.6875"/><stop stop-opacity="1" stop-color="rgb(3.509521%, 47.166443%, 100%)" offset="0.691406"/><stop stop-opacity="1" stop-color="rgb(3.459167%, 46.807861%, 100%)" offset="0.695312"/><stop stop-opacity="1" stop-color="rgb(3.408813%, 46.447754%, 100%)" offset="0.699219"/><stop stop-opacity="1" stop-color="rgb(3.358459%, 46.089172%, 100%)" offset="0.703125"/><stop stop-opacity="1" stop-color="rgb(3.308105%, 45.729065%, 100%)" offset="0.707031"/><stop stop-opacity="1" stop-color="rgb(3.257751%, 45.368958%, 100%)" offset="0.710938"/><stop stop-opacity="1" stop-color="rgb(3.207397%, 45.00885%, 100%)" offset="0.714844"/><stop stop-opacity="1" stop-color="rgb(3.158569%, 44.650269%, 100%)" offset="0.71875"/><stop stop-opacity="1" stop-color="rgb(3.108215%, 44.290161%, 100%)" offset="0.722656"/><stop stop-opacity="1" stop-color="rgb(3.057861%, 43.93158%, 100%)" offset="0.726563"/><stop stop-opacity="1" stop-color="rgb(3.007507%, 43.571472%, 100%)" offset="0.730469"/><stop stop-opacity="1" stop-color="rgb(2.957153%, 43.212891%, 100%)" offset="0.734375"/><stop stop-opacity="1" stop-color="rgb(2.906799%, 42.852783%, 100%)" offset="0.738281"/><stop stop-opacity="1" stop-color="rgb(2.857971%, 42.492676%, 100%)" offset="0.742188"/><stop stop-opacity="1" stop-color="rgb(2.807617%, 42.132568%, 100%)" offset="0.746094"/><stop stop-opacity="1" stop-color="rgb(2.757263%, 41.773987%, 100%)" offset="0.75"/><stop stop-opacity="1" stop-color="rgb(2.706909%, 41.413879%, 100%)" offset="0.753906"/><stop stop-opacity="1" stop-color="rgb(2.656555%, 41.055298%, 100%)" offset="0.757813"/><stop stop-opacity="1" stop-color="rgb(2.606201%, 40.69519%, 100%)" offset="0.761719"/><stop stop-opacity="1" stop-color="rgb(2.555847%, 40.335083%, 100%)" offset="0.765625"/><stop stop-opacity="1" stop-color="rgb(2.505493%, 39.974976%, 100%)" offset="0.769531"/><stop stop-opacity="1" stop-color="rgb(2.456665%, 39.616394%, 100%)" offset="0.773438"/><stop stop-opacity="1" stop-color="rgb(2.406311%, 39.256287%, 100%)" offset="0.777344"/><stop stop-opacity="1" stop-color="rgb(2.355957%, 38.897705%, 100%)" offset="0.78125"/><stop stop-opacity="1" stop-color="rgb(2.305603%, 38.537598%, 100%)" offset="0.785156"/><stop stop-opacity="1" stop-color="rgb(2.255249%, 38.179016%, 100%)" offset="0.789063"/><stop stop-opacity="1" stop-color="rgb(2.204895%, 37.818909%, 100%)" offset="0.792969"/><stop stop-opacity="1" stop-color="rgb(2.154541%, 37.458801%, 100%)" offset="0.796875"/><stop stop-opacity="1" stop-color="rgb(2.104187%, 37.098694%, 100%)" offset="0.800781"/><stop stop-opacity="1" stop-color="rgb(2.055359%, 36.740112%, 100%)" offset="0.804688"/><stop stop-opacity="1" stop-color="rgb(2.005005%, 36.380005%, 100%)" offset="0.808594"/><stop stop-opacity="1" stop-color="rgb(1.954651%, 36.021423%, 100%)" offset="0.8125"/><stop stop-opacity="1" stop-color="rgb(1.904297%, 35.661316%, 100%)" offset="0.816406"/><stop stop-opacity="1" stop-color="rgb(1.853943%, 35.301208%, 100%)" offset="0.820312"/><stop stop-opacity="1" stop-color="rgb(1.803589%, 34.941101%, 100%)" offset="0.824219"/><stop stop-opacity="1" stop-color="rgb(1.754761%, 34.58252%, 100%)" offset="0.828125"/><stop stop-opacity="1" stop-color="rgb(1.704407%, 34.222412%, 100%)" offset="0.832031"/><stop stop-opacity="1" stop-color="rgb(1.654053%, 33.863831%, 100%)" offset="0.835938"/><stop stop-opacity="1" stop-color="rgb(1.603699%, 33.503723%, 100%)" offset="0.839844"/><stop stop-opacity="1" stop-color="rgb(1.553345%, 33.145142%, 100%)" offset="0.84375"/><stop stop-opacity="1" stop-color="rgb(1.502991%, 32.785034%, 100%)" offset="0.847656"/><stop stop-opacity="1" stop-color="rgb(1.452637%, 32.424927%, 100%)" offset="0.851563"/><stop stop-opacity="1" stop-color="rgb(1.402283%, 32.064819%, 100%)" offset="0.855469"/><stop stop-opacity="1" stop-color="rgb(1.353455%, 31.706238%, 100%)" offset="0.859375"/><stop stop-opacity="1" stop-color="rgb(1.303101%, 31.34613%, 100%)" offset="0.863281"/><stop stop-opacity="1" stop-color="rgb(1.252747%, 30.987549%, 100%)" offset="0.867188"/><stop stop-opacity="1" stop-color="rgb(1.202393%, 30.627441%, 100%)" offset="0.871094"/><stop stop-opacity="1" stop-color="rgb(1.152039%, 30.26886%, 100%)" offset="0.875"/><stop stop-opacity="1" stop-color="rgb(1.101685%, 29.908752%, 100%)" offset="0.878906"/><stop stop-opacity="1" stop-color="rgb(1.052856%, 29.548645%, 100%)" offset="0.882813"/><stop stop-opacity="1" stop-color="rgb(1.002502%, 29.188538%, 100%)" offset="0.886719"/><stop stop-opacity="1" stop-color="rgb(0.952148%, 28.829956%, 100%)" offset="0.890625"/><stop stop-opacity="1" stop-color="rgb(0.901794%, 28.469849%, 100%)" offset="0.894531"/><stop stop-opacity="1" stop-color="rgb(0.85144%, 28.111267%, 100%)" offset="0.898438"/><stop stop-opacity="1" stop-color="rgb(0.801086%, 27.75116%, 100%)" offset="0.902344"/><stop stop-opacity="1" stop-color="rgb(0.750732%, 27.391052%, 100%)" offset="0.90625"/><stop stop-opacity="1" stop-color="rgb(0.700378%, 27.030945%, 100%)" offset="0.910156"/><stop stop-opacity="1" stop-color="rgb(0.65155%, 26.672363%, 100%)" offset="0.914063"/><stop stop-opacity="1" stop-color="rgb(0.601196%, 26.312256%, 100%)" offset="0.917969"/><stop stop-opacity="1" stop-color="rgb(0.550842%, 25.953674%, 100%)" offset="0.921875"/><stop stop-opacity="1" stop-color="rgb(0.500488%, 25.593567%, 100%)" offset="0.925781"/><stop stop-opacity="1" stop-color="rgb(0.450134%, 25.234985%, 100%)" offset="0.929688"/><stop stop-opacity="1" stop-color="rgb(0.39978%, 24.874878%, 100%)" offset="0.933594"/><stop stop-opacity="1" stop-color="rgb(0.349426%, 24.514771%, 100%)" offset="0.9375"/><stop stop-opacity="1" stop-color="rgb(0.299072%, 24.154663%, 100%)" offset="0.941406"/><stop stop-opacity="1" stop-color="rgb(0.250244%, 23.796082%, 100%)" offset="0.945312"/><stop stop-opacity="1" stop-color="rgb(0.19989%, 23.435974%, 100%)" offset="0.949219"/><stop stop-opacity="1" stop-color="rgb(0.149536%, 23.077393%, 100%)" offset="0.953125"/><stop stop-opacity="1" stop-color="rgb(0.0991821%, 22.717285%, 100%)" offset="0.957031"/><stop stop-opacity="1" stop-color="rgb(0.0488281%, 22.357178%, 100%)" offset="0.960938"/><stop stop-opacity="1" stop-color="rgb(0.0244141%, 22.177124%, 100%)" offset="0.96875"/><stop stop-opacity="1" stop-color="rgb(0%, 21.998596%, 100%)" offset="1"/></linearGradient><clipPath id="id15"><rect x="0" width="812" y="0" height="534"/></clipPath></defs><rect x="-144" width="1728" fill="#ffffff" y="-80.999999" height="971.999992" fill-opacity="1"/><rect x="-144" width="1728" fill="#000000" y="-80.999999" height="971.999992" fill-opacity="1"/><rect x="-144" width="1728" fill="#ffffff" y="-80.999999" height="971.999992" fill-opacity="1"/><rect x="-144" width="1728" fill="#000000" y="-80.999999" height="971.999992" fill-opacity="1"/><g mask="url(#id2)"><g transform="matrix(1, 0, 0, 1, 512, 126)"><g clip-path="url(#id8)"><g clip-path="url(#id3)"><g clip-path="url(#id4)"><g clip-path="url(#id5)"><g clip-path="url(#id6)"><path fill="url(#id7)" d="M -191.984375 142.867188 L 210.414062 860.71875 L 1050.253906 389.9375 L 647.855469 -327.914062 Z M -191.984375 142.867188 " fill-rule="nonzero"/></g></g></g></g></g></g></g><g mask="url(#id9)"><g transform="matrix(1, 0, 0, 1, 40, 197)"><g clip-path="url(#id15)"><g clip-path="url(#id10)"><g clip-path="url(#id11)"><g clip-path="url(#id12)"><g clip-path="url(#id13)"><path fill="url(#id14)" d="M -181.558594 133.902344 L 197.878906 810.785156 L 989.761719 366.886719 L 610.324219 -309.996094 Z M -181.558594 133.902344 " fill-rule="nonzero"/></g></g></g></g></g></g></g></svg>