<svg xmlns="http://www.w3.org/2000/svg" xmlns:xlink="http://www.w3.org/1999/xlink" width="414" zoomAndPan="magnify" viewBox="0 0 310.5 552.000001" height="736" preserveAspectRatio="xMidYMid meet" version="1.0"><defs><filter x="0%" y="0%" width="100%" height="100%" id="id1"><feColorMatrix values="0 0 0 0 1 0 0 0 0 1 0 0 0 0 1 0 0 0 1 0" color-interpolation-filters="sRGB"/></filter><clipPath id="id2"><path d="M 0.03125 0 L 309.96875 0 L 309.96875 551 L 0.03125 551 Z M 0.03125 0 " clip-rule="nonzero"/></clipPath><clipPath id="id3"><path d="M 0.03125 206 L 309.96875 206 L 309.96875 428 L 0.03125 428 Z M 0.03125 206 " clip-rule="nonzero"/></clipPath><mask id="id4"><g filter="url(#id1)"><rect x="-31.05" width="372.6" fill="#000000" y="-55.2" height="662.400001" fill-opacity="0.2471"/></g></mask><clipPath id="id5"><path d="M 0.03125 11 L 308 11 L 308 198 L 0.03125 198 Z M 0.03125 11 " clip-rule="nonzero"/></clipPath><clipPath id="id6"><path d="M -22.359375 174.214844 L 290.949219 -1.414062 L 317.351562 45.679688 L 4.039062 221.3125 Z M -22.359375 174.214844 " clip-rule="nonzero"/></clipPath><clipPath id="id7"><path d="M -22.359375 174.214844 L 290.949219 -1.414062 L 317.351562 45.679688 L 4.039062 221.3125 Z M -22.359375 174.214844 " clip-rule="nonzero"/></clipPath><clipPath id="id8"><path d="M -1.183594 168.832031 C -2.746094 169.941406 -6.476562 171.503906 -8.296875 172.398438 C -7.769531 171.386719 -3.183594 169.78125 -1.183594 168.832031 Z M -14.640625 180.457031 C -12.703125 179 -11.308594 179.132812 -10.085938 177.707031 C -11.425781 178.617188 -14.882812 179.578125 -14.640625 180.457031 Z M -7.179688 166.75 C -9.199219 167.796875 -12.375 168.710938 -13.882812 170.113281 C -11.675781 169.113281 -8.117188 167.910156 -7.179688 166.75 Z M 1.339844 184.691406 C 0.378906 185.75 -1.667969 185.859375 -1.640625 186.660156 C -0.714844 186.007812 1.953125 185.300781 1.339844 184.691406 Z M -7.511719 175.941406 C -3.359375 173.699219 2.097656 171.429688 5.425781 169.195312 L -1.277344 172.582031 C -3.199219 173.695312 -6.402344 174.847656 -7.511719 175.941406 Z M 11.535156 166.5625 C 11.015625 166.828125 11.011719 166.421875 10.558594 166.589844 C 11.246094 167.464844 8.847656 166.683594 8.679688 167.78125 C 9.675781 167.144531 11.078125 167.523438 11.535156 166.5625 Z M -7.265625 185.3125 C -7.355469 185.128906 -7.054688 184.933594 -7.050781 184.734375 C -7.871094 184.910156 -11.65625 187.042969 -10.820312 187.09375 C -10.316406 186.839844 -10.386719 186.582031 -9.722656 186.304688 C -8.851562 186.707031 -1.34375 182.339844 -7.265625 185.3125 Z M 23.230469 152.5 C 23.394531 152.707031 23.574219 152.875 24.199219 152.464844 L 23.917969 151.917969 C 22.929688 152.386719 21.992188 152.859375 22.140625 153.285156 C 22.6875 153.015625 22.964844 152.761719 23.230469 152.5 Z M -11.960938 192.765625 C -10.8125 192.046875 -8.429688 191.292969 -8.085938 190.597656 C -9.640625 191.082031 -10.886719 191.695312 -11.960938 192.765625 Z M 8.066406 193.128906 C 5.941406 194.320312 0.625 196.59375 0.625 197.101562 C 3.265625 195.347656 7.097656 194.699219 8.066406 193.128906 Z M -3.328125 176.390625 L -0.558594 174.996094 C -0.855469 174.175781 -3.089844 176.035156 -3.328125 176.390625 Z M -14.40625 175.007812 C -15.675781 175.792969 -18.199219 176.613281 -18.660156 177.378906 C -17.378906 176.589844 -14.871094 175.773438 -14.40625 175.007812 Z M -7.238281 180.4375 C -8.609375 181.402344 -11.304688 182.890625 -11.007812 182.796875 C -7.226562 181.542969 -1.632812 178.988281 0.949219 177.023438 C 0.320312 177.3125 -0.414062 177.734375 -0.425781 177.25 C -3.578125 178.953125 -4.738281 180.074219 -7.839844 181.207031 C -7.367188 180.941406 -6.933594 180.675781 -7.238281 180.4375 Z M 28.027344 156.082031 C 26.328125 157.230469 24.25 157.308594 23.308594 158.492188 C 24.851562 158.070312 29.191406 155.628906 28.027344 156.082031 Z M 41.949219 145.457031 C 43.042969 144.152344 46.203125 143.703125 46.277344 142.289062 C 40.960938 145.269531 32.4375 148.378906 27.621094 151.410156 C 32.5625 149.667969 38.152344 146.792969 42.636719 144.871094 C 42.359375 145.066406 41.871094 145.277344 41.949219 145.457031 Z M 226.65625 43.15625 C 223.257812 45.21875 218.570312 47.378906 215.972656 49.390625 C 220.664062 47.058594 223.808594 45.320312 226.65625 43.15625 Z M 190.207031 63.015625 C 194.289062 60.507812 198.332031 57.957031 201.679688 55.472656 C 197.496094 58.015625 193.300781 60.566406 190.207031 63.015625 Z M 235.257812 35.933594 C 239.894531 34.421875 243.945312 30.976562 246.925781 31.457031 C 255.460938 26.027344 260.921875 22.746094 265.328125 17.382812 C 260.300781 21.523438 251.132812 27.738281 244.441406 29.773438 C 244.207031 30.753906 245.800781 29.144531 245.890625 29.664062 C 241.96875 32.097656 238.355469 33.886719 235.257812 35.933594 Z M 291.550781 11.574219 C 290.632812 11.570312 287.582031 12.910156 286.753906 13.867188 C 288.214844 13.503906 291.042969 12.390625 291.550781 11.574219 Z M 266.003906 20.316406 C 266.132812 19.554688 266.203125 18.796875 266.714844 18.003906 C 265.464844 18.542969 265.429688 18.984375 264.511719 19.496094 C 264.792969 20.082031 265.257812 20.402344 266.003906 20.316406 Z M 199.105469 59.03125 C 197.863281 59.664062 195.644531 60.007812 194.753906 61.210938 C 195.363281 61.761719 198.761719 59.988281 199.105469 59.03125 Z M 47.738281 142.234375 C 51.996094 139.53125 59.496094 136.4375 62.941406 134.121094 C 58.84375 136 50.503906 139.746094 46.765625 142.273438 C 47.882812 141.625 48.136719 141.617188 47.738281 142.234375 Z M 52.382812 137.742188 C 50.878906 137.828125 48.152344 139.628906 46.5 140.777344 C 48.589844 139.410156 51.359375 138.75 52.382812 137.742188 Z M 69.304688 131.039062 C 69.0625 130.800781 68.644531 131.34375 68.621094 131.632812 C 70.1875 130.816406 71.753906 130 73.320312 129.183594 C 73.984375 128.378906 70.402344 130.558594 69.304688 131.039062 Z M 303.710938 36.09375 C 302.464844 36.507812 300.851562 37.4375 299.863281 38.3125 C 300.136719 38.582031 300.761719 38.34375 301.609375 37.777344 C 301.65625 38.519531 298.65625 39.238281 299.023438 39.515625 C 298.648438 39.511719 298.597656 38.800781 296.785156 40.085938 C 298.050781 40.28125 296.992188 42.78125 294.667969 44.414062 C 295.148438 44.492188 296.050781 43.960938 296.804688 43.664062 C 297.347656 43.988281 296.210938 44.464844 295.964844 44.863281 C 298.082031 44.949219 301.570312 41.140625 303.304688 41.578125 C 303.0625 42.578125 296.515625 45.65625 297.386719 46.429688 C 295.34375 48.144531 291.058594 49.40625 288.726562 51.886719 C 294.035156 49.246094 300.007812 45.613281 304.371094 44.292969 C 304.269531 44.78125 303.683594 44.730469 303.21875 44.964844 C 302.785156 45.257812 303.082031 45.472656 303.148438 45.722656 C 300.140625 47.359375 298.84375 48.234375 296.78125 48.917969 C 295.132812 50.820312 291.597656 52.890625 287.941406 54.960938 C 288.886719 53.851562 293.207031 51.246094 295.730469 49.765625 C 290.101562 52.304688 286.832031 55.261719 281.074219 58.167969 C 281.179688 58.332031 281.621094 58.035156 281.945312 57.902344 C 281.527344 58.507812 280.371094 59.167969 280.914062 59.695312 C 269.355469 68.597656 248.890625 79.140625 236.320312 86.597656 C 236.230469 86.410156 236.714844 86.191406 236.996094 85.984375 C 234.152344 87.378906 230.40625 90.195312 226.507812 91.835938 C 226.425781 91.621094 226.609375 91.394531 226.9375 91.164062 C 221.09375 94.625 216.230469 98.144531 209.304688 101.160156 C 203.628906 103.636719 210.8125 100.152344 210.757812 100.121094 C 209.636719 99.515625 203.953125 104.726562 202.679688 104.824219 C 202.628906 104.507812 203.8125 104.113281 203.65625 103.816406 C 202.476562 103.996094 201.882812 105.035156 200.351562 106.117188 C 200.335938 105.863281 201.058594 105.558594 200.925781 105.324219 C 193.648438 109.191406 186.335938 113.402344 178.953125 117.726562 C 171.566406 122.042969 164.070312 126.40625 156.390625 130.535156 C 155.957031 131.398438 158.300781 129.957031 157.074219 130.871094 C 157.886719 130.859375 158.238281 130.066406 159.226562 130.167969 C 159.261719 130.609375 157.445312 131.15625 158.441406 131.539062 C 157.164062 131.785156 156.746094 130.878906 155.605469 130.949219 C 147.269531 134.152344 141.914062 139.429688 133.242188 143.871094 C 133.710938 144.089844 134.558594 143.800781 135.496094 143.375 C 135.738281 144.203125 129.605469 144.425781 129.605469 146.503906 C 124.496094 148.15625 121.136719 150.3125 115.746094 153.628906 C 115.625 153.277344 115.054688 153.5 114.972656 153.109375 C 113.824219 153.851562 114.285156 154.523438 112.113281 155.320312 C 111.988281 154.941406 113.382812 154.507812 113.492188 154.125 C 110.007812 155.238281 106.804688 157.960938 103.347656 159.699219 C 103.945312 158.90625 102.996094 159.429688 102.265625 159.566406 C 102.195312 159.949219 102.175781 159.976562 101.371094 160.734375 C 100.644531 160.96875 100.90625 160.4375 101.570312 160.164062 C 96.125 162.648438 87.382812 167.671875 79.671875 172.070312 C 79.933594 172.453125 81.386719 171.28125 82.136719 171.023438 C 82 171.308594 81.183594 171.867188 81.933594 171.59375 C 69.28125 178.164062 54.03125 185.75 43.1875 190.628906 C 43.871094 189.480469 46.546875 188.253906 48.84375 187.039062 C 49.839844 186.46875 48.140625 187 48.46875 186.296875 C 49.996094 185.726562 50.410156 184.886719 51.238281 184.882812 C 51.769531 185.238281 49.300781 185.707031 49.835938 186.0625 C 50.746094 186.132812 51.554688 184.628906 52.816406 184.070312 C 49.269531 184.894531 44.285156 187.875 41.164062 188.636719 C 40.714844 188.898438 40.996094 189.136719 41.050781 189.390625 C 37.945312 190.070312 32.511719 193.929688 28.363281 195.847656 C 34.3125 191.5 44.210938 187.164062 50.089844 183.609375 C 46.960938 183.964844 44.417969 186.269531 42.382812 187.085938 C 41.863281 187.292969 41.125 187.085938 40.910156 187.144531 C 40.464844 187.257812 40.769531 187.691406 40.710938 187.714844 C 40.042969 187.988281 39.464844 187.734375 38.847656 187.980469 C 36.390625 188.9375 34.441406 191.167969 30.609375 192.398438 C 30.789062 192.582031 31.414062 192.195312 31.894531 191.988281 C 29.894531 193.691406 28.820312 193.082031 26.335938 194.808594 C 26.5 194.234375 31.085938 191.898438 33.683594 190.617188 C 31.617188 190.539062 28.460938 192.902344 25.960938 194.066406 C 26.882812 193.636719 23.191406 195.679688 25.472656 194.082031 C 26.460938 193.390625 32.144531 190.773438 33.515625 189.300781 C 33.933594 189.820312 36.828125 187.679688 39.949219 186.25 C 37.496094 186.660156 43.039062 184.34375 44.511719 183.445312 C 42.648438 183.871094 41.84375 183.582031 40.089844 184.550781 C 40.292969 183.917969 42.539062 183.203125 43.558594 182.542969 C 42.050781 182.84375 39.976562 183.882812 37.828125 185.015625 C 37.570312 184.773438 38.042969 184.511719 37.941406 184.257812 C 35.296875 186.050781 32.207031 186.855469 31.304688 187.878906 C 29.738281 187.742188 27.636719 188.289062 24.496094 190.175781 C 23.351562 190.433594 26.371094 189 26.683594 188.601562 C 24.285156 189.082031 22.503906 190.09375 20.15625 191.445312 C 21.722656 189.453125 25.574219 188.570312 29.277344 186.828125 C 27.566406 186.304688 31.164062 186.363281 31.761719 184.867188 C 31.765625 185.050781 31.460938 185.257812 31.5625 185.4375 C 33.609375 184.683594 32.78125 184.023438 34.445312 183.273438 C 33.226562 183.625 31.90625 184.390625 30.484375 185.285156 C 29.472656 185.496094 32.28125 183.996094 32.578125 183.53125 C 31.550781 183.511719 29.097656 185.136719 28.21875 185.738281 C 29.4375 184.328125 26.835938 185.882812 25.167969 186.585938 C 27.871094 184.699219 29.65625 184.515625 31.710938 182.804688 C 31.578125 182.519531 29.226562 183.726562 31.125 182.640625 C 27.960938 183.730469 24.957031 185.75 23.207031 186.65625 C 24.117188 185.378906 25.101562 185.136719 27.679688 183.691406 C 26.523438 183.226562 24.5625 185.660156 23.4375 185.140625 C 23.347656 184.710938 25.148438 184.207031 25.226562 183.769531 C 23.070312 184.085938 19.359375 186.390625 16.335938 187.8125 C 17.734375 185.570312 22.550781 183.957031 25.277344 181.886719 C 24.308594 181.996094 20.785156 183.773438 20.136719 184.496094 C 18.589844 184.878906 20.667969 183.628906 21.523438 183.320312 C 18.855469 183.765625 19.484375 184.996094 17.5625 185.332031 C 17.488281 184.644531 19.71875 183.886719 20.453125 183.179688 C 20.246094 182.988281 19.152344 183.539062 19.265625 183.785156 C 18.675781 183.175781 24.167969 180.75 25.523438 179.445312 C 25.183594 179.042969 22.382812 181.332031 24.242188 179.867188 C 22.640625 180.507812 22.734375 180.253906 20.890625 181.105469 C 23.71875 179.417969 23.191406 179.121094 26.246094 177.929688 C 25.636719 177.898438 24.429688 178.625 24.589844 177.609375 C 23.519531 178.085938 24.644531 178.480469 23.292969 178.964844 C 23.203125 178.78125 23.109375 178.597656 23.003906 178.410156 C 20.289062 179.699219 19.179688 180.554688 17.070312 181.417969 C 19.894531 179.351562 20.847656 178.703125 23.996094 177.433594 C 22 177.367188 17.023438 180.144531 16 181.261719 C 15.316406 181.125 16.164062 180.847656 14.324219 181.878906 C 15.144531 181.0625 14.910156 181.066406 13.347656 181.90625 C 13.742188 181.128906 16.070312 180.429688 16.902344 180.101562 C 16.546875 178.777344 14.394531 180.921875 13.367188 180.96875 C 14.941406 179.527344 17.386719 178.972656 18.714844 177.796875 C 18.132812 178.023438 16.40625 178.730469 14.671875 179.621094 C 16.335938 178.449219 18.132812 176.453125 20.230469 175.871094 C 19.230469 175.355469 17.363281 177.578125 15.699219 177.707031 C 17.054688 176.121094 20.171875 175.632812 22.144531 173.75 C 21.5625 173.445312 20.585938 174.980469 19.675781 174.773438 C 20.03125 175.253906 16.105469 176.6875 14.835938 176.992188 C 19.425781 174.371094 21.929688 173.300781 26.804688 170.21875 C 23.992188 171.648438 21.628906 172.121094 18.140625 173.695312 C 20.203125 173.523438 17.117188 174.4375 16.460938 174.3125 C 16.324219 174.882812 15.226562 175.472656 13.878906 176.082031 C 13.804688 175.902344 14.292969 175.6875 14.578125 175.492188 C 9.746094 177.257812 4.609375 180.3125 -1.914062 183.117188 C 6.089844 178.222656 14.96875 175.101562 20.039062 171.566406 C 10.941406 175.355469 5.960938 177.8125 -5.734375 183.414062 C -1.261719 180.316406 6 177.789062 10.59375 174.496094 C 11.269531 174.351562 10.621094 174.828125 11.355469 175.035156 C 12.84375 173.792969 19.890625 170.90625 22.8125 169.230469 C 22.632812 169.046875 22.011719 169.445312 21.535156 169.652344 C 21.96875 168.652344 23.074219 168.726562 24.601562 167.859375 C 23.261719 167.261719 20.585938 169.800781 17.699219 170.898438 C 17.878906 171.082031 18.5 170.683594 18.980469 170.476562 C 18.746094 171.523438 16.425781 171.167969 16.613281 171.679688 C 15.351562 172.066406 16.816406 170.824219 17.519531 170.527344 C 17.015625 170.378906 15.910156 170.625 17.140625 169.789062 C 16.800781 169.421875 15.71875 169.992188 15.191406 169.855469 C 14.929688 170.113281 14.648438 170.367188 14.105469 170.636719 C 12.917969 171.242188 11.738281 171.839844 10.550781 172.445312 C 10.628906 171.878906 12.722656 171.25 13.605469 170.65625 C 17.386719 167.609375 20.148438 166.496094 24.679688 163.152344 C 26.167969 163.390625 28.097656 160.964844 30.492188 159.941406 C 29.765625 160.261719 25.410156 161.085938 24.972656 162.765625 C 24.203125 162.984375 24.742188 162.460938 24.691406 162.21875 C 23.625 162.976562 23.449219 163.148438 22.632812 163.039062 C 22.046875 163.414062 23.140625 163.195312 22.429688 163.609375 C 21.535156 163.714844 20.738281 163.777344 18.109375 164.867188 C 18.117188 165.261719 18.59375 165.066406 19.085938 164.839844 C 11.625 168.339844 3.976562 172.234375 -4.878906 176.257812 C -5.320312 175.824219 -2.65625 175.308594 -3.089844 174.882812 C -4.636719 175.121094 -7.464844 177.003906 -9.507812 177.875 C -9.550781 178.730469 -7.816406 177.347656 -6.953125 177.050781 C -5.8125 176.832031 -10.0625 178.964844 -10.511719 178.832031 C -9.800781 177.308594 -5.320312 175.691406 -2.492188 174.117188 C -2.621094 174.375 -2.753906 174.621094 -2.601562 174.871094 C -2.203125 174.671875 -1.804688 174.472656 -1.410156 174.277344 C -1.617188 173.859375 -1.832031 174.03125 -1.082031 172.953125 C -0.148438 172.246094 0.683594 173.621094 0.589844 172.351562 C 2.316406 171.707031 1.21875 172.742188 2.933594 172.101562 C 3.585938 170.609375 14.847656 166.472656 18.828125 163.339844 C 18.644531 164.183594 20.179688 162.828125 19.988281 163.679688 C 22.1875 161.851562 22.894531 161.691406 25.410156 160.6875 C 26.210938 160.214844 24.585938 160.484375 25.429688 159.75 C 24.769531 159.214844 23.238281 161.484375 23.28125 160.386719 C 24.742188 159.605469 24.433594 159.367188 25.058594 159.019531 C 25.726562 158.878906 26.144531 159.054688 26.316406 159.539062 C 27.601562 158.992188 27.808594 158.480469 28 157.976562 C 26.519531 159.410156 27.792969 157.632812 25.9375 158.796875 C 25.9375 158.550781 26.652344 158.273438 26.539062 158.027344 C 25.402344 158.171875 23.335938 159.515625 22.027344 159.878906 C 25.421875 157.875 30.824219 154.933594 31 154.117188 C 30.957031 153.597656 33.21875 153.382812 31.578125 154.289062 C 32.238281 154.066406 34.511719 152.1875 36.507812 151.300781 C 35.878906 151.308594 35.144531 151.546875 35.738281 150.769531 C 33.90625 151.4375 34.445312 151.429688 33.078125 152.359375 C 33.207031 152.101562 33.34375 151.851562 33.191406 151.605469 C 32.003906 152.453125 32.597656 152.492188 31.222656 152.609375 C 40.355469 147.773438 53.234375 140.765625 62.347656 135.828125 C 62.636719 135.085938 63.945312 135.5625 64.882812 134.976562 C 66.410156 134.109375 64.109375 134.566406 65.769531 133.808594 C 69.113281 133.285156 81.09375 126.160156 87.003906 122.921875 C 81.703125 125.582031 77.265625 127.675781 72.332031 130.144531 C 80.007812 125.171875 88.164062 121.789062 93.945312 117.152344 C 93.582031 117.738281 93.277344 118.304688 92.378906 118.917969 C 102.761719 114.078125 109.316406 109.425781 117.261719 105.488281 C 116.996094 105.121094 116.066406 105.617188 115.121094 106.160156 C 113.871094 106.214844 118.824219 104.355469 118.824219 103.710938 C 118.808594 105.761719 130.980469 97.515625 134.597656 96.664062 C 132.519531 96.875 136.15625 95.789062 137.125 94.835938 C 136.34375 95.855469 137.851562 94.914062 138.871094 94.367188 C 135.449219 94.835938 146.699219 90.300781 151.207031 87.449219 C 141.621094 91.761719 136.894531 94.164062 128.363281 99.070312 C 128.09375 98.390625 130.484375 97.832031 131.960938 96.433594 C 131.441406 96.304688 130.421875 96.828125 129.722656 96.933594 C 131.527344 95.144531 133.074219 96.402344 135.566406 94.734375 C 135.183594 94.628906 134.550781 94.847656 133.808594 95.210938 C 133.964844 94.890625 134.601562 94.546875 134.296875 94.246094 C 141.496094 90.632812 148.84375 86.957031 156.300781 83.113281 C 163.730469 79.230469 171.277344 75.175781 178.8125 70.726562 C 179.132812 70.609375 179.457031 70.476562 179.792969 70.351562 C 180.527344 69.53125 182.933594 68.601562 184.226562 67.742188 C 183.726562 68.503906 181.582031 69.375 180.15625 70.199219 C 184.445312 68.398438 190.179688 65.046875 195.734375 62.09375 C 218.296875 50.054688 238.714844 36.902344 260.835938 23.769531 C 260.804688 24.085938 260.558594 24.421875 259.890625 24.785156 C 265.136719 22.535156 269.046875 18.773438 273.167969 15.980469 C 272.605469 17.101562 270.464844 18.335938 269.089844 19.515625 C 271.523438 18.386719 275.878906 15.4375 278.933594 13.601562 C 276.882812 15.34375 273.945312 17.164062 270.820312 18.992188 C 273.929688 19.003906 278.574219 15.855469 281.417969 15.261719 C 280.660156 15.417969 281.527344 16.300781 282.804688 15.898438 C 282.90625 15.863281 282.996094 15.839844 283.074219 15.804688 C 282.980469 15.882812 282.910156 15.972656 282.902344 16.074219 C 282.902344 15.878906 285.171875 15.980469 283.800781 16.746094 C 287.332031 15.078125 290.550781 13.839844 293.71875 12.695312 C 290.832031 14.539062 282.539062 16.972656 282.15625 20.082031 C 284.625 20.253906 287.238281 20.222656 291.832031 17.363281 C 292.226562 17.5625 292.457031 17.992188 293.117188 17.820312 C 293.238281 18.148438 291.40625 18.554688 290.4375 19.371094 C 290.117188 19.710938 290.285156 20.011719 289.496094 20.394531 C 290.0625 20.765625 291.171875 20.394531 292.03125 20.355469 C 291.355469 21.121094 288.070312 21.128906 288.792969 22.703125 C 289.136719 23.191406 290.582031 22.109375 291.6875 21.515625 C 291.863281 21.9375 290.949219 22.460938 289.976562 22.980469 C 290.765625 23.636719 291.964844 23.472656 290.90625 24.597656 C 293.503906 24.441406 293.820312 23.96875 296.339844 23.371094 C 295.980469 24.078125 293.703125 24.777344 292.785156 25.179688 C 292.496094 25.574219 292.214844 25.980469 291.945312 26.378906 C 292.992188 26.519531 294.902344 24.4375 295.492188 24.5625 C 295.609375 24.832031 295.726562 25.113281 296.191406 24.875 C 295.480469 25.757812 293.40625 25.820312 291.757812 26.953125 C 291.980469 27.152344 293.535156 26.363281 291.957031 27.3125 C 292.691406 27.359375 294.367188 26.046875 295.234375 25.894531 C 294.476562 26.554688 292.675781 27.835938 291.226562 28.6875 C 291.234375 29.324219 292.21875 28.574219 292.683594 28.5625 C 293.535156 28.109375 293.820312 27.714844 293.523438 27.359375 C 295.1875 27.070312 295.84375 27.554688 297.316406 26.839844 C 298.277344 26.933594 295.828125 28.171875 297.246094 27.597656 C 296.582031 29.046875 290.476562 31.355469 289.492188 32.789062 C 291.742188 32.042969 293.796875 29.792969 296.605469 29.15625 C 295.710938 30.464844 292.53125 31.503906 289.410156 33.550781 C 291.054688 33.183594 292.714844 32.957031 293.03125 33.609375 C 293.054688 33.917969 292.15625 34.308594 291.59375 34.675781 C 292.800781 35.347656 295.742188 33.550781 298.644531 31.800781 C 298.757812 32.070312 298.871094 32.339844 299.339844 32.113281 C 298.6875 32.738281 297.632812 33.207031 295.984375 34.292969 C 296.261719 34.65625 297.65625 33.429688 298.390625 33.140625 C 298.457031 33.636719 296.539062 34.3125 295.800781 34.875 L 295.492188 34.34375 C 294.46875 34.933594 293.449219 35.527344 292.414062 36.121094 C 292.769531 36.601562 294.210938 35.519531 295.308594 34.929688 C 295.546875 36.480469 298.039062 35.699219 299.601562 34.367188 C 300.105469 34.292969 300.101562 34.953125 301.066406 34.238281 C 300.679688 34.8125 300.066406 35.332031 301.664062 34.371094 C 301.753906 34.558594 301.269531 34.777344 300.996094 34.996094 C 301.390625 35.304688 303.042969 33.820312 303.503906 34.023438 C 300.871094 35.285156 297.960938 37.425781 295.636719 39.035156 C 296.773438 39.042969 298.359375 37.425781 299.484375 36.820312 C 299.636719 37.179688 298.289062 37.675781 298.644531 38.019531 C 300.179688 38.347656 303.949219 34.859375 305.394531 34.605469 C 309.851562 32.28125 304.371094 35.304688 303.710938 36.09375 Z M 36.636719 180.738281 C 36.164062 180.074219 32.46875 182.429688 31.796875 182.980469 C 31.34375 183.675781 35.296875 181.3125 36.636719 180.738281 Z M 29.585938 156.222656 L 26.824219 157.632812 L 27.015625 157.996094 C 27.851562 157.402344 30.257812 156.757812 29.585938 156.222656 Z M 33.460938 157.957031 C 32.421875 158.492188 31.089844 159.039062 31.292969 159.53125 C 32.039062 159.003906 34.171875 158.425781 33.460938 157.957031 Z M 33.894531 154.941406 C 32.980469 155.480469 29.316406 157.089844 30.445312 156.9375 C 32.128906 155.910156 33.453125 155.992188 33.894531 154.941406 Z M 39.453125 155.117188 C 38.171875 154.6875 35.511719 157.316406 34.523438 158.101562 C 36.910156 157.085938 36.914062 156.144531 39.453125 155.117188 Z M 159.496094 127.902344 C 158.71875 128.328125 157.9375 128.753906 157.144531 129.175781 C 157.207031 129.289062 157.273438 129.410156 157.335938 129.539062 C 158.097656 128.996094 160.226562 128.363281 159.496094 127.902344 Z M 166.820312 78.230469 C 168.699219 77.039062 170.039062 76.683594 171.1875 76.078125 C 178.054688 72.476562 166.300781 77.839844 166.820312 78.230469 Z M 182.117188 70.308594 C 182.585938 70.082031 183.195312 69.667969 183.375 69.851562 C 188.371094 66.914062 185.601562 67.738281 182.117188 70.308594 Z M 201.164062 60.015625 C 199.652344 60.601562 196.34375 62.558594 196.539062 62.597656 C 197.035156 62.6875 199.90625 61.054688 201.164062 60.015625 Z M 82.433594 122.765625 C 81.851562 123.015625 81.617188 122.8125 81.066406 123.007812 C 81.496094 123.421875 79.707031 123.945312 79.789062 124.382812 C 80.550781 123.855469 82.480469 123.269531 82.433594 122.765625 Z M 188.269531 64.078125 C 186.621094 65.125 184.601562 66.195312 183.449219 67.214844 C 185.410156 66.152344 187.425781 65.070312 188.269531 64.078125 Z M 283.089844 15.808594 C 284.589844 15.316406 283.535156 15.449219 283.089844 15.808594 Z M 297.433594 29.683594 C 296.878906 29.625 292.546875 32.125 293.597656 31.894531 C 294.957031 30.847656 297.15625 30.273438 297.433594 29.683594 Z M 301.054688 29.742188 C 299.730469 29.953125 298.230469 31.882812 296.726562 32.007812 C 296.941406 31.886719 297.074219 31.613281 296.625 31.828125 C 295.421875 33.605469 300.597656 30.371094 301.054688 29.742188 Z M 283.261719 60.269531 C 285 59.011719 288.953125 57.695312 288.664062 57.179688 C 286.832031 58.453125 284.417969 58.878906 283.261719 60.269531 Z M 263.101562 73.425781 C 267.863281 70.71875 273.578125 68.445312 277.339844 66.050781 C 273.273438 67.785156 267.433594 70.257812 263.101562 73.425781 Z M 20.847656 164.398438 C 19.585938 165.3125 17.933594 166.242188 17.28125 167.136719 C 19.230469 166.183594 22.6875 164.578125 21.625 164.9375 C 20.035156 165.804688 21.554688 164.640625 20.847656 164.398438 Z M 300.550781 51.058594 C 301.375 50.535156 301.863281 50.496094 302.019531 50.929688 C 302.984375 50.214844 304.390625 49.464844 304.894531 48.796875 C 303.429688 49.769531 301.476562 49.761719 300.550781 51.058594 Z M 17.945312 181.183594 C 16.0625 183.230469 14.777344 181.957031 13.214844 182.648438 C 13.800781 183.25 17.886719 182.789062 17.945312 181.183594 Z M 3.535156 179.195312 C 2.292969 179.792969 0.640625 180.210938 0.558594 181.148438 C 1.960938 180.488281 3.074219 179.835938 3.535156 179.195312 Z M 1.605469 174.378906 C 5.453125 172.878906 5.585938 171.605469 1.605469 174.378906 Z M 4.515625 175.234375 C 9.320312 172.910156 9.667969 172.730469 13.011719 170.457031 C 8.914062 172.496094 6.679688 173.179688 4.515625 175.234375 Z M 13.449219 168.382812 C 12.121094 167.941406 9.410156 170.722656 8.316406 170.988281 C 10.019531 170.75 11.265625 169.222656 13.449219 168.382812 Z M 132.226562 148.632812 C 133.582031 147.996094 136.433594 146.992188 137.332031 145.917969 C 135.816406 146.335938 133.082031 147.375 132.226562 148.632812 Z M 5.230469 189.460938 C 5.59375 189.46875 9.417969 187.054688 9.011719 187.109375 C 7.71875 187.945312 7.234375 187.746094 6.449219 187.9375 C 6.332031 188.4375 5.328125 188.664062 6.328125 188.699219 C 5.878906 188.9375 5.191406 189.214844 5.230469 189.460938 Z M 21.5625 185.378906 C 16.542969 188.230469 13.761719 189.539062 11.242188 191.53125 C 15.476562 189.320312 19.3125 187.035156 21.5625 185.378906 Z M 2.324219 184.675781 C 3.78125 184.042969 6.832031 182.976562 7.863281 181.890625 C 5.859375 183.148438 3.167969 183.457031 2.324219 184.675781 Z M 5.847656 195.632812 C 7.363281 194.550781 9.175781 194.621094 9.808594 193.648438 C 8.929688 193.980469 5.003906 195.523438 5.847656 195.632812 Z M 11.570312 190.210938 C 13.910156 188.914062 15.070312 188.460938 15.832031 187.824219 C 15.0625 188.15625 15.902344 187.398438 15.25 187.652344 C 15.582031 187.863281 13.242188 189.050781 13.269531 188.652344 C 13.492188 188.542969 13.636719 188.273438 13.175781 188.46875 C 13.304688 189.03125 11.675781 189.644531 11.570312 190.210938 Z M 14.011719 178.308594 C 13.679688 178.097656 10.878906 179.519531 10.847656 179.90625 C 11.828125 179.285156 14.246094 179.300781 14.011719 178.308594 Z M 15.960938 178.242188 C 16.015625 177.964844 16.207031 177.558594 15.867188 178.058594 C 14.679688 178.882812 12.789062 179.386719 12.613281 179.472656 C 5.402344 183.109375 11.351562 180.960938 15.960938 178.242188 Z M 249.125 80.359375 C 248.554688 80.960938 246.886719 81.660156 246.609375 82.25 C 247.433594 82.171875 249.429688 80.929688 249.125 80.359375 Z M 232.171875 91.0625 C 233.039062 90.4375 235.117188 89.71875 235.183594 89.148438 C 233.976562 89.542969 232.691406 90.261719 232.171875 91.0625 Z M 83.300781 171.347656 C 84.113281 170.582031 87.414062 169.164062 86.359375 169.519531 C 85.335938 169.664062 82.746094 171.050781 83.300781 171.347656 Z M 13.160156 193.351562 C 13.992188 192.625 16.878906 191.441406 15.839844 191.761719 C 15.015625 191.730469 12.796875 192.578125 13.160156 193.351562 Z M 20.605469 188.410156 C 19.199219 189.273438 16.539062 190.171875 15.941406 191.011719 C 17.355469 190.144531 20.019531 189.246094 20.605469 188.410156 Z M 20.605469 188.410156 " clip-rule="nonzero"/></clipPath><linearGradient x1="7.702243" gradientTransform="matrix(0.944557, -0.529484, 0.527467, 0.940958, -22.16138, 174.568938)" y1="24.660999" x2="341.062482" gradientUnits="userSpaceOnUse" y2="24.660999" id="id9"><stop stop-opacity="1" stop-color="rgb(0%, 21.998596%, 100%)" offset="0"/><stop stop-opacity="1" stop-color="rgb(0%, 21.998596%, 100%)" offset="0.25"/><stop stop-opacity="1" stop-color="rgb(0%, 21.998596%, 100%)" offset="0.28125"/><stop stop-opacity="1" stop-color="rgb(0.00762939%, 22.058105%, 100%)" offset="0.296875"/><stop stop-opacity="1" stop-color="rgb(0.062561%, 22.460938%, 100%)" offset="0.300781"/><stop stop-opacity="1" stop-color="rgb(0.111389%, 22.805786%, 100%)" offset="0.304688"/><stop stop-opacity="1" stop-color="rgb(0.158691%, 23.149109%, 100%)" offset="0.308594"/><stop stop-opacity="1" stop-color="rgb(0.20752%, 23.492432%, 100%)" offset="0.3125"/><stop stop-opacity="1" stop-color="rgb(0.254822%, 23.835754%, 100%)" offset="0.316406"/><stop stop-opacity="1" stop-color="rgb(0.30365%, 24.180603%, 100%)" offset="0.320312"/><stop stop-opacity="1" stop-color="rgb(0.350952%, 24.523926%, 100%)" offset="0.324219"/><stop stop-opacity="1" stop-color="rgb(0.39978%, 24.868774%, 100%)" offset="0.328125"/><stop stop-opacity="1" stop-color="rgb(0.447083%, 25.212097%, 100%)" offset="0.332031"/><stop stop-opacity="1" stop-color="rgb(0.495911%, 25.556946%, 100%)" offset="0.335937"/><stop stop-opacity="1" stop-color="rgb(0.543213%, 25.900269%, 100%)" offset="0.339844"/><stop stop-opacity="1" stop-color="rgb(0.590515%, 26.245117%, 100%)" offset="0.34375"/><stop stop-opacity="1" stop-color="rgb(0.637817%, 26.58844%, 100%)" offset="0.347656"/><stop stop-opacity="1" stop-color="rgb(0.686646%, 26.931763%, 100%)" offset="0.351562"/><stop stop-opacity="1" stop-color="rgb(0.733948%, 27.275085%, 100%)" offset="0.355469"/><stop stop-opacity="1" stop-color="rgb(0.782776%, 27.619934%, 100%)" offset="0.359375"/><stop stop-opacity="1" stop-color="rgb(0.830078%, 27.963257%, 100%)" offset="0.363281"/><stop stop-opacity="1" stop-color="rgb(0.878906%, 28.308105%, 100%)" offset="0.367187"/><stop stop-opacity="1" stop-color="rgb(0.926208%, 28.651428%, 100%)" offset="0.371094"/><stop stop-opacity="1" stop-color="rgb(0.975037%, 28.996277%, 100%)" offset="0.375"/><stop stop-opacity="1" stop-color="rgb(1.022339%, 29.3396%, 100%)" offset="0.378906"/><stop stop-opacity="1" stop-color="rgb(1.071167%, 29.682922%, 100%)" offset="0.382812"/><stop stop-opacity="1" stop-color="rgb(1.118469%, 30.026245%, 100%)" offset="0.386719"/><stop stop-opacity="1" stop-color="rgb(1.167297%, 30.371094%, 100%)" offset="0.390625"/><stop stop-opacity="1" stop-color="rgb(1.2146%, 30.714417%, 100%)" offset="0.394531"/><stop stop-opacity="1" stop-color="rgb(1.263428%, 31.059265%, 100%)" offset="0.398438"/><stop stop-opacity="1" stop-color="rgb(1.31073%, 31.402588%, 100%)" offset="0.402344"/><stop stop-opacity="1" stop-color="rgb(1.358032%, 31.747437%, 100%)" offset="0.40625"/><stop stop-opacity="1" stop-color="rgb(1.405334%, 32.090759%, 100%)" offset="0.410156"/><stop stop-opacity="1" stop-color="rgb(1.454163%, 32.435608%, 100%)" offset="0.414062"/><stop stop-opacity="1" stop-color="rgb(1.501465%, 32.778931%, 100%)" offset="0.417969"/><stop stop-opacity="1" stop-color="rgb(1.550293%, 33.122253%, 100%)" offset="0.421875"/><stop stop-opacity="1" stop-color="rgb(1.597595%, 33.465576%, 100%)" offset="0.425781"/><stop stop-opacity="1" stop-color="rgb(1.646423%, 33.810425%, 100%)" offset="0.429687"/><stop stop-opacity="1" stop-color="rgb(1.693726%, 34.153748%, 100%)" offset="0.433594"/><stop stop-opacity="1" stop-color="rgb(1.742554%, 34.498596%, 100%)" offset="0.4375"/><stop stop-opacity="1" stop-color="rgb(1.789856%, 34.841919%, 100%)" offset="0.441406"/><stop stop-opacity="1" stop-color="rgb(1.838684%, 35.186768%, 100%)" offset="0.445312"/><stop stop-opacity="1" stop-color="rgb(1.885986%, 35.53009%, 100%)" offset="0.449219"/><stop stop-opacity="1" stop-color="rgb(1.934814%, 35.873413%, 100%)" offset="0.453125"/><stop stop-opacity="1" stop-color="rgb(1.982117%, 36.216736%, 100%)" offset="0.457031"/><stop stop-opacity="1" stop-color="rgb(2.029419%, 36.561584%, 100%)" offset="0.460937"/><stop stop-opacity="1" stop-color="rgb(2.076721%, 36.904907%, 100%)" offset="0.464844"/><stop stop-opacity="1" stop-color="rgb(2.125549%, 37.249756%, 100%)" offset="0.46875"/><stop stop-opacity="1" stop-color="rgb(2.172852%, 37.593079%, 100%)" offset="0.472656"/><stop stop-opacity="1" stop-color="rgb(2.22168%, 37.937927%, 100%)" offset="0.476562"/><stop stop-opacity="1" stop-color="rgb(2.268982%, 38.28125%, 100%)" offset="0.480469"/><stop stop-opacity="1" stop-color="rgb(2.31781%, 38.626099%, 100%)" offset="0.484375"/><stop stop-opacity="1" stop-color="rgb(2.365112%, 38.969421%, 100%)" offset="0.488281"/><stop stop-opacity="1" stop-color="rgb(2.41394%, 39.312744%, 100%)" offset="0.492187"/><stop stop-opacity="1" stop-color="rgb(2.461243%, 39.656067%, 100%)" offset="0.496094"/><stop stop-opacity="1" stop-color="rgb(2.510071%, 40.000916%, 100%)" offset="0.5"/><stop stop-opacity="1" stop-color="rgb(2.557373%, 40.344238%, 100%)" offset="0.503906"/><stop stop-opacity="1" stop-color="rgb(2.606201%, 40.689087%, 100%)" offset="0.507812"/><stop stop-opacity="1" stop-color="rgb(2.653503%, 41.03241%, 100%)" offset="0.511719"/><stop stop-opacity="1" stop-color="rgb(2.700806%, 41.377258%, 100%)" offset="0.515625"/><stop stop-opacity="1" stop-color="rgb(2.748108%, 41.720581%, 100%)" offset="0.519531"/><stop stop-opacity="1" stop-color="rgb(2.796936%, 42.063904%, 100%)" offset="0.523437"/><stop stop-opacity="1" stop-color="rgb(2.844238%, 42.407227%, 100%)" offset="0.527344"/><stop stop-opacity="1" stop-color="rgb(2.893066%, 42.752075%, 100%)" offset="0.53125"/><stop stop-opacity="1" stop-color="rgb(2.940369%, 43.095398%, 100%)" offset="0.535156"/><stop stop-opacity="1" stop-color="rgb(2.989197%, 43.440247%, 100%)" offset="0.539062"/><stop stop-opacity="1" stop-color="rgb(3.036499%, 43.783569%, 100%)" offset="0.542969"/><stop stop-opacity="1" stop-color="rgb(3.085327%, 44.128418%, 100%)" offset="0.546875"/><stop stop-opacity="1" stop-color="rgb(3.132629%, 44.471741%, 100%)" offset="0.550781"/><stop stop-opacity="1" stop-color="rgb(3.181458%, 44.816589%, 100%)" offset="0.554688"/><stop stop-opacity="1" stop-color="rgb(3.22876%, 45.159912%, 100%)" offset="0.558594"/><stop stop-opacity="1" stop-color="rgb(3.277588%, 45.503235%, 100%)" offset="0.5625"/><stop stop-opacity="1" stop-color="rgb(3.32489%, 45.846558%, 100%)" offset="0.566406"/><stop stop-opacity="1" stop-color="rgb(3.373718%, 46.191406%, 100%)" offset="0.570312"/><stop stop-opacity="1" stop-color="rgb(3.421021%, 46.534729%, 100%)" offset="0.574219"/><stop stop-opacity="1" stop-color="rgb(3.468323%, 46.879578%, 100%)" offset="0.578125"/><stop stop-opacity="1" stop-color="rgb(3.515625%, 47.2229%, 100%)" offset="0.582031"/><stop stop-opacity="1" stop-color="rgb(3.564453%, 47.567749%, 100%)" offset="0.585937"/><stop stop-opacity="1" stop-color="rgb(3.611755%, 47.911072%, 100%)" offset="0.589844"/><stop stop-opacity="1" stop-color="rgb(3.660583%, 48.254395%, 100%)" offset="0.59375"/><stop stop-opacity="1" stop-color="rgb(3.707886%, 48.597717%, 100%)" offset="0.597656"/><stop stop-opacity="1" stop-color="rgb(3.756714%, 48.942566%, 100%)" offset="0.601562"/><stop stop-opacity="1" stop-color="rgb(3.804016%, 49.285889%, 100%)" offset="0.605469"/><stop stop-opacity="1" stop-color="rgb(3.852844%, 49.630737%, 100%)" offset="0.609375"/><stop stop-opacity="1" stop-color="rgb(3.900146%, 49.97406%, 100%)" offset="0.613281"/><stop stop-opacity="1" stop-color="rgb(3.948975%, 50.318909%, 100%)" offset="0.617187"/><stop stop-opacity="1" stop-color="rgb(3.996277%, 50.662231%, 100%)" offset="0.621094"/><stop stop-opacity="1" stop-color="rgb(4.045105%, 51.00708%, 100%)" offset="0.625"/><stop stop-opacity="1" stop-color="rgb(4.092407%, 51.350403%, 100%)" offset="0.628906"/><stop stop-opacity="1" stop-color="rgb(4.139709%, 51.693726%, 100%)" offset="0.632812"/><stop stop-opacity="1" stop-color="rgb(4.187012%, 52.037048%, 100%)" offset="0.636719"/><stop stop-opacity="1" stop-color="rgb(4.23584%, 52.381897%, 100%)" offset="0.640625"/><stop stop-opacity="1" stop-color="rgb(4.283142%, 52.72522%, 100%)" offset="0.644531"/><stop stop-opacity="1" stop-color="rgb(4.33197%, 53.070068%, 100%)" offset="0.648437"/><stop stop-opacity="1" stop-color="rgb(4.379272%, 53.413391%, 100%)" offset="0.652344"/><stop stop-opacity="1" stop-color="rgb(4.428101%, 53.75824%, 100%)" offset="0.65625"/><stop stop-opacity="1" stop-color="rgb(4.475403%, 54.101562%, 100%)" offset="0.660156"/><stop stop-opacity="1" stop-color="rgb(4.524231%, 54.444885%, 100%)" offset="0.664062"/><stop stop-opacity="1" stop-color="rgb(4.571533%, 54.788208%, 100%)" offset="0.667969"/><stop stop-opacity="1" stop-color="rgb(4.620361%, 55.133057%, 100%)" offset="0.671875"/><stop stop-opacity="1" stop-color="rgb(4.667664%, 55.476379%, 100%)" offset="0.675781"/><stop stop-opacity="1" stop-color="rgb(4.716492%, 55.821228%, 100%)" offset="0.679687"/><stop stop-opacity="1" stop-color="rgb(4.763794%, 56.164551%, 100%)" offset="0.683594"/><stop stop-opacity="1" stop-color="rgb(4.811096%, 56.509399%, 100%)" offset="0.6875"/><stop stop-opacity="1" stop-color="rgb(4.858398%, 56.852722%, 100%)" offset="0.691406"/><stop stop-opacity="1" stop-color="rgb(4.907227%, 57.197571%, 100%)" offset="0.695312"/><stop stop-opacity="1" stop-color="rgb(4.954529%, 57.540894%, 100%)" offset="0.699219"/><stop stop-opacity="1" stop-color="rgb(5.003357%, 57.884216%, 100%)" offset="0.703125"/><stop stop-opacity="1" stop-color="rgb(5.050659%, 58.227539%, 100%)" offset="0.707031"/><stop stop-opacity="1" stop-color="rgb(5.099487%, 58.572388%, 100%)" offset="0.710937"/><stop stop-opacity="1" stop-color="rgb(5.14679%, 58.91571%, 100%)" offset="0.714844"/><stop stop-opacity="1" stop-color="rgb(5.195618%, 59.260559%, 100%)" offset="0.71875"/><stop stop-opacity="1" stop-color="rgb(5.24292%, 59.603882%, 100%)" offset="0.722656"/><stop stop-opacity="1" stop-color="rgb(5.291748%, 59.94873%, 100%)" offset="0.726562"/><stop stop-opacity="1" stop-color="rgb(5.33905%, 60.292053%, 100%)" offset="0.730469"/><stop stop-opacity="1" stop-color="rgb(5.387878%, 60.636902%, 100%)" offset="0.734375"/><stop stop-opacity="1" stop-color="rgb(5.435181%, 60.980225%, 100%)" offset="0.738281"/><stop stop-opacity="1" stop-color="rgb(5.484009%, 61.323547%, 100%)" offset="0.742187"/><stop stop-opacity="1" stop-color="rgb(5.531311%, 61.66687%, 100%)" offset="0.746094"/><stop stop-opacity="1" stop-color="rgb(5.578613%, 62.011719%, 100%)" offset="0.75"/><stop stop-opacity="1" stop-color="rgb(5.625916%, 62.355042%, 100%)" offset="0.753906"/><stop stop-opacity="1" stop-color="rgb(5.674744%, 62.69989%, 100%)" offset="0.757812"/><stop stop-opacity="1" stop-color="rgb(5.722046%, 63.043213%, 100%)" offset="0.761719"/><stop stop-opacity="1" stop-color="rgb(5.770874%, 63.388062%, 100%)" offset="0.765625"/><stop stop-opacity="1" stop-color="rgb(5.818176%, 63.731384%, 100%)" offset="0.769531"/><stop stop-opacity="1" stop-color="rgb(5.867004%, 64.074707%, 100%)" offset="0.773437"/><stop stop-opacity="1" stop-color="rgb(5.914307%, 64.41803%, 100%)" offset="0.777344"/><stop stop-opacity="1" stop-color="rgb(5.963135%, 64.762878%, 100%)" offset="0.78125"/><stop stop-opacity="1" stop-color="rgb(6.010437%, 65.106201%, 100%)" offset="0.785156"/><stop stop-opacity="1" stop-color="rgb(6.059265%, 65.45105%, 100%)" offset="0.789062"/><stop stop-opacity="1" stop-color="rgb(6.106567%, 65.794373%, 100%)" offset="0.792969"/><stop stop-opacity="1" stop-color="rgb(6.155396%, 66.139221%, 100%)" offset="0.796875"/><stop stop-opacity="1" stop-color="rgb(6.202698%, 66.482544%, 100%)" offset="0.800781"/><stop stop-opacity="1" stop-color="rgb(6.25%, 66.827393%, 100%)" offset="0.804688"/><stop stop-opacity="1" stop-color="rgb(6.297302%, 67.170715%, 100%)" offset="0.808594"/><stop stop-opacity="1" stop-color="rgb(6.34613%, 67.514038%, 100%)" offset="0.8125"/><stop stop-opacity="1" stop-color="rgb(6.393433%, 67.857361%, 100%)" offset="0.816406"/><stop stop-opacity="1" stop-color="rgb(6.442261%, 68.202209%, 100%)" offset="0.820312"/><stop stop-opacity="1" stop-color="rgb(6.489563%, 68.545532%, 100%)" offset="0.824219"/><stop stop-opacity="1" stop-color="rgb(6.538391%, 68.890381%, 100%)" offset="0.828125"/><stop stop-opacity="1" stop-color="rgb(6.585693%, 69.233704%, 100%)" offset="0.832031"/><stop stop-opacity="1" stop-color="rgb(6.634521%, 69.578552%, 100%)" offset="0.835937"/><stop stop-opacity="1" stop-color="rgb(6.681824%, 69.921875%, 100%)" offset="0.839844"/><stop stop-opacity="1" stop-color="rgb(6.730652%, 70.265198%, 100%)" offset="0.84375"/><stop stop-opacity="1" stop-color="rgb(6.777954%, 70.608521%, 100%)" offset="0.847656"/><stop stop-opacity="1" stop-color="rgb(6.826782%, 70.953369%, 100%)" offset="0.851562"/><stop stop-opacity="1" stop-color="rgb(6.874084%, 71.296692%, 100%)" offset="0.855469"/><stop stop-opacity="1" stop-color="rgb(6.921387%, 71.641541%, 100%)" offset="0.859375"/><stop stop-opacity="1" stop-color="rgb(6.968689%, 71.984863%, 100%)" offset="0.863281"/><stop stop-opacity="1" stop-color="rgb(7.017517%, 72.329712%, 100%)" offset="0.867187"/><stop stop-opacity="1" stop-color="rgb(7.064819%, 72.673035%, 100%)" offset="0.871094"/><stop stop-opacity="1" stop-color="rgb(7.113647%, 73.017883%, 100%)" offset="0.875"/><stop stop-opacity="1" stop-color="rgb(7.16095%, 73.361206%, 100%)" offset="0.878906"/><stop stop-opacity="1" stop-color="rgb(7.209778%, 73.704529%, 100%)" offset="0.882812"/><stop stop-opacity="1" stop-color="rgb(7.25708%, 74.047852%, 100%)" offset="0.886719"/><stop stop-opacity="1" stop-color="rgb(7.305908%, 74.3927%, 100%)" offset="0.890625"/><stop stop-opacity="1" stop-color="rgb(7.35321%, 74.736023%, 100%)" offset="0.894531"/><stop stop-opacity="1" stop-color="rgb(7.402039%, 75.080872%, 100%)" offset="0.898437"/><stop stop-opacity="1" stop-color="rgb(7.449341%, 75.424194%, 100%)" offset="0.902344"/><stop stop-opacity="1" stop-color="rgb(7.498169%, 75.769043%, 100%)" offset="0.90625"/><stop stop-opacity="1" stop-color="rgb(7.545471%, 76.112366%, 100%)" offset="0.910156"/><stop stop-opacity="1" stop-color="rgb(7.594299%, 76.455688%, 100%)" offset="0.914062"/><stop stop-opacity="1" stop-color="rgb(7.641602%, 76.799011%, 100%)" offset="0.917969"/><stop stop-opacity="1" stop-color="rgb(7.688904%, 77.14386%, 100%)" offset="0.921875"/><stop stop-opacity="1" stop-color="rgb(7.736206%, 77.487183%, 100%)" offset="0.925781"/><stop stop-opacity="1" stop-color="rgb(7.785034%, 77.832031%, 100%)" offset="0.929687"/><stop stop-opacity="1" stop-color="rgb(7.832336%, 78.175354%, 100%)" offset="0.933594"/><stop stop-opacity="1" stop-color="rgb(7.881165%, 78.520203%, 100%)" offset="0.9375"/><stop stop-opacity="1" stop-color="rgb(7.928467%, 78.863525%, 100%)" offset="0.941406"/><stop stop-opacity="1" stop-color="rgb(7.977295%, 79.208374%, 100%)" offset="0.945312"/><stop stop-opacity="1" stop-color="rgb(8.024597%, 79.551697%, 100%)" offset="0.949219"/><stop stop-opacity="1" stop-color="rgb(8.073425%, 79.89502%, 100%)" offset="0.953125"/><stop stop-opacity="1" stop-color="rgb(8.120728%, 80.238342%, 100%)" offset="0.957031"/><stop stop-opacity="1" stop-color="rgb(8.169556%, 80.583191%, 100%)" offset="0.960938"/><stop stop-opacity="1" stop-color="rgb(8.183289%, 80.691528%, 100%)" offset="0.96875"/><stop stop-opacity="1" stop-color="rgb(8.198547%, 80.799866%, 100%)" offset="1"/></linearGradient><clipPath id="id10"><rect x="0" width="310" y="0" height="222"/></clipPath><clipPath id="id11"><path d="M 0.03125 124 L 309 124 L 309 337 L 0.03125 337 Z M 0.03125 124 " clip-rule="nonzero"/></clipPath><mask id="id12"><g filter="url(#id1)"><rect x="-31.05" width="372.6" fill="#000000" y="-55.2" height="662.400001" fill-opacity="0.2471"/></g></mask><clipPath id="id13"><path d="M 0.03125 11 L 301 11 L 301 189 L 0.03125 189 Z M 0.03125 11 " clip-rule="nonzero"/></clipPath><clipPath id="id14"><path d="M -15.050781 167.050781 L 285.175781 -1.246094 L 310.476562 43.886719 L 10.25 212.183594 Z M -15.050781 167.050781 " clip-rule="nonzero"/></clipPath><clipPath id="id15"><path d="M -15.050781 167.050781 L 285.175781 -1.246094 L 310.476562 43.886719 L 10.25 212.183594 Z M -15.050781 167.050781 " clip-rule="nonzero"/></clipPath><clipPath id="id16"><path d="M 5.242188 161.890625 C 3.742188 162.957031 0.167969 164.453125 -1.574219 165.308594 C -1.070312 164.339844 3.324219 162.800781 5.242188 161.890625 Z M -7.65625 173.03125 C -5.796875 171.636719 -4.464844 171.765625 -3.292969 170.394531 C -4.574219 171.269531 -7.886719 172.191406 -7.65625 173.03125 Z M -0.503906 159.898438 C -2.441406 160.902344 -5.480469 161.777344 -6.929688 163.121094 C -4.816406 162.160156 -1.40625 161.007812 -0.503906 159.898438 Z M 7.660156 177.09375 C 6.738281 178.105469 4.777344 178.210938 4.800781 178.976562 C 5.6875 178.351562 8.246094 177.675781 7.660156 177.09375 Z M -0.824219 168.707031 C 3.15625 166.558594 8.386719 164.382812 11.574219 162.242188 L 5.148438 165.488281 C 3.308594 166.554688 0.242188 167.65625 -0.824219 168.707031 Z M 17.429688 159.71875 C 16.929688 159.972656 16.925781 159.585938 16.492188 159.746094 C 17.152344 160.582031 14.851562 159.835938 14.691406 160.882812 C 15.648438 160.277344 16.992188 160.636719 17.429688 159.71875 Z M -0.585938 177.683594 C -0.671875 177.507812 -0.382812 177.324219 -0.382812 177.132812 C -1.167969 177.300781 -4.792969 179.34375 -3.992188 179.394531 C -3.511719 179.148438 -3.578125 178.902344 -2.941406 178.636719 C -2.105469 179.023438 5.085938 174.835938 -0.585938 177.683594 Z M 28.632812 146.242188 C 28.789062 146.4375 28.964844 146.601562 29.566406 146.207031 L 29.292969 145.683594 C 28.34375 146.132812 27.445312 146.589844 27.589844 146.992188 C 28.113281 146.738281 28.378906 146.492188 28.632812 146.242188 Z M -5.085938 184.828125 C -3.984375 184.140625 -1.703125 183.417969 -1.375 182.75 C -2.863281 183.214844 -4.054688 183.800781 -5.085938 184.828125 Z M 14.105469 185.175781 C 12.070312 186.316406 6.976562 188.496094 6.972656 188.984375 C 9.503906 187.304688 13.175781 186.679688 14.105469 185.175781 Z M 3.1875 169.136719 L 5.839844 167.800781 C 5.554688 167.015625 3.414062 168.796875 3.1875 169.136719 Z M -7.429688 167.808594 C -8.648438 168.5625 -11.0625 169.347656 -11.507812 170.085938 C -10.28125 169.324219 -7.875 168.542969 -7.429688 167.808594 Z M -0.5625 173.015625 C -1.875 173.941406 -4.457031 175.363281 -4.171875 175.273438 C -0.550781 174.074219 4.808594 171.628906 7.285156 169.742188 C 6.679688 170.019531 5.980469 170.425781 5.96875 169.957031 C 2.945312 171.59375 1.835938 172.667969 -1.136719 173.75 C -0.683594 173.496094 -0.269531 173.242188 -0.5625 173.015625 Z M 33.234375 149.671875 C 31.601562 150.777344 29.609375 150.851562 28.710938 151.984375 C 30.1875 151.582031 34.34375 149.238281 33.234375 149.671875 Z M 46.570312 139.496094 C 47.617188 138.242188 50.648438 137.8125 50.722656 136.457031 C 45.625 139.3125 37.457031 142.292969 32.84375 145.199219 C 37.578125 143.527344 42.933594 140.773438 47.234375 138.933594 C 46.96875 139.117188 46.5 139.320312 46.570312 139.496094 Z M 223.566406 41.464844 C 220.308594 43.441406 215.816406 45.507812 213.332031 47.4375 C 217.824219 45.203125 220.839844 43.535156 223.566406 41.464844 Z M 188.640625 60.496094 C 192.550781 58.089844 196.425781 55.644531 199.636719 53.265625 C 195.625 55.703125 191.605469 58.144531 188.640625 60.496094 Z M 231.808594 34.542969 C 236.253906 33.09375 240.136719 29.792969 242.988281 30.253906 C 251.171875 25.050781 256.402344 21.90625 260.621094 16.765625 C 255.804688 20.734375 247.023438 26.691406 240.609375 28.640625 C 240.386719 29.582031 241.914062 28.039062 242 28.535156 C 238.242188 30.867188 234.777344 32.582031 231.808594 34.542969 Z M 285.753906 11.199219 C 284.871094 11.199219 281.949219 12.480469 281.15625 13.398438 C 282.558594 13.050781 285.265625 11.984375 285.753906 11.199219 Z M 261.269531 19.578125 C 261.394531 18.847656 261.464844 18.121094 261.953125 17.359375 C 260.757812 17.878906 260.71875 18.300781 259.84375 18.792969 C 260.109375 19.355469 260.554688 19.660156 261.269531 19.578125 Z M 197.167969 56.675781 C 195.976562 57.285156 193.851562 57.609375 193 58.765625 C 193.578125 59.292969 196.839844 57.59375 197.167969 56.675781 Z M 52.121094 136.40625 C 56.199219 133.8125 63.386719 130.851562 66.6875 128.632812 C 62.761719 130.429688 54.769531 134.023438 51.1875 136.445312 C 52.257812 135.820312 52.503906 135.8125 52.121094 136.40625 Z M 56.570312 132.101562 C 55.128906 132.183594 52.515625 133.910156 50.933594 135.011719 C 52.933594 133.699219 55.589844 133.066406 56.570312 132.101562 Z M 72.785156 125.675781 C 72.554688 125.453125 72.15625 125.972656 72.128906 126.246094 C 73.628906 125.464844 75.132812 124.679688 76.632812 123.898438 C 77.269531 123.128906 73.835938 125.21875 72.785156 125.675781 Z M 297.402344 34.699219 C 296.210938 35.097656 294.664062 35.988281 293.71875 36.824219 C 293.980469 37.082031 294.578125 36.851562 295.394531 36.3125 C 295.4375 37.023438 292.5625 37.710938 292.914062 37.976562 C 292.554688 37.976562 292.503906 37.292969 290.769531 38.527344 C 291.980469 38.710938 290.96875 41.105469 288.742188 42.671875 C 289.199219 42.75 290.066406 42.238281 290.789062 41.953125 C 291.308594 42.265625 290.21875 42.722656 289.980469 43.105469 C 292.015625 43.1875 295.355469 39.535156 297.019531 39.953125 C 296.785156 40.914062 290.511719 43.859375 291.34375 44.601562 C 289.386719 46.246094 285.285156 47.457031 283.046875 49.835938 C 288.136719 47.304688 293.859375 43.824219 298.039062 42.558594 C 297.941406 43.027344 297.378906 42.976562 296.933594 43.199219 C 296.519531 43.480469 296.804688 43.6875 296.867188 43.925781 C 293.984375 45.492188 292.742188 46.332031 290.765625 46.988281 C 289.183594 48.8125 285.796875 50.792969 282.296875 52.78125 C 283.199219 51.71875 287.34375 49.21875 289.761719 47.800781 C 284.367188 50.234375 281.234375 53.070312 275.714844 55.851562 C 275.816406 56.011719 276.238281 55.726562 276.550781 55.597656 C 276.148438 56.179688 275.039062 56.8125 275.558594 57.316406 C 264.484375 65.847656 244.875 75.953125 232.828125 83.09375 C 232.742188 82.917969 233.207031 82.703125 233.476562 82.507812 C 230.753906 83.84375 227.164062 86.542969 223.429688 88.113281 C 223.347656 87.910156 223.523438 87.691406 223.839844 87.46875 C 218.242188 90.785156 213.578125 94.160156 206.941406 97.046875 C 201.503906 99.421875 208.386719 96.082031 208.335938 96.054688 C 207.257812 95.472656 201.816406 100.46875 200.59375 100.558594 C 200.542969 100.253906 201.675781 99.878906 201.53125 99.597656 C 200.398438 99.765625 199.828125 100.761719 198.363281 101.796875 C 198.347656 101.558594 199.039062 101.265625 198.914062 101.039062 C 191.9375 104.746094 184.933594 108.78125 177.859375 112.925781 C 170.777344 117.058594 163.59375 121.238281 156.238281 125.199219 C 155.820312 126.023438 158.070312 124.644531 156.894531 125.519531 C 157.671875 125.507812 158.007812 124.75 158.957031 124.847656 C 158.988281 125.269531 157.25 125.792969 158.203125 126.160156 C 156.980469 126.394531 156.578125 125.527344 155.484375 125.597656 C 147.5 128.664062 142.363281 133.722656 134.054688 137.976562 C 134.507812 138.1875 135.316406 137.910156 136.214844 137.5 C 136.445312 138.296875 130.570312 138.507812 130.570312 140.5 C 125.675781 142.082031 122.453125 144.148438 117.289062 147.328125 C 117.171875 146.988281 116.625 147.203125 116.546875 146.832031 C 115.449219 147.542969 115.890625 148.183594 113.808594 148.945312 C 113.691406 148.585938 115.027344 148.167969 115.128906 147.804688 C 111.789062 148.871094 108.722656 151.480469 105.410156 153.144531 C 105.984375 152.386719 105.074219 152.882812 104.371094 153.015625 C 104.304688 153.386719 104.285156 153.410156 103.515625 154.136719 C 102.820312 154.359375 103.070312 153.851562 103.707031 153.589844 C 98.488281 155.972656 90.113281 160.785156 82.71875 165 C 82.972656 165.367188 84.367188 164.242188 85.082031 163.996094 C 84.953125 164.269531 84.167969 164.804688 84.890625 164.542969 C 72.765625 170.839844 58.152344 178.105469 47.761719 182.785156 C 48.414062 181.679688 50.980469 180.503906 53.183594 179.339844 C 54.136719 178.792969 52.507812 179.304688 52.820312 178.632812 C 54.285156 178.082031 54.679688 177.28125 55.472656 177.273438 C 55.984375 177.617188 53.621094 178.066406 54.132812 178.40625 C 55.003906 178.472656 55.777344 177.03125 56.988281 176.496094 C 53.589844 177.289062 48.8125 180.144531 45.820312 180.871094 C 45.390625 181.125 45.660156 181.351562 45.714844 181.59375 C 42.738281 182.246094 37.53125 185.945312 33.554688 187.785156 C 39.257812 183.613281 48.742188 179.460938 54.375 176.054688 C 51.375 176.394531 48.9375 178.601562 46.988281 179.390625 C 46.492188 179.585938 45.785156 179.386719 45.578125 179.445312 C 45.152344 179.550781 45.445312 179.96875 45.386719 179.992188 C 44.746094 180.253906 44.195312 180.007812 43.601562 180.246094 C 41.246094 181.160156 39.378906 183.300781 35.710938 184.480469 C 35.878906 184.65625 36.480469 184.285156 36.941406 184.085938 C 35.023438 185.714844 33.992188 185.132812 31.613281 186.785156 C 31.769531 186.238281 36.164062 183.996094 38.652344 182.769531 C 36.671875 182.695312 33.648438 184.960938 31.25 186.078125 C 32.136719 185.664062 28.597656 187.625 30.785156 186.089844 C 31.734375 185.425781 37.179688 182.921875 38.492188 181.507812 C 38.890625 182.007812 41.667969 179.953125 44.65625 178.585938 C 42.308594 178.976562 47.617188 176.757812 49.027344 175.898438 C 47.246094 176.304688 46.472656 176.027344 44.792969 176.957031 C 44.988281 176.351562 47.136719 175.667969 48.117188 175.035156 C 46.671875 175.324219 44.683594 176.320312 42.625 177.402344 C 42.378906 177.171875 42.832031 176.917969 42.730469 176.679688 C 40.199219 178.394531 37.238281 179.164062 36.375 180.148438 C 34.875 180.015625 32.859375 180.542969 29.851562 182.347656 C 28.753906 182.59375 31.648438 181.222656 31.945312 180.839844 C 29.644531 181.300781 27.941406 182.269531 25.691406 183.5625 C 27.191406 181.65625 30.878906 180.808594 34.429688 179.140625 C 32.789062 178.636719 36.238281 178.695312 36.8125 177.257812 C 36.816406 177.433594 36.523438 177.632812 36.621094 177.804688 C 38.582031 177.085938 37.789062 176.453125 39.382812 175.734375 C 38.214844 176.070312 36.949219 176.804688 35.585938 177.660156 C 34.617188 177.863281 37.308594 176.425781 37.59375 175.980469 C 36.609375 175.960938 34.257812 177.519531 33.417969 178.097656 C 34.585938 176.742188 32.089844 178.234375 30.492188 178.90625 C 33.082031 177.097656 34.792969 176.921875 36.765625 175.285156 C 36.636719 175.011719 34.382812 176.167969 36.199219 175.125 C 33.171875 176.171875 30.292969 178.105469 28.613281 178.972656 C 29.488281 177.75 30.429688 177.519531 32.898438 176.132812 C 31.792969 175.6875 29.914062 178.023438 28.835938 177.523438 C 28.746094 177.109375 30.476562 176.628906 30.550781 176.207031 C 28.484375 176.511719 24.925781 178.71875 22.027344 180.082031 C 23.367188 177.933594 27.984375 176.386719 30.597656 174.402344 C 29.667969 174.507812 26.292969 176.210938 25.671875 176.902344 C 24.1875 177.273438 26.179688 176.074219 27 175.777344 C 24.445312 176.203125 25.046875 177.382812 23.203125 177.707031 C 23.132812 177.046875 25.273438 176.320312 25.972656 175.644531 C 25.777344 175.457031 24.726562 175.988281 24.835938 176.222656 C 24.269531 175.636719 29.535156 173.316406 30.832031 172.066406 C 30.507812 171.679688 27.824219 173.871094 29.605469 172.46875 C 28.070312 173.082031 28.164062 172.839844 26.394531 173.652344 C 29.105469 172.039062 28.601562 171.753906 31.527344 170.609375 C 30.941406 170.582031 29.785156 171.277344 29.941406 170.304688 C 28.910156 170.761719 29.992188 171.140625 28.695312 171.605469 C 28.609375 171.429688 28.519531 171.253906 28.421875 171.074219 C 25.816406 172.304688 24.753906 173.128906 22.730469 173.953125 C 25.441406 171.972656 26.351562 171.355469 29.371094 170.136719 C 27.457031 170.074219 22.6875 172.730469 21.707031 173.804688 C 21.050781 173.675781 21.867188 173.40625 20.101562 174.398438 C 20.886719 173.613281 20.664062 173.617188 19.164062 174.421875 C 19.542969 173.679688 21.773438 173.007812 22.570312 172.691406 C 22.230469 171.425781 20.171875 173.480469 19.183594 173.523438 C 20.695312 172.144531 23.035156 171.613281 24.308594 170.484375 C 23.753906 170.703125 22.097656 171.382812 20.433594 172.230469 C 22.03125 171.109375 23.753906 169.195312 25.761719 168.640625 C 24.804688 168.144531 23.011719 170.277344 21.417969 170.398438 C 22.71875 168.878906 25.703125 168.410156 27.59375 166.605469 C 27.035156 166.3125 26.101562 167.785156 25.230469 167.585938 C 25.570312 168.046875 21.808594 169.421875 20.59375 169.710938 C 24.988281 167.199219 27.386719 166.175781 32.0625 163.222656 C 29.367188 164.59375 27.097656 165.046875 23.757812 166.550781 C 25.734375 166.390625 22.777344 167.265625 22.148438 167.144531 C 22.015625 167.691406 20.964844 168.257812 19.675781 168.839844 C 19.601562 168.667969 20.070312 168.464844 20.34375 168.273438 C 15.714844 169.96875 10.789062 172.894531 4.539062 175.582031 C 12.210938 170.890625 20.71875 167.898438 25.574219 164.511719 C 16.859375 168.144531 12.085938 170.5 0.882812 175.867188 C 5.164062 172.898438 12.125 170.476562 16.527344 167.320312 C 17.175781 167.183594 16.550781 167.640625 17.257812 167.835938 C 18.683594 166.648438 25.433594 163.878906 28.234375 162.277344 C 28.066406 162.097656 27.46875 162.480469 27.007812 162.679688 C 27.425781 161.722656 28.488281 161.792969 29.949219 160.960938 C 28.664062 160.386719 26.101562 162.820312 23.335938 163.871094 C 23.507812 164.050781 24.101562 163.667969 24.5625 163.46875 C 24.339844 164.472656 22.113281 164.132812 22.292969 164.621094 C 21.085938 164.992188 22.488281 163.800781 23.164062 163.519531 C 22.679688 163.375 21.621094 163.613281 22.800781 162.808594 C 22.472656 162.460938 21.4375 163.007812 20.933594 162.871094 C 20.679688 163.121094 20.414062 163.367188 19.890625 163.625 C 18.753906 164.203125 17.621094 164.777344 16.484375 165.355469 C 16.5625 164.8125 18.566406 164.210938 19.414062 163.640625 C 23.035156 160.722656 25.683594 159.652344 30.023438 156.449219 C 31.449219 156.679688 33.296875 154.351562 35.59375 153.375 C 34.898438 153.683594 30.722656 154.46875 30.304688 156.078125 C 29.566406 156.289062 30.082031 155.789062 30.035156 155.554688 C 29.015625 156.28125 28.84375 156.445312 28.0625 156.339844 C 27.5 156.703125 28.550781 156.492188 27.867188 156.886719 C 27.007812 156.988281 26.246094 157.050781 23.726562 158.09375 C 23.734375 158.46875 24.191406 158.285156 24.664062 158.066406 C 17.515625 161.421875 10.183594 165.152344 1.699219 169.007812 C 1.277344 168.59375 3.832031 168.097656 3.414062 167.691406 C 1.933594 167.917969 -0.777344 169.722656 -2.734375 170.558594 C -2.777344 171.375 -1.117188 170.054688 -0.289062 169.769531 C 0.804688 169.558594 -3.269531 171.605469 -3.695312 171.476562 C -3.015625 170.015625 1.277344 168.464844 3.988281 166.957031 C 3.863281 167.203125 3.734375 167.441406 3.882812 167.679688 C 4.261719 167.488281 4.644531 167.300781 5.023438 167.109375 C 4.824219 166.710938 4.621094 166.875 5.339844 165.84375 C 6.230469 165.164062 7.03125 166.484375 6.941406 165.265625 C 8.59375 164.648438 7.542969 165.636719 9.1875 165.027344 C 9.8125 163.597656 20.605469 159.632812 24.417969 156.628906 C 24.238281 157.441406 25.710938 156.140625 25.527344 156.957031 C 27.636719 155.203125 28.3125 155.050781 30.722656 154.089844 C 31.492188 153.636719 29.933594 153.890625 30.742188 153.191406 C 30.113281 152.679688 28.644531 154.855469 28.683594 153.800781 C 30.082031 153.050781 29.789062 152.824219 30.386719 152.488281 C 31.027344 152.355469 31.425781 152.523438 31.59375 152.988281 C 32.820312 152.464844 33.023438 151.972656 33.203125 151.492188 C 31.785156 152.867188 33.007812 151.160156 31.230469 152.277344 C 31.230469 152.042969 31.914062 151.777344 31.804688 151.539062 C 30.714844 151.675781 28.738281 152.964844 27.480469 153.3125 C 30.734375 151.394531 35.910156 148.574219 36.082031 147.792969 C 36.039062 147.292969 38.207031 147.085938 36.636719 147.957031 C 37.265625 147.746094 39.445312 145.941406 41.359375 145.09375 C 40.757812 145.101562 40.050781 145.328125 40.621094 144.582031 C 38.863281 145.226562 39.382812 145.21875 38.074219 146.105469 C 38.195312 145.859375 38.324219 145.621094 38.179688 145.382812 C 37.042969 146.199219 37.609375 146.234375 36.292969 146.347656 C 45.042969 141.714844 57.386719 134.996094 66.117188 130.269531 C 66.394531 129.554688 67.652344 130.011719 68.550781 129.449219 C 70.011719 128.617188 67.808594 129.058594 69.398438 128.332031 C 72.601562 127.828125 84.085938 121.003906 89.746094 117.902344 C 84.667969 120.449219 80.414062 122.457031 75.683594 124.820312 C 83.042969 120.058594 90.859375 116.8125 96.398438 112.371094 C 96.046875 112.933594 95.757812 113.476562 94.898438 114.0625 C 104.84375 109.421875 111.125 104.964844 118.742188 101.195312 C 118.484375 100.839844 117.597656 101.316406 116.6875 101.835938 C 115.492188 101.890625 120.238281 100.109375 120.238281 99.492188 C 120.222656 101.457031 131.886719 93.554688 135.351562 92.738281 C 133.363281 92.941406 136.847656 91.898438 137.773438 90.988281 C 137.027344 91.964844 138.46875 91.0625 139.449219 90.535156 C 136.167969 90.988281 146.949219 86.640625 151.269531 83.910156 C 142.082031 88.039062 137.554688 90.339844 129.378906 95.042969 C 129.121094 94.394531 131.414062 93.855469 132.828125 92.515625 C 132.328125 92.394531 131.351562 92.894531 130.679688 92.996094 C 132.410156 91.28125 133.894531 92.488281 136.28125 90.890625 C 135.914062 90.789062 135.304688 90.996094 134.597656 91.347656 C 134.746094 91.039062 135.359375 90.707031 135.066406 90.421875 C 141.960938 86.957031 149.003906 83.4375 156.148438 79.753906 C 163.269531 76.03125 170.5 72.144531 177.722656 67.882812 C 178.027344 67.773438 178.335938 67.644531 178.660156 67.523438 C 179.363281 66.738281 181.671875 65.847656 182.910156 65.023438 C 182.429688 65.753906 180.375 66.585938 179.007812 67.375 C 183.121094 65.652344 188.613281 62.441406 193.9375 59.613281 C 215.554688 48.074219 235.125 35.46875 256.320312 22.886719 C 256.289062 23.191406 256.054688 23.511719 255.414062 23.859375 C 260.441406 21.703125 264.1875 18.097656 268.136719 15.421875 C 267.597656 16.496094 265.546875 17.679688 264.230469 18.808594 C 266.5625 17.726562 270.734375 14.902344 273.664062 13.144531 C 271.695312 14.8125 268.878906 16.558594 265.886719 18.308594 C 268.867188 18.320312 273.316406 15.304688 276.042969 14.738281 C 275.316406 14.882812 276.148438 15.730469 277.371094 15.34375 C 277.46875 15.3125 277.554688 15.289062 277.628906 15.257812 C 277.542969 15.332031 277.472656 15.417969 277.464844 15.515625 C 277.464844 15.324219 279.640625 15.421875 278.328125 16.160156 C 281.710938 14.558594 284.792969 13.375 287.832031 12.277344 C 285.0625 14.042969 277.117188 16.375 276.75 19.351562 C 279.117188 19.519531 281.621094 19.488281 286.023438 16.75 C 286.402344 16.941406 286.621094 17.351562 287.253906 17.1875 C 287.371094 17.5 285.613281 17.890625 284.683594 18.671875 C 284.378906 19 284.542969 19.289062 283.78125 19.652344 C 284.328125 20.011719 285.390625 19.652344 286.214844 19.617188 C 285.566406 20.347656 282.417969 20.359375 283.109375 21.867188 C 283.441406 22.332031 284.824219 21.296875 285.882812 20.726562 C 286.050781 21.132812 285.175781 21.632812 284.246094 22.132812 C 285.003906 22.761719 286.152344 22.605469 285.136719 23.683594 C 287.621094 23.53125 287.925781 23.078125 290.34375 22.507812 C 289.996094 23.183594 287.8125 23.851562 286.9375 24.238281 C 286.660156 24.617188 286.390625 25.007812 286.128906 25.390625 C 287.132812 25.527344 288.964844 23.527344 289.53125 23.648438 C 289.640625 23.90625 289.753906 24.175781 290.199219 23.949219 C 289.519531 24.792969 287.53125 24.851562 285.949219 25.941406 C 286.164062 26.128906 287.65625 25.375 286.144531 26.28125 C 286.84375 26.328125 288.449219 25.070312 289.285156 24.925781 C 288.554688 25.558594 286.828125 26.785156 285.441406 27.601562 C 285.453125 28.210938 286.394531 27.492188 286.839844 27.480469 C 287.652344 27.046875 287.929688 26.667969 287.644531 26.328125 C 289.238281 26.050781 289.867188 26.519531 291.277344 25.832031 C 292.199219 25.921875 289.851562 27.105469 291.210938 26.558594 C 290.574219 27.945312 284.722656 30.160156 283.777344 31.53125 C 285.9375 30.816406 287.902344 28.660156 290.597656 28.050781 C 289.738281 29.304688 286.695312 30.300781 283.699219 32.261719 C 285.277344 31.910156 286.867188 31.695312 287.171875 32.320312 C 287.195312 32.613281 286.332031 32.988281 285.792969 33.339844 C 286.949219 33.984375 289.769531 32.261719 292.550781 30.582031 C 292.660156 30.84375 292.769531 31.101562 293.21875 30.882812 C 292.589844 31.484375 291.582031 31.933594 290 32.972656 C 290.265625 33.320312 291.605469 32.144531 292.308594 31.867188 C 292.371094 32.34375 290.535156 32.992188 289.828125 33.53125 L 289.527344 33.023438 C 288.546875 33.585938 287.570312 34.15625 286.582031 34.722656 C 286.921875 35.183594 288.304688 34.148438 289.355469 33.582031 C 289.582031 35.070312 291.96875 34.320312 293.464844 33.042969 C 293.949219 32.976562 293.945312 33.605469 294.871094 32.921875 C 294.503906 33.472656 293.914062 33.96875 295.445312 33.050781 C 295.53125 33.226562 295.066406 33.4375 294.804688 33.644531 C 295.183594 33.941406 296.765625 32.523438 297.207031 32.714844 C 294.6875 33.925781 291.898438 35.972656 289.671875 37.519531 C 290.757812 37.527344 292.277344 35.972656 293.355469 35.394531 C 293.5 35.738281 292.210938 36.214844 292.550781 36.542969 C 294.019531 36.859375 297.632812 33.515625 299.019531 33.273438 C 303.289062 31.046875 298.039062 33.941406 297.402344 34.699219 Z M 41.480469 173.300781 C 41.03125 172.667969 37.488281 174.921875 36.847656 175.449219 C 36.414062 176.121094 40.199219 173.855469 41.480469 173.300781 Z M 34.722656 149.808594 L 32.082031 151.160156 L 32.261719 151.507812 C 33.0625 150.941406 35.371094 150.324219 34.722656 149.808594 Z M 38.441406 151.472656 C 37.441406 151.984375 36.167969 152.507812 36.359375 152.980469 C 37.074219 152.472656 39.121094 151.921875 38.441406 151.472656 Z M 38.855469 148.582031 C 37.976562 149.097656 34.464844 150.640625 35.550781 150.496094 C 37.160156 149.507812 38.433594 149.589844 38.855469 148.582031 Z M 44.183594 148.75 C 42.953125 148.335938 40.402344 150.855469 39.457031 151.613281 C 41.742188 150.636719 41.75 149.734375 44.183594 148.75 Z M 159.214844 122.675781 C 158.464844 123.082031 157.71875 123.492188 156.957031 123.894531 C 157.019531 124.003906 157.085938 124.121094 157.140625 124.242188 C 157.875 123.722656 159.910156 123.117188 159.214844 122.675781 Z M 166.230469 75.074219 C 168.027344 73.933594 169.3125 73.59375 170.414062 73.011719 C 176.996094 69.558594 165.734375 74.699219 166.230469 75.074219 Z M 180.886719 67.484375 C 181.335938 67.269531 181.921875 66.867188 182.09375 67.046875 C 186.878906 64.230469 184.230469 65.019531 180.886719 67.484375 Z M 199.136719 57.621094 C 197.691406 58.183594 194.519531 60.054688 194.707031 60.09375 C 195.183594 60.179688 197.933594 58.617188 199.136719 57.621094 Z M 85.363281 117.75 C 84.808594 117.988281 84.582031 117.796875 84.058594 117.984375 C 84.46875 118.378906 82.753906 118.882812 82.832031 119.296875 C 83.558594 118.796875 85.410156 118.234375 85.363281 117.75 Z M 186.785156 61.511719 C 185.203125 62.515625 183.269531 63.542969 182.164062 64.519531 C 184.042969 63.5 185.972656 62.464844 186.785156 61.511719 Z M 277.644531 15.261719 C 279.082031 14.789062 278.070312 14.914062 277.644531 15.261719 Z M 291.390625 28.554688 C 290.859375 28.5 286.707031 30.894531 287.714844 30.675781 C 289.019531 29.671875 291.125 29.121094 291.390625 28.554688 Z M 294.859375 28.613281 C 293.59375 28.8125 292.15625 30.664062 290.710938 30.785156 C 290.921875 30.667969 291.046875 30.40625 290.617188 30.613281 C 289.464844 32.3125 294.421875 29.214844 294.859375 28.613281 Z M 277.808594 57.867188 C 279.476562 56.660156 283.265625 55.402344 282.988281 54.90625 C 281.234375 56.125 278.917969 56.535156 277.808594 57.867188 Z M 258.492188 70.472656 C 263.058594 67.878906 268.53125 65.699219 272.136719 63.40625 C 268.238281 65.070312 262.640625 67.4375 258.492188 70.472656 Z M 26.351562 157.644531 C 25.144531 158.523438 23.558594 159.410156 22.933594 160.269531 C 24.800781 159.355469 28.113281 157.816406 27.09375 158.164062 C 25.574219 158.992188 27.03125 157.878906 26.351562 157.644531 Z M 294.378906 49.039062 C 295.167969 48.539062 295.636719 48.503906 295.785156 48.917969 C 296.710938 48.230469 298.054688 47.511719 298.542969 46.875 C 297.136719 47.804688 295.265625 47.796875 294.378906 49.039062 Z M 23.570312 173.730469 C 21.765625 175.691406 20.535156 174.472656 19.039062 175.132812 C 19.597656 175.707031 23.515625 175.265625 23.570312 173.730469 Z M 9.761719 171.824219 C 8.570312 172.398438 6.988281 172.800781 6.910156 173.695312 C 8.253906 173.0625 9.320312 172.441406 9.761719 171.824219 Z M 7.910156 167.210938 C 11.601562 165.769531 11.726562 164.550781 7.910156 167.210938 Z M 10.703125 168.027344 C 15.308594 165.800781 15.636719 165.628906 18.84375 163.453125 C 14.917969 165.402344 12.773438 166.058594 10.703125 168.027344 Z M 19.261719 161.464844 C 17.988281 161.039062 15.390625 163.703125 14.34375 163.957031 C 15.976562 163.730469 17.167969 162.269531 19.261719 161.464844 Z M 133.082031 142.539062 C 134.378906 141.929688 137.113281 140.96875 137.976562 139.9375 C 136.523438 140.339844 133.902344 141.332031 133.082031 142.539062 Z M 11.386719 181.664062 C 11.734375 181.667969 15.398438 179.355469 15.011719 179.40625 C 13.769531 180.207031 13.308594 180.019531 12.554688 180.203125 C 12.441406 180.679688 11.480469 180.898438 12.441406 180.929688 C 12.007812 181.160156 11.347656 181.425781 11.386719 181.664062 Z M 27.035156 177.75 C 22.226562 180.480469 19.566406 181.738281 17.148438 183.648438 C 21.207031 181.527344 24.882812 179.335938 27.035156 177.75 Z M 8.601562 177.074219 C 9.996094 176.46875 12.921875 175.445312 13.910156 174.40625 C 11.992188 175.613281 9.410156 175.910156 8.601562 177.074219 Z M 11.976562 187.578125 C 13.429688 186.539062 15.167969 186.605469 15.777344 185.671875 C 14.933594 185.992188 11.171875 187.472656 11.976562 187.578125 Z M 17.464844 182.382812 C 19.703125 181.136719 20.816406 180.703125 21.546875 180.09375 C 20.808594 180.410156 21.613281 179.6875 20.992188 179.929688 C 21.304688 180.132812 19.066406 181.269531 19.089844 180.890625 C 19.300781 180.78125 19.445312 180.523438 19.003906 180.710938 C 19.125 181.25 17.5625 181.839844 17.464844 182.382812 Z M 19.800781 170.972656 C 19.484375 170.773438 16.800781 172.136719 16.769531 172.507812 C 17.707031 171.910156 20.023438 171.925781 19.800781 170.972656 Z M 21.667969 170.910156 C 21.722656 170.644531 21.90625 170.253906 21.582031 170.734375 C 20.441406 171.527344 18.632812 172.007812 18.464844 172.089844 C 11.554688 175.574219 17.253906 173.515625 21.667969 170.910156 Z M 245.097656 77.117188 C 244.554688 77.695312 242.957031 78.367188 242.6875 78.929688 C 243.480469 78.855469 245.390625 77.664062 245.097656 77.117188 Z M 228.851562 87.371094 C 229.683594 86.777344 231.675781 86.085938 231.738281 85.542969 C 230.582031 85.917969 229.351562 86.605469 228.851562 87.371094 Z M 86.199219 164.304688 C 86.976562 163.574219 90.140625 162.214844 89.128906 162.554688 C 88.148438 162.691406 85.667969 164.023438 86.199219 164.304688 Z M 18.984375 185.390625 C 19.785156 184.695312 22.550781 183.558594 21.554688 183.867188 C 20.765625 183.835938 18.640625 184.648438 18.984375 185.390625 Z M 26.121094 180.65625 C 24.773438 181.484375 22.222656 182.34375 21.652344 183.148438 C 23.007812 182.320312 25.558594 181.457031 26.121094 180.65625 Z M 26.121094 180.65625 " clip-rule="nonzero"/></clipPath><linearGradient x1="2.343553" gradientTransform="matrix(0.905118, -0.507376, 0.505486, 0.901747, -14.861652, 167.389706)" y1="24.660999" x2="341.06341" gradientUnits="userSpaceOnUse" y2="24.660999" id="id17"><stop stop-opacity="1" stop-color="rgb(8.198547%, 80.799866%, 100%)" offset="0"/><stop stop-opacity="1" stop-color="rgb(8.198547%, 80.799866%, 100%)" offset="0.25"/><stop stop-opacity="1" stop-color="rgb(8.198547%, 80.799866%, 100%)" offset="0.28125"/><stop stop-opacity="1" stop-color="rgb(8.198547%, 80.799866%, 100%)" offset="0.296875"/><stop stop-opacity="1" stop-color="rgb(8.198547%, 80.799866%, 100%)" offset="0.304688"/><stop stop-opacity="1" stop-color="rgb(8.161926%, 80.53894%, 100%)" offset="0.308594"/><stop stop-opacity="1" stop-color="rgb(8.126831%, 80.278015%, 100%)" offset="0.3125"/><stop stop-opacity="1" stop-color="rgb(8.078003%, 79.928589%, 100%)" offset="0.316406"/><stop stop-opacity="1" stop-color="rgb(8.029175%, 79.579163%, 100%)" offset="0.320312"/><stop stop-opacity="1" stop-color="rgb(7.980347%, 79.229736%, 100%)" offset="0.324219"/><stop stop-opacity="1" stop-color="rgb(7.931519%, 78.88031%, 100%)" offset="0.328125"/><stop stop-opacity="1" stop-color="rgb(7.88269%, 78.530884%, 100%)" offset="0.332031"/><stop stop-opacity="1" stop-color="rgb(7.833862%, 78.181458%, 100%)" offset="0.335938"/><stop stop-opacity="1" stop-color="rgb(7.785034%, 77.832031%, 100%)" offset="0.339844"/><stop stop-opacity="1" stop-color="rgb(7.736206%, 77.482605%, 100%)" offset="0.34375"/><stop stop-opacity="1" stop-color="rgb(7.687378%, 77.133179%, 100%)" offset="0.347656"/><stop stop-opacity="1" stop-color="rgb(7.63855%, 76.783752%, 100%)" offset="0.351563"/><stop stop-opacity="1" stop-color="rgb(7.589722%, 76.434326%, 100%)" offset="0.355469"/><stop stop-opacity="1" stop-color="rgb(7.542419%, 76.0849%, 100%)" offset="0.359375"/><stop stop-opacity="1" stop-color="rgb(7.493591%, 75.735474%, 100%)" offset="0.363281"/><stop stop-opacity="1" stop-color="rgb(7.444763%, 75.386047%, 100%)" offset="0.367188"/><stop stop-opacity="1" stop-color="rgb(7.395935%, 75.036621%, 100%)" offset="0.371094"/><stop stop-opacity="1" stop-color="rgb(7.347107%, 74.687195%, 100%)" offset="0.375"/><stop stop-opacity="1" stop-color="rgb(7.298279%, 74.337769%, 100%)" offset="0.378906"/><stop stop-opacity="1" stop-color="rgb(7.249451%, 73.988342%, 100%)" offset="0.382813"/><stop stop-opacity="1" stop-color="rgb(7.200623%, 73.638916%, 100%)" offset="0.386719"/><stop stop-opacity="1" stop-color="rgb(7.151794%, 73.28949%, 100%)" offset="0.390625"/><stop stop-opacity="1" stop-color="rgb(7.102966%, 72.940063%, 100%)" offset="0.394531"/><stop stop-opacity="1" stop-color="rgb(7.054138%, 72.590637%, 100%)" offset="0.398438"/><stop stop-opacity="1" stop-color="rgb(7.00531%, 72.241211%, 100%)" offset="0.402344"/><stop stop-opacity="1" stop-color="rgb(6.956482%, 71.891785%, 100%)" offset="0.40625"/><stop stop-opacity="1" stop-color="rgb(6.907654%, 71.542358%, 100%)" offset="0.410156"/><stop stop-opacity="1" stop-color="rgb(6.858826%, 71.192932%, 100%)" offset="0.414063"/><stop stop-opacity="1" stop-color="rgb(6.809998%, 70.843506%, 100%)" offset="0.417969"/><stop stop-opacity="1" stop-color="rgb(6.762695%, 70.49408%, 100%)" offset="0.421875"/><stop stop-opacity="1" stop-color="rgb(6.713867%, 70.144653%, 100%)" offset="0.425781"/><stop stop-opacity="1" stop-color="rgb(6.665039%, 69.795227%, 100%)" offset="0.429688"/><stop stop-opacity="1" stop-color="rgb(6.616211%, 69.445801%, 100%)" offset="0.433594"/><stop stop-opacity="1" stop-color="rgb(6.567383%, 69.096375%, 100%)" offset="0.4375"/><stop stop-opacity="1" stop-color="rgb(6.518555%, 68.746948%, 100%)" offset="0.441406"/><stop stop-opacity="1" stop-color="rgb(6.469727%, 68.397522%, 100%)" offset="0.445313"/><stop stop-opacity="1" stop-color="rgb(6.420898%, 68.048096%, 100%)" offset="0.449219"/><stop stop-opacity="1" stop-color="rgb(6.37207%, 67.698669%, 100%)" offset="0.453125"/><stop stop-opacity="1" stop-color="rgb(6.323242%, 67.349243%, 100%)" offset="0.457031"/><stop stop-opacity="1" stop-color="rgb(6.274414%, 66.999817%, 100%)" offset="0.460938"/><stop stop-opacity="1" stop-color="rgb(6.225586%, 66.650391%, 100%)" offset="0.464844"/><stop stop-opacity="1" stop-color="rgb(6.176758%, 66.300964%, 100%)" offset="0.46875"/><stop stop-opacity="1" stop-color="rgb(6.12793%, 65.951538%, 100%)" offset="0.472656"/><stop stop-opacity="1" stop-color="rgb(6.079102%, 65.602112%, 100%)" offset="0.476563"/><stop stop-opacity="1" stop-color="rgb(6.030273%, 65.252686%, 100%)" offset="0.480469"/><stop stop-opacity="1" stop-color="rgb(5.982971%, 64.903259%, 100%)" offset="0.484375"/><stop stop-opacity="1" stop-color="rgb(5.934143%, 64.553833%, 100%)" offset="0.488281"/><stop stop-opacity="1" stop-color="rgb(5.885315%, 64.204407%, 100%)" offset="0.492188"/><stop stop-opacity="1" stop-color="rgb(5.836487%, 63.85498%, 100%)" offset="0.496094"/><stop stop-opacity="1" stop-color="rgb(5.787659%, 63.505554%, 100%)" offset="0.5"/><stop stop-opacity="1" stop-color="rgb(5.738831%, 63.156128%, 100%)" offset="0.503906"/><stop stop-opacity="1" stop-color="rgb(5.690002%, 62.806702%, 100%)" offset="0.507812"/><stop stop-opacity="1" stop-color="rgb(5.641174%, 62.457275%, 100%)" offset="0.511719"/><stop stop-opacity="1" stop-color="rgb(5.592346%, 62.107849%, 100%)" offset="0.515625"/><stop stop-opacity="1" stop-color="rgb(5.543518%, 61.756897%, 100%)" offset="0.519531"/><stop stop-opacity="1" stop-color="rgb(5.49469%, 61.407471%, 100%)" offset="0.523437"/><stop stop-opacity="1" stop-color="rgb(5.445862%, 61.058044%, 100%)" offset="0.527344"/><stop stop-opacity="1" stop-color="rgb(5.397034%, 60.708618%, 100%)" offset="0.53125"/><stop stop-opacity="1" stop-color="rgb(5.348206%, 60.359192%, 100%)" offset="0.535156"/><stop stop-opacity="1" stop-color="rgb(5.299377%, 60.009766%, 100%)" offset="0.539063"/><stop stop-opacity="1" stop-color="rgb(5.250549%, 59.660339%, 100%)" offset="0.542969"/><stop stop-opacity="1" stop-color="rgb(5.203247%, 59.310913%, 100%)" offset="0.546875"/><stop stop-opacity="1" stop-color="rgb(5.154419%, 58.961487%, 100%)" offset="0.550781"/><stop stop-opacity="1" stop-color="rgb(5.105591%, 58.612061%, 100%)" offset="0.554688"/><stop stop-opacity="1" stop-color="rgb(5.056763%, 58.262634%, 100%)" offset="0.558594"/><stop stop-opacity="1" stop-color="rgb(5.007935%, 57.913208%, 100%)" offset="0.5625"/><stop stop-opacity="1" stop-color="rgb(4.959106%, 57.563782%, 100%)" offset="0.566406"/><stop stop-opacity="1" stop-color="rgb(4.910278%, 57.214355%, 100%)" offset="0.570312"/><stop stop-opacity="1" stop-color="rgb(4.86145%, 56.864929%, 100%)" offset="0.574219"/><stop stop-opacity="1" stop-color="rgb(4.812622%, 56.515503%, 100%)" offset="0.578125"/><stop stop-opacity="1" stop-color="rgb(4.763794%, 56.166077%, 100%)" offset="0.582031"/><stop stop-opacity="1" stop-color="rgb(4.714966%, 55.81665%, 100%)" offset="0.585937"/><stop stop-opacity="1" stop-color="rgb(4.666138%, 55.467224%, 100%)" offset="0.589844"/><stop stop-opacity="1" stop-color="rgb(4.61731%, 55.117798%, 100%)" offset="0.59375"/><stop stop-opacity="1" stop-color="rgb(4.568481%, 54.768372%, 100%)" offset="0.597656"/><stop stop-opacity="1" stop-color="rgb(4.519653%, 54.418945%, 100%)" offset="0.601562"/><stop stop-opacity="1" stop-color="rgb(4.470825%, 54.069519%, 100%)" offset="0.605469"/><stop stop-opacity="1" stop-color="rgb(4.423523%, 53.720093%, 100%)" offset="0.609375"/><stop stop-opacity="1" stop-color="rgb(4.374695%, 53.370667%, 100%)" offset="0.613281"/><stop stop-opacity="1" stop-color="rgb(4.325867%, 53.02124%, 100%)" offset="0.617188"/><stop stop-opacity="1" stop-color="rgb(4.277039%, 52.671814%, 100%)" offset="0.621094"/><stop stop-opacity="1" stop-color="rgb(4.22821%, 52.322388%, 100%)" offset="0.625"/><stop stop-opacity="1" stop-color="rgb(4.179382%, 51.972961%, 100%)" offset="0.628906"/><stop stop-opacity="1" stop-color="rgb(4.130554%, 51.623535%, 100%)" offset="0.632812"/><stop stop-opacity="1" stop-color="rgb(4.081726%, 51.274109%, 100%)" offset="0.636719"/><stop stop-opacity="1" stop-color="rgb(4.032898%, 50.924683%, 100%)" offset="0.640625"/><stop stop-opacity="1" stop-color="rgb(3.98407%, 50.575256%, 100%)" offset="0.644531"/><stop stop-opacity="1" stop-color="rgb(3.935242%, 50.22583%, 100%)" offset="0.648437"/><stop stop-opacity="1" stop-color="rgb(3.886414%, 49.876404%, 100%)" offset="0.652344"/><stop stop-opacity="1" stop-color="rgb(3.837585%, 49.526978%, 100%)" offset="0.65625"/><stop stop-opacity="1" stop-color="rgb(3.788757%, 49.177551%, 100%)" offset="0.660156"/><stop stop-opacity="1" stop-color="rgb(3.739929%, 48.828125%, 100%)" offset="0.664062"/><stop stop-opacity="1" stop-color="rgb(3.691101%, 48.478699%, 100%)" offset="0.667969"/><stop stop-opacity="1" stop-color="rgb(3.643799%, 48.129272%, 100%)" offset="0.671875"/><stop stop-opacity="1" stop-color="rgb(3.594971%, 47.779846%, 100%)" offset="0.675781"/><stop stop-opacity="1" stop-color="rgb(3.546143%, 47.43042%, 100%)" offset="0.679688"/><stop stop-opacity="1" stop-color="rgb(3.497314%, 47.080994%, 100%)" offset="0.683594"/><stop stop-opacity="1" stop-color="rgb(3.448486%, 46.731567%, 100%)" offset="0.6875"/><stop stop-opacity="1" stop-color="rgb(3.399658%, 46.382141%, 100%)" offset="0.691406"/><stop stop-opacity="1" stop-color="rgb(3.35083%, 46.032715%, 100%)" offset="0.695312"/><stop stop-opacity="1" stop-color="rgb(3.302002%, 45.683289%, 100%)" offset="0.699219"/><stop stop-opacity="1" stop-color="rgb(3.253174%, 45.333862%, 100%)" offset="0.703125"/><stop stop-opacity="1" stop-color="rgb(3.204346%, 44.984436%, 100%)" offset="0.707031"/><stop stop-opacity="1" stop-color="rgb(3.155518%, 44.63501%, 100%)" offset="0.710938"/><stop stop-opacity="1" stop-color="rgb(3.106689%, 44.285583%, 100%)" offset="0.714844"/><stop stop-opacity="1" stop-color="rgb(3.057861%, 43.936157%, 100%)" offset="0.71875"/><stop stop-opacity="1" stop-color="rgb(3.009033%, 43.586731%, 100%)" offset="0.722656"/><stop stop-opacity="1" stop-color="rgb(2.960205%, 43.237305%, 100%)" offset="0.726562"/><stop stop-opacity="1" stop-color="rgb(2.911377%, 42.887878%, 100%)" offset="0.730469"/><stop stop-opacity="1" stop-color="rgb(2.864075%, 42.538452%, 100%)" offset="0.734375"/><stop stop-opacity="1" stop-color="rgb(2.815247%, 42.189026%, 100%)" offset="0.738281"/><stop stop-opacity="1" stop-color="rgb(2.766418%, 41.8396%, 100%)" offset="0.742187"/><stop stop-opacity="1" stop-color="rgb(2.71759%, 41.490173%, 100%)" offset="0.746094"/><stop stop-opacity="1" stop-color="rgb(2.668762%, 41.140747%, 100%)" offset="0.75"/><stop stop-opacity="1" stop-color="rgb(2.619934%, 40.791321%, 100%)" offset="0.753906"/><stop stop-opacity="1" stop-color="rgb(2.571106%, 40.441895%, 100%)" offset="0.757813"/><stop stop-opacity="1" stop-color="rgb(2.522278%, 40.092468%, 100%)" offset="0.761719"/><stop stop-opacity="1" stop-color="rgb(2.47345%, 39.743042%, 100%)" offset="0.765625"/><stop stop-opacity="1" stop-color="rgb(2.424622%, 39.393616%, 100%)" offset="0.769531"/><stop stop-opacity="1" stop-color="rgb(2.375793%, 39.044189%, 100%)" offset="0.773438"/><stop stop-opacity="1" stop-color="rgb(2.326965%, 38.694763%, 100%)" offset="0.777344"/><stop stop-opacity="1" stop-color="rgb(2.278137%, 38.345337%, 100%)" offset="0.78125"/><stop stop-opacity="1" stop-color="rgb(2.229309%, 37.995911%, 100%)" offset="0.785156"/><stop stop-opacity="1" stop-color="rgb(2.180481%, 37.646484%, 100%)" offset="0.789062"/><stop stop-opacity="1" stop-color="rgb(2.131653%, 37.297058%, 100%)" offset="0.792969"/><stop stop-opacity="1" stop-color="rgb(2.084351%, 36.947632%, 100%)" offset="0.796875"/><stop stop-opacity="1" stop-color="rgb(2.035522%, 36.598206%, 100%)" offset="0.800781"/><stop stop-opacity="1" stop-color="rgb(1.986694%, 36.248779%, 100%)" offset="0.804688"/><stop stop-opacity="1" stop-color="rgb(1.937866%, 35.897827%, 100%)" offset="0.808594"/><stop stop-opacity="1" stop-color="rgb(1.889038%, 35.548401%, 100%)" offset="0.8125"/><stop stop-opacity="1" stop-color="rgb(1.84021%, 35.198975%, 100%)" offset="0.816406"/><stop stop-opacity="1" stop-color="rgb(1.791382%, 34.849548%, 100%)" offset="0.820312"/><stop stop-opacity="1" stop-color="rgb(1.742554%, 34.500122%, 100%)" offset="0.824219"/><stop stop-opacity="1" stop-color="rgb(1.693726%, 34.150696%, 100%)" offset="0.828125"/><stop stop-opacity="1" stop-color="rgb(1.644897%, 33.80127%, 100%)" offset="0.832031"/><stop stop-opacity="1" stop-color="rgb(1.596069%, 33.451843%, 100%)" offset="0.835938"/><stop stop-opacity="1" stop-color="rgb(1.547241%, 33.102417%, 100%)" offset="0.839844"/><stop stop-opacity="1" stop-color="rgb(1.498413%, 32.752991%, 100%)" offset="0.84375"/><stop stop-opacity="1" stop-color="rgb(1.449585%, 32.403564%, 100%)" offset="0.847656"/><stop stop-opacity="1" stop-color="rgb(1.402283%, 32.054138%, 100%)" offset="0.851563"/><stop stop-opacity="1" stop-color="rgb(1.353455%, 31.704712%, 100%)" offset="0.855469"/><stop stop-opacity="1" stop-color="rgb(1.304626%, 31.355286%, 100%)" offset="0.859375"/><stop stop-opacity="1" stop-color="rgb(1.255798%, 31.005859%, 100%)" offset="0.863281"/><stop stop-opacity="1" stop-color="rgb(1.20697%, 30.656433%, 100%)" offset="0.867188"/><stop stop-opacity="1" stop-color="rgb(1.158142%, 30.307007%, 100%)" offset="0.871094"/><stop stop-opacity="1" stop-color="rgb(1.109314%, 29.957581%, 100%)" offset="0.875"/><stop stop-opacity="1" stop-color="rgb(1.060486%, 29.608154%, 100%)" offset="0.878906"/><stop stop-opacity="1" stop-color="rgb(1.011658%, 29.258728%, 100%)" offset="0.882812"/><stop stop-opacity="1" stop-color="rgb(0.96283%, 28.909302%, 100%)" offset="0.886719"/><stop stop-opacity="1" stop-color="rgb(0.914001%, 28.559875%, 100%)" offset="0.890625"/><stop stop-opacity="1" stop-color="rgb(0.865173%, 28.210449%, 100%)" offset="0.894531"/><stop stop-opacity="1" stop-color="rgb(0.816345%, 27.861023%, 100%)" offset="0.898438"/><stop stop-opacity="1" stop-color="rgb(0.767517%, 27.511597%, 100%)" offset="0.902344"/><stop stop-opacity="1" stop-color="rgb(0.718689%, 27.16217%, 100%)" offset="0.90625"/><stop stop-opacity="1" stop-color="rgb(0.669861%, 26.812744%, 100%)" offset="0.910156"/><stop stop-opacity="1" stop-color="rgb(0.622559%, 26.463318%, 100%)" offset="0.914063"/><stop stop-opacity="1" stop-color="rgb(0.57373%, 26.113892%, 100%)" offset="0.917969"/><stop stop-opacity="1" stop-color="rgb(0.524902%, 25.764465%, 100%)" offset="0.921875"/><stop stop-opacity="1" stop-color="rgb(0.476074%, 25.415039%, 100%)" offset="0.925781"/><stop stop-opacity="1" stop-color="rgb(0.427246%, 25.065613%, 100%)" offset="0.929688"/><stop stop-opacity="1" stop-color="rgb(0.378418%, 24.716187%, 100%)" offset="0.933594"/><stop stop-opacity="1" stop-color="rgb(0.32959%, 24.36676%, 100%)" offset="0.9375"/><stop stop-opacity="1" stop-color="rgb(0.280762%, 24.017334%, 100%)" offset="0.941406"/><stop stop-opacity="1" stop-color="rgb(0.231934%, 23.667908%, 100%)" offset="0.945312"/><stop stop-opacity="1" stop-color="rgb(0.183105%, 23.318481%, 100%)" offset="0.949219"/><stop stop-opacity="1" stop-color="rgb(0.134277%, 22.969055%, 100%)" offset="0.953125"/><stop stop-opacity="1" stop-color="rgb(0.0854492%, 22.619629%, 100%)" offset="0.957031"/><stop stop-opacity="1" stop-color="rgb(0.0366211%, 22.270203%, 100%)" offset="0.960937"/><stop stop-opacity="1" stop-color="rgb(0.0183105%, 22.134399%, 100%)" offset="0.96875"/><stop stop-opacity="1" stop-color="rgb(0%, 21.998596%, 100%)" offset="1"/></linearGradient><clipPath id="id18"><rect x="0" width="309" y="0" height="213"/></clipPath></defs><g clip-path="url(#id2)"><path fill="#000000" d="M 0.03125 0 L 310.46875 0 L 310.46875 551.890625 L 0.03125 551.890625 Z M 0.03125 0 " fill-opacity="1" fill-rule="nonzero"/><path fill="#ffffff" d="M 0.03125 0 L 310.46875 0 L 310.46875 551.890625 L 0.03125 551.890625 Z M 0.03125 0 " fill-opacity="1" fill-rule="nonzero"/><path fill="#000000" d="M 0.03125 0 L 310.46875 0 L 310.46875 551.890625 L 0.03125 551.890625 Z M 0.03125 0 " fill-opacity="1" fill-rule="nonzero"/></g><g clip-path="url(#id3)"><g mask="url(#id4)"><g transform="matrix(1, 0, 0, 1, -0.000000000000000003, 206)"><g clip-path="url(#id10)"><g clip-path="url(#id5)"><g clip-path="url(#id6)"><g clip-path="url(#id7)"><g clip-path="url(#id8)"><path fill="url(#id9)" d="M -79.105469 55.929688 L 74.109375 329.25 L 388.988281 152.742188 L 235.773438 -120.578125 Z M -79.105469 55.929688 " fill-rule="nonzero"/></g></g></g></g></g></g></g></g><g clip-path="url(#id11)"><g mask="url(#id12)"><g transform="matrix(1, 0, 0, 1, -0.000000000000000003, 124)"><g clip-path="url(#id18)"><g clip-path="url(#id13)"><g clip-path="url(#id14)"><g clip-path="url(#id15)"><g clip-path="url(#id16)"><path fill="url(#id17)" d="M -75.800781 53.707031 L 72.539062 318.335938 L 379.121094 146.476562 L 230.78125 -118.152344 Z M -75.800781 53.707031 " fill-rule="nonzero"/></g></g></g></g></g></g></g></g></svg>