<svg xmlns="http://www.w3.org/2000/svg" xmlns:xlink="http://www.w3.org/1999/xlink" width="1920" zoomAndPan="magnify" viewBox="0 0 1440 809.999993" height="1080" preserveAspectRatio="xMidYMid meet" version="1.0"><defs><clipPath id="id1"><path d="M 521 155 L 1354 155 L 1354 630 L 521 630 Z M 521 155 " clip-rule="nonzero"/></clipPath><clipPath id="id2"><path d="M 512.527344 570.628906 L 1311.984375 122.484375 L 1379.464844 242.859375 L 580.003906 691.007812 Z M 512.527344 570.628906 " clip-rule="nonzero"/></clipPath><clipPath id="id3"><path d="M 512.527344 570.628906 L 1311.984375 122.484375 L 1379.464844 242.859375 L 580.003906 691.007812 Z M 512.527344 570.628906 " clip-rule="nonzero"/></clipPath><clipPath id="id4"><path d="M 566.574219 556.917969 C 562.589844 559.75 553.066406 563.730469 548.425781 566.015625 C 549.765625 563.433594 561.46875 559.335938 566.574219 556.917969 Z M 532.242188 586.589844 C 537.1875 582.871094 540.742188 583.21875 543.863281 579.574219 C 540.445312 581.898438 531.621094 584.347656 532.242188 586.589844 Z M 551.265625 551.589844 C 546.109375 554.257812 538.007812 556.589844 534.15625 560.167969 C 539.789062 557.613281 548.871094 554.546875 551.265625 551.589844 Z M 573.042969 597.445312 C 570.597656 600.144531 565.367188 600.421875 565.4375 602.46875 C 567.796875 600.796875 574.613281 599 573.042969 597.445312 Z M 550.429688 575.070312 C 561.03125 569.347656 574.957031 563.5625 583.445312 557.855469 L 566.339844 566.5 C 561.4375 569.339844 553.265625 572.277344 550.429688 575.070312 Z M 599.035156 551.140625 C 597.707031 551.824219 597.695312 550.785156 596.539062 551.210938 C 598.300781 553.449219 592.175781 551.445312 591.75 554.246094 C 594.292969 552.628906 597.875 553.59375 599.035156 551.140625 Z M 551.082031 599.007812 C 550.851562 598.539062 551.617188 598.042969 551.621094 597.539062 C 549.527344 597.984375 539.875 603.425781 542.007812 603.558594 C 543.289062 602.902344 543.109375 602.246094 544.808594 601.546875 C 547.03125 602.574219 566.1875 591.425781 551.082031 599.007812 Z M 628.859375 515.238281 C 629.28125 515.761719 629.746094 516.195312 631.339844 515.140625 L 630.621094 513.746094 C 628.09375 514.941406 625.699219 516.15625 626.085938 517.234375 C 627.476562 516.550781 628.1875 515.898438 628.859375 515.238281 Z M 539.105469 618.046875 C 542.039062 616.214844 548.121094 614.292969 548.988281 612.507812 C 545.027344 613.75 541.847656 615.3125 539.105469 618.046875 Z M 590.230469 619.007812 C 584.808594 622.046875 571.242188 627.851562 571.238281 629.148438 C 577.980469 624.671875 587.757812 623.015625 590.230469 619.007812 Z M 561.117188 576.222656 L 568.183594 572.671875 C 567.417969 570.570312 561.714844 575.316406 561.117188 576.222656 Z M 532.832031 572.667969 C 529.589844 574.679688 523.15625 576.765625 521.972656 578.726562 C 525.242188 576.703125 531.652344 574.628906 532.832031 572.667969 Z M 551.136719 586.558594 C 547.640625 589.023438 540.765625 592.8125 541.523438 592.578125 C 551.167969 589.382812 565.441406 582.867188 572.035156 577.84375 C 570.425781 578.589844 568.558594 579.667969 568.523438 578.421875 C 560.480469 582.773438 557.523438 585.632812 549.605469 588.519531 C 550.8125 587.847656 551.917969 587.164062 551.136719 586.558594 Z M 641.117188 524.390625 C 636.777344 527.328125 631.472656 527.523438 629.078125 530.539062 C 633.007812 529.472656 644.082031 523.234375 641.117188 524.390625 Z M 676.632812 497.277344 C 679.421875 493.945312 687.492188 492.800781 687.679688 489.1875 C 674.113281 496.792969 652.359375 504.71875 640.070312 512.460938 C 652.6875 508.011719 666.949219 500.683594 678.394531 495.785156 C 677.6875 496.273438 676.4375 496.816406 676.632812 497.277344 Z M 1147.941406 236.238281 C 1139.273438 241.507812 1127.3125 247.011719 1120.6875 252.148438 C 1132.652344 246.199219 1140.683594 241.761719 1147.941406 236.238281 Z M 1054.941406 286.917969 C 1065.351562 280.511719 1075.667969 274 1084.214844 267.664062 C 1073.539062 274.152344 1062.835938 280.660156 1054.941406 286.917969 Z M 1169.886719 217.804688 C 1181.726562 213.949219 1192.0625 205.152344 1199.664062 206.390625 C 1221.449219 192.535156 1235.378906 184.160156 1246.613281 170.464844 C 1233.785156 181.035156 1210.398438 196.894531 1193.316406 202.078125 C 1192.730469 204.589844 1196.792969 200.480469 1197.027344 201.800781 C 1187.015625 208.015625 1177.792969 212.582031 1169.886719 217.804688 Z M 1313.546875 155.667969 C 1311.199219 155.660156 1303.417969 159.070312 1301.304688 161.519531 C 1305.035156 160.597656 1312.246094 157.757812 1313.546875 155.667969 Z M 1248.34375 177.964844 C 1248.675781 176.007812 1248.859375 174.074219 1250.160156 172.046875 C 1246.972656 173.425781 1246.875 174.550781 1244.539062 175.863281 C 1245.25 177.359375 1246.4375 178.179688 1248.34375 177.964844 Z M 1077.652344 276.746094 C 1074.476562 278.371094 1068.816406 279.234375 1066.546875 282.308594 C 1068.097656 283.714844 1076.777344 279.195312 1077.652344 276.746094 Z M 691.410156 489.054688 C 702.265625 482.148438 721.410156 474.261719 730.199219 468.355469 C 719.738281 473.144531 698.460938 482.703125 688.929688 489.152344 C 691.769531 487.496094 692.425781 487.476562 691.410156 489.054688 Z M 703.253906 477.582031 C 699.417969 477.800781 692.460938 482.398438 688.246094 485.332031 C 693.570312 481.839844 700.640625 480.152344 703.253906 477.582031 Z M 746.441406 460.484375 C 745.820312 459.882812 744.757812 461.269531 744.695312 462 C 748.691406 459.917969 752.683594 457.835938 756.679688 455.753906 C 758.378906 453.695312 749.238281 459.261719 746.441406 460.484375 Z M 1344.625 218.339844 C 1341.445312 219.394531 1337.328125 221.765625 1334.808594 224 C 1335.507812 224.683594 1337.101562 224.074219 1339.273438 222.636719 C 1339.386719 224.53125 1331.730469 226.359375 1332.664062 227.066406 C 1331.714844 227.0625 1331.578125 225.242188 1326.957031 228.527344 C 1330.183594 229.027344 1327.488281 235.40625 1321.5625 239.582031 C 1322.78125 239.78125 1325.09375 238.421875 1327.011719 237.664062 C 1328.398438 238.5 1325.5 239.710938 1324.867188 240.730469 C 1330.28125 240.953125 1339.175781 231.222656 1343.605469 232.34375 C 1342.984375 234.90625 1326.285156 242.75 1328.503906 244.730469 C 1323.289062 249.105469 1312.359375 252.324219 1306.410156 258.664062 C 1319.957031 251.921875 1335.195312 242.652344 1346.328125 239.289062 C 1346.074219 240.535156 1344.574219 240.398438 1343.390625 241 C 1342.285156 241.746094 1343.042969 242.300781 1343.207031 242.933594 C 1335.535156 247.109375 1332.226562 249.34375 1326.96875 251.089844 C 1322.753906 255.949219 1313.738281 261.222656 1304.414062 266.515625 C 1306.816406 263.683594 1317.847656 257.023438 1324.285156 253.257812 C 1309.921875 259.730469 1301.582031 267.28125 1286.890625 274.695312 C 1287.15625 275.113281 1288.285156 274.355469 1289.109375 274.019531 C 1288.042969 275.566406 1285.09375 277.25 1286.476562 278.59375 C 1256.992188 301.316406 1204.765625 328.222656 1172.695312 347.242188 C 1172.464844 346.769531 1173.699219 346.203125 1174.414062 345.675781 C 1167.164062 349.238281 1157.605469 356.429688 1147.660156 360.613281 C 1147.449219 360.066406 1147.917969 359.488281 1148.753906 358.890625 C 1133.84375 367.722656 1121.425781 376.707031 1103.757812 384.398438 C 1089.273438 390.71875 1107.605469 381.832031 1107.46875 381.75 C 1104.601562 380.199219 1090.109375 393.503906 1086.855469 393.746094 C 1086.71875 392.9375 1089.738281 391.941406 1089.347656 391.183594 C 1086.335938 391.636719 1084.816406 394.289062 1080.914062 397.046875 C 1080.871094 396.40625 1082.714844 395.625 1082.378906 395.027344 C 1063.808594 404.898438 1045.152344 415.640625 1026.3125 426.671875 C 1007.460938 437.683594 988.332031 448.820312 968.742188 459.359375 C 967.632812 461.558594 973.621094 457.886719 970.488281 460.210938 C 972.5625 460.1875 973.460938 458.167969 975.980469 458.429688 C 976.070312 459.546875 971.4375 460.945312 973.980469 461.921875 C 970.71875 462.546875 969.648438 460.242188 966.738281 460.417969 C 945.46875 468.582031 931.800781 482.058594 909.671875 493.386719 C 910.875 493.945312 913.027344 493.210938 915.425781 492.121094 C 916.042969 494.238281 900.390625 494.796875 900.390625 500.105469 C 887.355469 504.316406 878.78125 509.816406 865.03125 518.285156 C 864.71875 517.386719 863.257812 517.949219 863.050781 516.960938 C 860.125 518.855469 861.304688 520.5625 855.757812 522.597656 C 855.441406 521.636719 859 520.527344 859.277344 519.550781 C 850.382812 522.386719 842.210938 529.335938 833.390625 533.777344 C 834.917969 531.75 832.492188 533.078125 830.628906 533.425781 C 830.453125 534.410156 830.394531 534.476562 828.347656 536.414062 C 826.496094 537.011719 827.160156 535.65625 828.859375 534.957031 C 814.960938 541.296875 792.65625 554.113281 772.972656 565.335938 C 773.648438 566.316406 777.355469 563.324219 779.265625 562.664062 C 778.917969 563.398438 776.832031 564.820312 778.753906 564.121094 C 746.46875 580.890625 707.550781 600.238281 679.875 612.6875 C 681.621094 609.75 688.449219 606.617188 694.3125 603.519531 C 696.855469 602.0625 692.515625 603.421875 693.347656 601.628906 C 697.25 600.167969 698.300781 598.03125 700.414062 598.015625 C 701.777344 598.925781 695.480469 600.117188 696.84375 601.027344 C 699.164062 601.210938 701.222656 597.371094 704.445312 595.945312 C 695.394531 598.046875 682.679688 605.648438 674.707031 607.589844 C 673.5625 608.261719 674.285156 608.871094 674.425781 609.515625 C 666.492188 611.246094 652.632812 621.101562 642.039062 625.996094 C 657.226562 614.890625 682.484375 603.832031 697.480469 594.761719 C 689.496094 595.664062 683.007812 601.546875 677.8125 603.636719 C 676.488281 604.15625 674.609375 603.628906 674.058594 603.78125 C 672.921875 604.070312 673.703125 605.179688 673.546875 605.238281 C 671.847656 605.9375 670.371094 605.277344 668.792969 605.910156 C 662.527344 608.347656 657.546875 614.046875 647.777344 617.1875 C 648.230469 617.65625 649.832031 616.667969 651.054688 616.136719 C 645.953125 620.484375 643.207031 618.925781 636.871094 623.328125 C 637.285156 621.863281 648.992188 615.90625 655.613281 612.632812 C 650.339844 612.429688 642.285156 618.460938 635.90625 621.4375 C 638.265625 620.335938 628.839844 625.558594 634.660156 621.472656 C 637.1875 619.707031 651.6875 613.03125 655.1875 609.269531 C 656.25 610.601562 663.636719 605.132812 671.605469 601.488281 C 665.347656 602.53125 679.488281 596.628906 683.242188 594.335938 C 678.492188 595.414062 676.429688 594.675781 671.960938 597.152344 C 672.476562 595.53125 678.203125 593.710938 680.808594 592.03125 C 676.960938 592.796875 671.671875 595.449219 666.191406 598.328125 C 665.53125 597.71875 666.738281 597.042969 666.472656 596.402344 C 659.722656 600.976562 651.84375 603.023438 649.539062 605.640625 C 645.542969 605.289062 640.179688 606.683594 632.167969 611.492188 C 629.242188 612.152344 636.949219 608.496094 637.742188 607.480469 C 631.617188 608.703125 627.078125 611.28125 621.089844 614.730469 C 625.085938 609.644531 634.910156 607.394531 644.359375 602.949219 C 639.992188 601.605469 649.175781 601.769531 650.703125 597.941406 C 650.714844 598.410156 649.933594 598.941406 650.191406 599.398438 C 655.417969 597.476562 653.300781 595.789062 657.550781 593.878906 C 654.4375 594.769531 651.066406 596.722656 647.441406 599.011719 C 644.855469 599.542969 652.023438 595.714844 652.785156 594.53125 C 650.160156 594.484375 643.898438 598.625 641.65625 600.167969 C 644.765625 596.558594 638.125 600.535156 633.867188 602.320312 C 640.765625 597.503906 645.320312 597.039062 650.570312 592.671875 C 650.226562 591.949219 644.226562 595.027344 649.066406 592.25 C 641 595.035156 633.335938 600.183594 628.871094 602.5 C 631.191406 599.238281 633.699219 598.625 640.277344 594.933594 C 637.328125 593.742188 632.324219 599.960938 629.457031 598.628906 C 629.21875 597.53125 633.820312 596.246094 634.015625 595.125 C 628.515625 595.933594 619.042969 601.8125 611.324219 605.445312 C 614.890625 599.714844 627.1875 595.601562 634.140625 590.316406 C 631.667969 590.59375 622.679688 595.128906 621.019531 596.972656 C 617.074219 597.953125 622.378906 594.757812 624.566406 593.976562 C 617.757812 595.105469 619.363281 598.25 614.457031 599.105469 C 614.261719 597.347656 619.960938 595.417969 621.828125 593.613281 C 621.300781 593.121094 618.507812 594.527344 618.796875 595.15625 C 617.289062 593.597656 631.308594 587.414062 634.765625 584.085938 C 633.902344 583.054688 626.753906 588.894531 631.5 585.15625 C 627.410156 586.785156 627.652344 586.144531 622.945312 588.3125 C 630.164062 584.011719 628.816406 583.25 636.613281 580.207031 C 635.050781 580.132812 631.972656 581.984375 632.382812 579.382812 C 629.644531 580.601562 632.523438 581.613281 629.070312 582.851562 C 628.839844 582.382812 628.605469 581.914062 628.335938 581.429688 C 621.402344 584.71875 618.574219 586.902344 613.1875 589.101562 C 620.398438 583.828125 622.832031 582.179688 630.867188 578.9375 C 625.765625 578.765625 613.074219 585.847656 610.460938 588.703125 C 608.714844 588.355469 610.882812 587.644531 606.183594 590.277344 C 608.273438 588.191406 607.679688 588.207031 603.6875 590.351562 C 604.695312 588.363281 610.632812 586.582031 612.757812 585.738281 C 611.847656 582.363281 606.363281 587.835938 603.738281 587.953125 C 607.757812 584.273438 614 582.863281 617.382812 579.859375 C 615.902344 580.4375 611.496094 582.242188 607.0625 584.507812 C 611.316406 581.523438 615.898438 576.425781 621.246094 574.945312 C 618.699219 573.621094 613.929688 579.296875 609.679688 579.625 C 613.140625 575.570312 621.09375 574.332031 626.125 569.523438 C 624.644531 568.742188 622.15625 572.664062 619.832031 572.132812 C 620.742188 573.363281 610.722656 577.019531 607.480469 577.792969 C 619.1875 571.101562 625.578125 568.375 638.023438 560.515625 C 630.847656 564.15625 624.808594 565.363281 615.90625 569.371094 C 621.179688 568.945312 613.300781 571.277344 611.628906 570.949219 C 611.273438 572.410156 608.476562 573.917969 605.035156 575.464844 C 604.84375 575.003906 606.089844 574.464844 606.820312 573.960938 C 594.492188 578.46875 581.378906 586.261719 564.734375 593.410156 C 585.160156 580.917969 607.8125 572.960938 620.75 563.941406 C 597.53125 573.605469 584.828125 579.871094 554.988281 594.164062 C 566.390625 586.253906 584.921875 579.816406 596.652344 571.410156 C 598.375 571.042969 596.714844 572.261719 598.59375 572.785156 C 602.390625 569.617188 620.375 562.253906 627.828125 557.980469 C 627.375 557.507812 625.789062 558.523438 624.566406 559.050781 C 625.671875 556.503906 628.5 556.6875 632.390625 554.476562 C 628.96875 552.949219 622.144531 559.425781 614.785156 562.226562 C 615.238281 562.699219 616.824219 561.683594 618.046875 561.15625 C 617.453125 563.828125 611.527344 562.914062 612.007812 564.226562 C 608.789062 565.207031 612.523438 562.039062 614.320312 561.285156 C 613.027344 560.902344 610.214844 561.53125 613.351562 559.394531 C 612.480469 558.460938 609.71875 559.914062 608.378906 559.558594 C 607.703125 560.222656 606.992188 560.871094 605.601562 561.558594 C 602.570312 563.097656 599.5625 564.625 596.53125 566.167969 C 596.734375 564.726562 602.078125 563.121094 604.332031 561.605469 C 613.972656 553.832031 621.023438 550.984375 632.585938 542.449219 C 636.386719 543.070312 641.300781 536.867188 647.414062 534.261719 C 645.558594 535.082031 634.441406 537.171875 633.332031 541.460938 C 631.367188 542.027344 632.738281 540.6875 632.609375 540.0625 C 629.894531 542 629.445312 542.441406 627.355469 542.15625 C 625.863281 543.117188 628.660156 542.5625 626.839844 543.613281 C 624.554688 543.886719 622.519531 544.046875 615.8125 546.824219 C 615.832031 547.824219 617.046875 547.335938 618.304688 546.753906 C 599.269531 555.6875 579.75 565.617188 557.15625 575.882812 C 556.027344 574.777344 562.828125 573.460938 561.714844 572.378906 C 557.773438 572.976562 550.554688 577.78125 545.339844 580.007812 C 545.230469 582.1875 549.65625 578.664062 551.859375 577.902344 C 554.773438 577.34375 543.925781 582.792969 542.785156 582.453125 C 544.59375 578.5625 556.023438 574.429688 563.246094 570.414062 C 562.917969 571.074219 562.574219 571.707031 562.964844 572.34375 C 563.976562 571.835938 564.992188 571.332031 566.007812 570.824219 C 565.476562 569.761719 564.929688 570.199219 566.839844 567.449219 C 569.21875 565.644531 571.347656 569.160156 571.109375 565.910156 C 575.507812 564.265625 572.714844 566.90625 577.089844 565.277344 C 578.753906 561.46875 607.496094 550.917969 617.644531 542.921875 C 617.175781 545.082031 621.097656 541.621094 620.605469 543.792969 C 626.222656 539.125 628.023438 538.71875 634.445312 536.160156 C 636.488281 534.949219 632.34375 535.632812 634.492188 533.761719 C 632.8125 532.398438 628.902344 538.191406 629.003906 535.382812 C 632.734375 533.390625 631.949219 532.785156 633.542969 531.894531 C 635.242188 531.539062 636.316406 531.980469 636.757812 533.21875 C 640.03125 531.828125 640.5625 530.519531 641.046875 529.234375 C 637.273438 532.898438 640.523438 528.359375 635.789062 531.328125 C 635.785156 530.699219 637.609375 529.992188 637.320312 529.363281 C 634.417969 529.726562 629.148438 533.15625 625.804688 534.082031 C 634.46875 528.972656 648.253906 521.464844 648.699219 519.382812 C 648.589844 518.054688 654.363281 517.503906 650.179688 519.816406 C 651.859375 519.253906 657.660156 514.453125 662.757812 512.195312 C 661.152344 512.210938 659.277344 512.820312 660.792969 510.832031 C 656.109375 512.542969 657.496094 512.523438 654.007812 514.890625 C 654.335938 514.230469 654.675781 513.597656 654.289062 512.960938 C 651.261719 515.132812 652.773438 515.234375 649.261719 515.527344 C 672.566406 503.191406 705.429688 485.304688 728.683594 472.710938 C 729.425781 470.8125 732.769531 472.035156 735.160156 470.535156 C 739.050781 468.324219 733.183594 469.496094 737.421875 467.5625 C 745.953125 466.226562 776.527344 448.042969 791.597656 439.785156 C 778.078125 446.574219 766.753906 451.910156 754.160156 458.210938 C 773.75 445.519531 794.570312 436.886719 809.3125 425.050781 C 808.382812 426.550781 807.609375 427.996094 805.320312 429.5625 C 831.8125 417.210938 848.535156 405.339844 868.816406 395.296875 C 868.128906 394.355469 865.765625 395.617188 863.34375 397.007812 C 860.160156 397.148438 872.796875 392.402344 872.796875 390.757812 C 872.753906 395.996094 903.816406 374.953125 913.050781 372.777344 C 907.746094 373.316406 917.027344 370.546875 919.496094 368.121094 C 917.503906 370.722656 921.347656 368.316406 923.953125 366.917969 C 915.21875 368.117188 943.925781 356.546875 955.433594 349.273438 C 930.964844 360.269531 918.910156 366.394531 897.136719 378.917969 C 896.449219 377.183594 902.554688 375.753906 906.320312 372.1875 C 904.996094 371.855469 902.386719 373.191406 900.605469 373.464844 C 905.203125 368.894531 909.160156 372.113281 915.515625 367.855469 C 914.539062 367.582031 912.921875 368.140625 911.035156 369.070312 C 911.429688 368.25 913.058594 367.367188 912.28125 366.601562 C 930.644531 357.382812 949.402344 348.007812 968.417969 338.199219 C 987.386719 328.296875 1006.636719 317.945312 1025.871094 306.59375 C 1026.683594 306.296875 1027.507812 305.960938 1028.371094 305.636719 C 1030.242188 303.542969 1036.386719 301.171875 1039.6875 298.976562 C 1038.402344 300.929688 1032.929688 303.144531 1029.292969 305.246094 C 1040.246094 300.652344 1054.871094 292.109375 1069.050781 284.570312 C 1126.617188 253.851562 1178.71875 220.28125 1235.164062 186.773438 C 1235.078125 187.582031 1234.453125 188.4375 1232.75 189.359375 C 1246.136719 183.628906 1256.113281 174.019531 1266.625 166.894531 C 1265.1875 169.753906 1259.734375 172.90625 1256.226562 175.917969 C 1262.433594 173.039062 1273.546875 165.511719 1281.34375 160.828125 C 1276.109375 165.277344 1268.609375 169.925781 1260.640625 174.582031 C 1268.578125 174.617188 1280.421875 166.589844 1287.683594 165.078125 C 1285.75 165.46875 1287.96875 167.730469 1291.222656 166.699219 C 1291.492188 166.613281 1291.710938 166.550781 1291.917969 166.46875 C 1291.679688 166.664062 1291.492188 166.894531 1291.476562 167.15625 C 1291.480469 166.648438 1297.265625 166.914062 1293.773438 168.871094 C 1302.785156 164.609375 1310.996094 161.460938 1319.085938 158.539062 C 1311.710938 163.242188 1290.546875 169.449219 1289.578125 177.386719 C 1295.882812 177.835938 1302.554688 177.761719 1314.273438 170.464844 C 1315.285156 170.972656 1315.867188 172.070312 1317.554688 171.628906 C 1317.863281 172.464844 1313.1875 173.507812 1310.714844 175.589844 C 1309.902344 176.457031 1310.332031 177.226562 1308.3125 178.199219 C 1309.765625 179.15625 1312.589844 178.203125 1314.789062 178.109375 C 1313.058594 180.058594 1304.679688 180.078125 1306.523438 184.101562 C 1307.40625 185.34375 1311.089844 182.585938 1313.910156 181.066406 C 1314.355469 182.144531 1312.03125 183.480469 1309.546875 184.808594 C 1311.566406 186.492188 1314.625 186.070312 1311.925781 188.941406 C 1318.550781 188.550781 1319.359375 187.335938 1325.792969 185.816406 C 1324.875 187.628906 1319.058594 189.402344 1316.71875 190.429688 C 1315.988281 191.441406 1315.269531 192.472656 1314.574219 193.496094 C 1317.25 193.859375 1322.121094 188.539062 1323.632812 188.859375 C 1323.925781 189.550781 1324.230469 190.265625 1325.414062 189.664062 C 1323.601562 191.914062 1318.304688 192.070312 1314.097656 194.964844 C 1314.667969 195.46875 1318.640625 193.460938 1314.609375 195.878906 C 1316.484375 195.996094 1320.753906 192.65625 1322.976562 192.265625 C 1321.039062 193.949219 1316.441406 197.222656 1312.746094 199.386719 C 1312.773438 201.015625 1315.28125 199.105469 1316.464844 199.074219 C 1318.636719 197.917969 1319.371094 196.90625 1318.609375 196.007812 C 1322.855469 195.269531 1324.53125 196.511719 1328.292969 194.6875 C 1330.738281 194.925781 1324.492188 198.082031 1328.109375 196.621094 C 1326.414062 200.324219 1310.835938 206.210938 1308.324219 209.863281 C 1314.070312 207.96875 1319.308594 202.222656 1326.476562 200.605469 C 1324.195312 203.9375 1316.085938 206.585938 1308.117188 211.8125 C 1312.316406 210.882812 1316.554688 210.308594 1317.363281 211.972656 C 1317.421875 212.761719 1315.132812 213.757812 1313.691406 214.691406 C 1316.777344 216.410156 1324.277344 211.824219 1331.6875 207.355469 C 1331.980469 208.046875 1332.269531 208.734375 1333.46875 208.160156 C 1331.800781 209.757812 1329.109375 210.949219 1324.898438 213.722656 C 1325.609375 214.648438 1329.171875 211.515625 1331.042969 210.78125 C 1331.214844 212.046875 1326.324219 213.777344 1324.4375 215.214844 L 1323.644531 213.855469 C 1321.03125 215.351562 1318.429688 216.875 1315.792969 218.382812 C 1316.703125 219.613281 1320.382812 216.851562 1323.179688 215.347656 C 1323.785156 219.308594 1330.148438 217.320312 1334.132812 213.917969 C 1335.421875 213.734375 1335.414062 215.414062 1337.875 213.589844 C 1336.890625 215.058594 1335.320312 216.378906 1339.398438 213.9375 C 1339.632812 214.40625 1338.398438 214.972656 1337.691406 215.523438 C 1338.707031 216.316406 1342.921875 212.53125 1344.09375 213.042969 C 1337.382812 216.269531 1329.957031 221.726562 1324.027344 225.839844 C 1326.921875 225.863281 1330.96875 221.726562 1333.839844 220.179688 C 1334.230469 221.101562 1330.789062 222.367188 1331.695312 223.25 C 1335.617188 224.085938 1345.230469 215.1875 1348.925781 214.539062 C 1360.296875 208.609375 1346.3125 216.320312 1344.625 218.339844 Z M 663.136719 587.398438 C 661.933594 585.703125 652.503906 591.714844 650.789062 593.121094 C 649.636719 594.902344 659.71875 588.875 663.136719 587.398438 Z M 645.09375 524.753906 L 638.050781 528.355469 L 638.539062 529.28125 C 640.671875 527.769531 646.8125 526.128906 645.09375 524.753906 Z M 654.992188 529.191406 C 652.335938 530.554688 648.9375 531.953125 649.453125 533.214844 C 651.359375 531.863281 656.804688 530.390625 654.992188 529.191406 Z M 656.09375 521.496094 C 653.757812 522.867188 644.402344 526.972656 647.292969 526.585938 C 651.585938 523.960938 654.96875 524.179688 656.09375 521.496094 Z M 670.285156 521.949219 C 667.007812 520.847656 660.222656 527.558594 657.707031 529.570312 C 663.792969 526.976562 663.804688 524.570312 670.285156 521.949219 Z M 976.664062 452.640625 C 974.675781 453.726562 972.683594 454.808594 970.65625 455.882812 C 970.820312 456.171875 970.996094 456.484375 971.144531 456.808594 C 973.097656 455.429688 978.523438 453.8125 976.664062 452.640625 Z M 995.265625 325.742188 C 1000.058594 322.707031 1003.480469 321.800781 1006.410156 320.253906 C 1023.9375 311.058594 993.945312 324.742188 995.265625 325.742188 Z M 1034.300781 305.535156 C 1035.5 304.957031 1037.058594 303.894531 1037.511719 304.367188 C 1050.257812 296.875 1043.195312 298.96875 1034.300781 305.535156 Z M 1082.898438 279.273438 C 1079.050781 280.765625 1070.601562 285.753906 1071.101562 285.855469 C 1072.375 286.089844 1079.695312 281.921875 1082.898438 279.273438 Z M 779.933594 439.371094 C 778.453125 440.007812 777.847656 439.496094 776.449219 439.996094 C 777.550781 441.054688 772.976562 442.386719 773.1875 443.5 C 775.128906 442.15625 780.054688 440.660156 779.933594 439.371094 Z M 1049.996094 289.625 C 1045.792969 292.296875 1040.640625 295.027344 1037.695312 297.628906 C 1042.699219 294.917969 1047.839844 292.164062 1049.996094 289.625 Z M 1291.953125 166.476562 C 1295.777344 165.21875 1293.085938 165.558594 1291.953125 166.476562 Z M 1328.59375 201.945312 C 1327.175781 201.792969 1316.121094 208.179688 1318.804688 207.59375 C 1322.277344 204.917969 1327.882812 203.449219 1328.59375 201.945312 Z M 1337.835938 202.105469 C 1334.460938 202.640625 1330.632812 207.566406 1326.792969 207.886719 C 1327.347656 207.578125 1327.683594 206.882812 1326.535156 207.429688 C 1323.46875 211.960938 1336.675781 203.707031 1337.835938 202.105469 Z M 1292.46875 280.070312 C 1296.90625 276.855469 1307 273.503906 1306.257812 272.179688 C 1301.589844 275.429688 1295.417969 276.519531 1292.46875 280.070312 Z M 1241.03125 313.644531 C 1253.1875 306.734375 1267.769531 300.933594 1277.363281 294.824219 C 1266.984375 299.253906 1252.082031 305.554688 1241.03125 313.644531 Z M 622.804688 545.625 C 619.585938 547.964844 615.367188 550.328125 613.707031 552.621094 C 618.675781 550.183594 627.5 546.089844 624.785156 547.011719 C 620.734375 549.21875 624.613281 546.253906 622.804688 545.625 Z M 1336.59375 256.566406 C 1338.695312 255.230469 1339.941406 255.132812 1340.339844 256.238281 C 1342.800781 254.414062 1346.382812 252.5 1347.675781 250.796875 C 1343.933594 253.273438 1338.949219 253.253906 1336.59375 256.566406 Z M 615.421875 588.511719 C 610.621094 593.734375 607.339844 590.480469 603.355469 592.242188 C 604.847656 593.777344 615.277344 592.605469 615.421875 588.511719 Z M 578.636719 583.40625 C 575.46875 584.929688 571.25 585.996094 571.039062 588.390625 C 574.621094 586.699219 577.464844 585.042969 578.636719 583.40625 Z M 573.699219 571.097656 C 583.523438 567.265625 583.855469 564.011719 573.699219 571.097656 Z M 581.132812 573.28125 C 593.394531 567.355469 594.277344 566.894531 602.8125 561.097656 C 592.355469 566.296875 586.652344 568.039062 581.132812 573.28125 Z M 603.925781 555.796875 C 600.535156 554.664062 593.617188 561.765625 590.832031 562.441406 C 595.179688 561.835938 598.351562 557.941406 603.925781 555.796875 Z M 907.085938 505.550781 C 910.546875 503.925781 917.820312 501.367188 920.117188 498.625 C 916.246094 499.6875 909.273438 502.335938 907.085938 505.550781 Z M 582.980469 609.636719 C 583.910156 609.652344 593.664062 603.492188 592.632812 603.625 C 589.332031 605.761719 588.09375 605.253906 586.089844 605.746094 C 585.789062 607.019531 583.234375 607.597656 585.785156 607.6875 C 584.636719 608.296875 582.878906 609 582.980469 609.636719 Z M 624.664062 599.230469 C 611.855469 606.503906 604.765625 609.847656 598.335938 614.9375 C 609.140625 609.289062 618.921875 603.460938 624.664062 599.230469 Z M 575.550781 597.398438 C 579.273438 595.785156 587.058594 593.066406 589.6875 590.296875 C 584.582031 593.503906 577.707031 594.292969 575.550781 597.398438 Z M 584.566406 625.40625 C 588.433594 622.636719 593.066406 622.820312 594.679688 620.335938 C 592.433594 621.183594 582.414062 625.125 584.566406 625.40625 Z M 599.171875 611.5625 C 605.136719 608.25 608.101562 607.09375 610.039062 605.46875 C 608.078125 606.316406 610.226562 604.386719 608.5625 605.03125 C 609.402344 605.574219 603.433594 608.601562 603.5 607.585938 C 604.066406 607.300781 604.441406 606.613281 603.265625 607.117188 C 603.59375 608.546875 599.4375 610.117188 599.171875 611.5625 Z M 605.375 581.15625 C 604.535156 580.613281 597.382812 584.242188 597.304688 585.234375 C 599.804688 583.644531 605.976562 583.695312 605.375 581.15625 Z M 610.351562 580.988281 C 610.492188 580.277344 610.984375 579.242188 610.117188 580.519531 C 607.085938 582.628906 602.261719 583.910156 601.816406 584.128906 C 583.414062 593.402344 598.59375 587.925781 610.351562 580.988281 Z M 1205.367188 331.328125 C 1203.917969 332.867188 1199.660156 334.65625 1198.949219 336.160156 C 1201.054688 335.957031 1206.152344 332.785156 1205.367188 331.328125 Z M 1162.109375 358.644531 C 1164.324219 357.054688 1169.628906 355.21875 1169.796875 353.765625 C 1166.714844 354.765625 1163.4375 356.605469 1162.109375 358.644531 Z M 782.234375 563.496094 C 784.308594 561.542969 792.734375 557.925781 790.042969 558.835938 C 787.425781 559.195312 780.828125 562.734375 782.234375 563.496094 Z M 603.226562 619.589844 C 605.355469 617.734375 612.71875 614.710938 610.074219 615.53125 C 607.96875 615.449219 602.308594 617.609375 603.226562 619.589844 Z M 622.226562 606.980469 C 618.644531 609.179688 611.851562 611.46875 610.332031 613.617188 C 613.9375 611.40625 620.730469 609.113281 622.226562 606.980469 Z M 622.226562 606.980469 " clip-rule="nonzero"/></clipPath><linearGradient x1="-7.37309" gradientTransform="matrix(2.410189, -1.351063, 1.348141, 2.404975, 513.034302, 571.536385)" y1="24.660999" x2="341.080359" gradientUnits="userSpaceOnUse" y2="24.660999" id="id5"><stop stop-opacity="1" stop-color="rgb(0%, 21.998596%, 100%)" offset="0"/><stop stop-opacity="1" stop-color="rgb(0%, 21.998596%, 100%)" offset="0.25"/><stop stop-opacity="1" stop-color="rgb(0%, 21.998596%, 100%)" offset="0.3125"/><stop stop-opacity="1" stop-color="rgb(0.012207%, 22.096252%, 100%)" offset="0.328125"/><stop stop-opacity="1" stop-color="rgb(0.0762939%, 22.554016%, 100%)" offset="0.332031"/><stop stop-opacity="1" stop-color="rgb(0.126648%, 22.914124%, 100%)" offset="0.335937"/><stop stop-opacity="1" stop-color="rgb(0.177002%, 23.272705%, 100%)" offset="0.339844"/><stop stop-opacity="1" stop-color="rgb(0.227356%, 23.632812%, 100%)" offset="0.34375"/><stop stop-opacity="1" stop-color="rgb(0.27771%, 23.991394%, 100%)" offset="0.347656"/><stop stop-opacity="1" stop-color="rgb(0.328064%, 24.351501%, 100%)" offset="0.351562"/><stop stop-opacity="1" stop-color="rgb(0.376892%, 24.711609%, 100%)" offset="0.355469"/><stop stop-opacity="1" stop-color="rgb(0.427246%, 25.071716%, 100%)" offset="0.359375"/><stop stop-opacity="1" stop-color="rgb(0.4776%, 25.430298%, 100%)" offset="0.363281"/><stop stop-opacity="1" stop-color="rgb(0.527954%, 25.790405%, 100%)" offset="0.367187"/><stop stop-opacity="1" stop-color="rgb(0.578308%, 26.148987%, 100%)" offset="0.371094"/><stop stop-opacity="1" stop-color="rgb(0.628662%, 26.509094%, 100%)" offset="0.375"/><stop stop-opacity="1" stop-color="rgb(0.67749%, 26.867676%, 100%)" offset="0.378906"/><stop stop-opacity="1" stop-color="rgb(0.727844%, 27.227783%, 100%)" offset="0.382812"/><stop stop-opacity="1" stop-color="rgb(0.778198%, 27.586365%, 100%)" offset="0.386719"/><stop stop-opacity="1" stop-color="rgb(0.828552%, 27.946472%, 100%)" offset="0.390625"/><stop stop-opacity="1" stop-color="rgb(0.878906%, 28.30658%, 100%)" offset="0.394531"/><stop stop-opacity="1" stop-color="rgb(0.92926%, 28.666687%, 100%)" offset="0.398437"/><stop stop-opacity="1" stop-color="rgb(0.979614%, 29.025269%, 100%)" offset="0.402344"/><stop stop-opacity="1" stop-color="rgb(1.029968%, 29.385376%, 100%)" offset="0.40625"/><stop stop-opacity="1" stop-color="rgb(1.078796%, 29.743958%, 100%)" offset="0.410156"/><stop stop-opacity="1" stop-color="rgb(1.12915%, 30.104065%, 100%)" offset="0.414062"/><stop stop-opacity="1" stop-color="rgb(1.179504%, 30.462646%, 100%)" offset="0.417969"/><stop stop-opacity="1" stop-color="rgb(1.229858%, 30.822754%, 100%)" offset="0.421875"/><stop stop-opacity="1" stop-color="rgb(1.280212%, 31.181335%, 100%)" offset="0.425781"/><stop stop-opacity="1" stop-color="rgb(1.330566%, 31.541443%, 100%)" offset="0.429687"/><stop stop-opacity="1" stop-color="rgb(1.379395%, 31.90155%, 100%)" offset="0.433594"/><stop stop-opacity="1" stop-color="rgb(1.429749%, 32.261658%, 100%)" offset="0.4375"/><stop stop-opacity="1" stop-color="rgb(1.480103%, 32.620239%, 100%)" offset="0.441406"/><stop stop-opacity="1" stop-color="rgb(1.530457%, 32.980347%, 100%)" offset="0.445312"/><stop stop-opacity="1" stop-color="rgb(1.580811%, 33.338928%, 100%)" offset="0.449219"/><stop stop-opacity="1" stop-color="rgb(1.631165%, 33.699036%, 100%)" offset="0.453125"/><stop stop-opacity="1" stop-color="rgb(1.679993%, 34.057617%, 100%)" offset="0.457031"/><stop stop-opacity="1" stop-color="rgb(1.730347%, 34.417725%, 100%)" offset="0.460937"/><stop stop-opacity="1" stop-color="rgb(1.780701%, 34.776306%, 100%)" offset="0.464844"/><stop stop-opacity="1" stop-color="rgb(1.831055%, 35.136414%, 100%)" offset="0.46875"/><stop stop-opacity="1" stop-color="rgb(1.881409%, 35.494995%, 100%)" offset="0.472656"/><stop stop-opacity="1" stop-color="rgb(1.931763%, 35.855103%, 100%)" offset="0.476562"/><stop stop-opacity="1" stop-color="rgb(1.982117%, 36.21521%, 100%)" offset="0.480469"/><stop stop-opacity="1" stop-color="rgb(2.032471%, 36.575317%, 100%)" offset="0.484375"/><stop stop-opacity="1" stop-color="rgb(2.081299%, 36.933899%, 100%)" offset="0.488281"/><stop stop-opacity="1" stop-color="rgb(2.131653%, 37.294006%, 100%)" offset="0.492187"/><stop stop-opacity="1" stop-color="rgb(2.182007%, 37.652588%, 100%)" offset="0.496094"/><stop stop-opacity="1" stop-color="rgb(2.232361%, 38.012695%, 100%)" offset="0.5"/><stop stop-opacity="1" stop-color="rgb(2.282715%, 38.371277%, 100%)" offset="0.503906"/><stop stop-opacity="1" stop-color="rgb(2.333069%, 38.731384%, 100%)" offset="0.507812"/><stop stop-opacity="1" stop-color="rgb(2.381897%, 39.089966%, 100%)" offset="0.511719"/><stop stop-opacity="1" stop-color="rgb(2.432251%, 39.450073%, 100%)" offset="0.515625"/><stop stop-opacity="1" stop-color="rgb(2.482605%, 39.810181%, 100%)" offset="0.519531"/><stop stop-opacity="1" stop-color="rgb(2.532959%, 40.170288%, 100%)" offset="0.523438"/><stop stop-opacity="1" stop-color="rgb(2.583313%, 40.52887%, 100%)" offset="0.527344"/><stop stop-opacity="1" stop-color="rgb(2.633667%, 40.888977%, 100%)" offset="0.53125"/><stop stop-opacity="1" stop-color="rgb(2.684021%, 41.247559%, 100%)" offset="0.535156"/><stop stop-opacity="1" stop-color="rgb(2.734375%, 41.607666%, 100%)" offset="0.539062"/><stop stop-opacity="1" stop-color="rgb(2.783203%, 41.966248%, 100%)" offset="0.542969"/><stop stop-opacity="1" stop-color="rgb(2.833557%, 42.326355%, 100%)" offset="0.546875"/><stop stop-opacity="1" stop-color="rgb(2.883911%, 42.684937%, 100%)" offset="0.550781"/><stop stop-opacity="1" stop-color="rgb(2.934265%, 43.045044%, 100%)" offset="0.554687"/><stop stop-opacity="1" stop-color="rgb(2.984619%, 43.405151%, 100%)" offset="0.558594"/><stop stop-opacity="1" stop-color="rgb(3.034973%, 43.765259%, 100%)" offset="0.5625"/><stop stop-opacity="1" stop-color="rgb(3.083801%, 44.12384%, 100%)" offset="0.566406"/><stop stop-opacity="1" stop-color="rgb(3.134155%, 44.483948%, 100%)" offset="0.570312"/><stop stop-opacity="1" stop-color="rgb(3.184509%, 44.842529%, 100%)" offset="0.574219"/><stop stop-opacity="1" stop-color="rgb(3.234863%, 45.202637%, 100%)" offset="0.578125"/><stop stop-opacity="1" stop-color="rgb(3.285217%, 45.561218%, 100%)" offset="0.582031"/><stop stop-opacity="1" stop-color="rgb(3.335571%, 45.921326%, 100%)" offset="0.585937"/><stop stop-opacity="1" stop-color="rgb(3.385925%, 46.279907%, 100%)" offset="0.589844"/><stop stop-opacity="1" stop-color="rgb(3.436279%, 46.640015%, 100%)" offset="0.59375"/><stop stop-opacity="1" stop-color="rgb(3.485107%, 46.998596%, 100%)" offset="0.597656"/><stop stop-opacity="1" stop-color="rgb(3.535461%, 47.358704%, 100%)" offset="0.601562"/><stop stop-opacity="1" stop-color="rgb(3.585815%, 47.718811%, 100%)" offset="0.605469"/><stop stop-opacity="1" stop-color="rgb(3.636169%, 48.078918%, 100%)" offset="0.609375"/><stop stop-opacity="1" stop-color="rgb(3.686523%, 48.4375%, 100%)" offset="0.613281"/><stop stop-opacity="1" stop-color="rgb(3.736877%, 48.797607%, 100%)" offset="0.617187"/><stop stop-opacity="1" stop-color="rgb(3.785706%, 49.156189%, 100%)" offset="0.621094"/><stop stop-opacity="1" stop-color="rgb(3.83606%, 49.516296%, 100%)" offset="0.625"/><stop stop-opacity="1" stop-color="rgb(3.886414%, 49.874878%, 100%)" offset="0.628906"/><stop stop-opacity="1" stop-color="rgb(3.936768%, 50.234985%, 100%)" offset="0.632812"/><stop stop-opacity="1" stop-color="rgb(3.987122%, 50.593567%, 100%)" offset="0.636719"/><stop stop-opacity="1" stop-color="rgb(4.037476%, 50.953674%, 100%)" offset="0.640625"/><stop stop-opacity="1" stop-color="rgb(4.08783%, 51.313782%, 100%)" offset="0.644531"/><stop stop-opacity="1" stop-color="rgb(4.138184%, 51.673889%, 100%)" offset="0.648438"/><stop stop-opacity="1" stop-color="rgb(4.187012%, 52.032471%, 100%)" offset="0.652344"/><stop stop-opacity="1" stop-color="rgb(4.237366%, 52.392578%, 100%)" offset="0.65625"/><stop stop-opacity="1" stop-color="rgb(4.28772%, 52.75116%, 100%)" offset="0.660156"/><stop stop-opacity="1" stop-color="rgb(4.338074%, 53.111267%, 100%)" offset="0.664062"/><stop stop-opacity="1" stop-color="rgb(4.388428%, 53.469849%, 100%)" offset="0.667969"/><stop stop-opacity="1" stop-color="rgb(4.438782%, 53.829956%, 100%)" offset="0.671875"/><stop stop-opacity="1" stop-color="rgb(4.48761%, 54.188538%, 100%)" offset="0.675781"/><stop stop-opacity="1" stop-color="rgb(4.537964%, 54.548645%, 100%)" offset="0.679687"/><stop stop-opacity="1" stop-color="rgb(4.588318%, 54.908752%, 100%)" offset="0.683594"/><stop stop-opacity="1" stop-color="rgb(4.638672%, 55.26886%, 100%)" offset="0.6875"/><stop stop-opacity="1" stop-color="rgb(4.689026%, 55.627441%, 100%)" offset="0.691406"/><stop stop-opacity="1" stop-color="rgb(4.73938%, 55.987549%, 100%)" offset="0.695312"/><stop stop-opacity="1" stop-color="rgb(4.788208%, 56.34613%, 100%)" offset="0.699219"/><stop stop-opacity="1" stop-color="rgb(4.838562%, 56.706238%, 100%)" offset="0.703125"/><stop stop-opacity="1" stop-color="rgb(4.888916%, 57.064819%, 100%)" offset="0.707031"/><stop stop-opacity="1" stop-color="rgb(4.93927%, 57.424927%, 100%)" offset="0.710937"/><stop stop-opacity="1" stop-color="rgb(4.989624%, 57.783508%, 100%)" offset="0.714844"/><stop stop-opacity="1" stop-color="rgb(5.039978%, 58.143616%, 100%)" offset="0.71875"/><stop stop-opacity="1" stop-color="rgb(5.090332%, 58.502197%, 100%)" offset="0.722656"/><stop stop-opacity="1" stop-color="rgb(5.140686%, 58.862305%, 100%)" offset="0.726562"/><stop stop-opacity="1" stop-color="rgb(5.189514%, 59.222412%, 100%)" offset="0.730469"/><stop stop-opacity="1" stop-color="rgb(5.239868%, 59.58252%, 100%)" offset="0.734375"/><stop stop-opacity="1" stop-color="rgb(5.290222%, 59.941101%, 100%)" offset="0.738281"/><stop stop-opacity="1" stop-color="rgb(5.340576%, 60.301208%, 100%)" offset="0.742187"/><stop stop-opacity="1" stop-color="rgb(5.39093%, 60.65979%, 100%)" offset="0.746094"/><stop stop-opacity="1" stop-color="rgb(5.441284%, 61.019897%, 100%)" offset="0.75"/><stop stop-opacity="1" stop-color="rgb(5.490112%, 61.378479%, 100%)" offset="0.753906"/><stop stop-opacity="1" stop-color="rgb(5.540466%, 61.738586%, 100%)" offset="0.757812"/><stop stop-opacity="1" stop-color="rgb(5.59082%, 62.097168%, 100%)" offset="0.761719"/><stop stop-opacity="1" stop-color="rgb(5.641174%, 62.457275%, 100%)" offset="0.765625"/><stop stop-opacity="1" stop-color="rgb(5.691528%, 62.817383%, 100%)" offset="0.769531"/><stop stop-opacity="1" stop-color="rgb(5.741882%, 63.17749%, 100%)" offset="0.773438"/><stop stop-opacity="1" stop-color="rgb(5.792236%, 63.536072%, 100%)" offset="0.777344"/><stop stop-opacity="1" stop-color="rgb(5.84259%, 63.896179%, 100%)" offset="0.78125"/><stop stop-opacity="1" stop-color="rgb(5.891418%, 64.254761%, 100%)" offset="0.785156"/><stop stop-opacity="1" stop-color="rgb(5.941772%, 64.614868%, 100%)" offset="0.789062"/><stop stop-opacity="1" stop-color="rgb(5.992126%, 64.97345%, 100%)" offset="0.792969"/><stop stop-opacity="1" stop-color="rgb(6.04248%, 65.333557%, 100%)" offset="0.796875"/><stop stop-opacity="1" stop-color="rgb(6.092834%, 65.692139%, 100%)" offset="0.800781"/><stop stop-opacity="1" stop-color="rgb(6.143188%, 66.052246%, 100%)" offset="0.804687"/><stop stop-opacity="1" stop-color="rgb(6.192017%, 66.412354%, 100%)" offset="0.808594"/><stop stop-opacity="1" stop-color="rgb(6.242371%, 66.772461%, 100%)" offset="0.8125"/><stop stop-opacity="1" stop-color="rgb(6.292725%, 67.131042%, 100%)" offset="0.816406"/><stop stop-opacity="1" stop-color="rgb(6.343079%, 67.49115%, 100%)" offset="0.820312"/><stop stop-opacity="1" stop-color="rgb(6.393433%, 67.849731%, 100%)" offset="0.824219"/><stop stop-opacity="1" stop-color="rgb(6.443787%, 68.209839%, 100%)" offset="0.828125"/><stop stop-opacity="1" stop-color="rgb(6.494141%, 68.56842%, 100%)" offset="0.832031"/><stop stop-opacity="1" stop-color="rgb(6.544495%, 68.928528%, 100%)" offset="0.835937"/><stop stop-opacity="1" stop-color="rgb(6.593323%, 69.287109%, 100%)" offset="0.839844"/><stop stop-opacity="1" stop-color="rgb(6.643677%, 69.647217%, 100%)" offset="0.84375"/><stop stop-opacity="1" stop-color="rgb(6.694031%, 70.007324%, 100%)" offset="0.847656"/><stop stop-opacity="1" stop-color="rgb(6.744385%, 70.367432%, 100%)" offset="0.851562"/><stop stop-opacity="1" stop-color="rgb(6.794739%, 70.726013%, 100%)" offset="0.855469"/><stop stop-opacity="1" stop-color="rgb(6.845093%, 71.086121%, 100%)" offset="0.859375"/><stop stop-opacity="1" stop-color="rgb(6.893921%, 71.444702%, 100%)" offset="0.863281"/><stop stop-opacity="1" stop-color="rgb(6.944275%, 71.80481%, 100%)" offset="0.867187"/><stop stop-opacity="1" stop-color="rgb(6.994629%, 72.163391%, 100%)" offset="0.871094"/><stop stop-opacity="1" stop-color="rgb(7.044983%, 72.523499%, 100%)" offset="0.875"/><stop stop-opacity="1" stop-color="rgb(7.095337%, 72.88208%, 100%)" offset="0.878906"/><stop stop-opacity="1" stop-color="rgb(7.145691%, 73.242188%, 100%)" offset="0.882812"/><stop stop-opacity="1" stop-color="rgb(7.196045%, 73.600769%, 100%)" offset="0.886719"/><stop stop-opacity="1" stop-color="rgb(7.246399%, 73.960876%, 100%)" offset="0.890625"/><stop stop-opacity="1" stop-color="rgb(7.295227%, 74.320984%, 100%)" offset="0.894531"/><stop stop-opacity="1" stop-color="rgb(7.345581%, 74.681091%, 100%)" offset="0.898438"/><stop stop-opacity="1" stop-color="rgb(7.395935%, 75.039673%, 100%)" offset="0.902344"/><stop stop-opacity="1" stop-color="rgb(7.446289%, 75.39978%, 100%)" offset="0.90625"/><stop stop-opacity="1" stop-color="rgb(7.496643%, 75.758362%, 100%)" offset="0.910156"/><stop stop-opacity="1" stop-color="rgb(7.546997%, 76.118469%, 100%)" offset="0.914062"/><stop stop-opacity="1" stop-color="rgb(7.595825%, 76.477051%, 100%)" offset="0.917969"/><stop stop-opacity="1" stop-color="rgb(7.646179%, 76.837158%, 100%)" offset="0.921875"/><stop stop-opacity="1" stop-color="rgb(7.696533%, 77.19574%, 100%)" offset="0.925781"/><stop stop-opacity="1" stop-color="rgb(7.746887%, 77.555847%, 100%)" offset="0.929687"/><stop stop-opacity="1" stop-color="rgb(7.797241%, 77.915955%, 100%)" offset="0.933594"/><stop stop-opacity="1" stop-color="rgb(7.847595%, 78.276062%, 100%)" offset="0.9375"/><stop stop-opacity="1" stop-color="rgb(7.897949%, 78.634644%, 100%)" offset="0.941406"/><stop stop-opacity="1" stop-color="rgb(7.948303%, 78.994751%, 100%)" offset="0.945313"/><stop stop-opacity="1" stop-color="rgb(7.997131%, 79.353333%, 100%)" offset="0.949219"/><stop stop-opacity="1" stop-color="rgb(8.047485%, 79.71344%, 100%)" offset="0.953125"/><stop stop-opacity="1" stop-color="rgb(8.097839%, 80.072021%, 100%)" offset="0.957031"/><stop stop-opacity="1" stop-color="rgb(8.148193%, 80.432129%, 100%)" offset="0.960938"/><stop stop-opacity="1" stop-color="rgb(8.172607%, 80.615234%, 100%)" offset="0.96875"/><stop stop-opacity="1" stop-color="rgb(8.198547%, 80.799866%, 100%)" offset="1"/></linearGradient><clipPath id="id6"><path d="M 48 224 L 833 224 L 833 671 L 48 671 Z M 48 224 " clip-rule="nonzero"/></clipPath><clipPath id="id7"><path d="M 39.964844 615.273438 L 793.628906 192.796875 L 857.441406 306.632812 L 103.777344 729.109375 Z M 39.964844 615.273438 " clip-rule="nonzero"/></clipPath><clipPath id="id8"><path d="M 39.964844 615.273438 L 793.628906 192.796875 L 857.441406 306.632812 L 103.777344 729.109375 Z M 39.964844 615.273438 " clip-rule="nonzero"/></clipPath><clipPath id="id9"><path d="M 90.9375 602.382812 C 87.179688 605.058594 78.203125 608.804688 73.828125 610.957031 C 75.085938 608.519531 86.125 604.664062 90.9375 602.382812 Z M 58.585938 630.382812 C 63.25 626.871094 66.601562 627.203125 69.539062 623.765625 C 66.320312 625.957031 57.996094 628.261719 58.585938 630.382812 Z M 76.488281 597.332031 C 71.628906 599.847656 63.988281 602.035156 60.359375 605.417969 C 65.667969 603.007812 74.230469 600.121094 76.488281 597.332031 Z M 97.09375 640.6875 C 94.789062 643.234375 89.855469 643.492188 89.921875 645.425781 C 92.144531 643.851562 98.574219 642.160156 97.09375 640.6875 Z M 75.726562 619.515625 C 85.722656 614.125 98.855469 608.675781 106.855469 603.292969 L 90.726562 611.4375 C 86.109375 614.117188 78.402344 616.882812 75.726562 619.515625 Z M 121.554688 596.964844 C 120.300781 597.609375 120.289062 596.628906 119.203125 597.03125 C 120.867188 599.144531 115.082031 597.246094 114.683594 599.890625 C 117.085938 598.367188 120.464844 599.28125 121.554688 596.964844 Z M 76.375 642.140625 C 76.15625 641.695312 76.878906 641.230469 76.878906 640.75 C 74.90625 641.167969 65.808594 646.300781 67.820312 646.425781 C 69.027344 645.808594 68.855469 645.1875 70.457031 644.53125 C 72.558594 645.503906 90.613281 634.992188 76.375 642.140625 Z M 149.648438 563.074219 C 150.042969 563.570312 150.484375 563.980469 151.988281 562.988281 L 151.308594 561.667969 C 148.921875 562.792969 146.667969 563.9375 147.03125 564.960938 C 148.34375 564.316406 149.011719 563.699219 149.648438 563.074219 Z M 65.101562 660.117188 C 67.867188 658.386719 73.601562 656.578125 74.417969 654.894531 C 70.683594 656.0625 67.683594 657.53125 65.101562 660.117188 Z M 113.332031 661.085938 C 108.222656 663.953125 95.429688 669.417969 95.429688 670.644531 C 101.785156 666.425781 111.007812 664.871094 113.332031 661.085938 Z M 85.8125 620.621094 L 92.476562 617.273438 C 91.75 615.289062 86.378906 619.765625 85.8125 620.621094 Z M 59.125 617.226562 C 56.066406 619.121094 50 621.085938 48.886719 622.933594 C 51.96875 621.027344 58.011719 619.078125 59.125 617.226562 Z M 76.410156 630.375 C 73.113281 632.699219 66.636719 636.269531 67.347656 636.050781 C 76.441406 633.042969 89.902344 626.90625 96.117188 622.167969 C 94.597656 622.867188 92.839844 623.882812 92.804688 622.707031 C 85.222656 626.808594 82.433594 629.507812 74.96875 632.226562 C 76.105469 631.589844 77.148438 630.945312 76.410156 630.375 Z M 161.222656 571.742188 C 157.132812 574.511719 152.125 574.6875 149.871094 577.535156 C 153.578125 576.535156 164.019531 570.652344 161.222656 571.742188 Z M 194.695312 546.164062 C 197.320312 543.019531 204.933594 541.949219 205.109375 538.53125 C 192.316406 545.703125 171.804688 553.167969 160.21875 560.46875 C 172.117188 556.28125 185.5625 549.371094 196.351562 544.753906 C 195.6875 545.21875 194.511719 545.730469 194.695312 546.164062 Z M 639.011719 300.085938 C 630.835938 305.054688 619.558594 310.242188 613.316406 315.085938 C 624.597656 309.480469 632.167969 305.296875 639.011719 300.085938 Z M 551.332031 347.859375 C 561.148438 341.820312 570.875 335.679688 578.929688 329.699219 C 568.863281 335.820312 558.773438 341.953125 551.332031 347.859375 Z M 659.691406 282.695312 C 670.855469 279.066406 680.59375 270.765625 687.765625 271.945312 C 708.304688 258.882812 721.433594 250.984375 732.015625 238.058594 C 719.929688 248.03125 697.882812 262.988281 681.773438 267.863281 C 681.222656 270.234375 685.050781 266.355469 685.273438 267.605469 C 675.835938 273.464844 667.140625 277.769531 659.691406 282.695312 Z M 795.144531 224.160156 C 792.925781 224.148438 785.59375 227.363281 783.601562 229.671875 C 787.121094 228.808594 793.921875 226.132812 795.144531 224.160156 Z M 733.660156 245.144531 C 733.96875 243.296875 734.136719 241.46875 735.363281 239.558594 C 732.359375 240.855469 732.269531 241.917969 730.066406 243.15625 C 730.738281 244.570312 731.859375 245.347656 733.660156 245.144531 Z M 572.746094 338.277344 C 569.753906 339.804688 564.414062 340.617188 562.277344 343.515625 C 563.742188 344.847656 571.925781 340.589844 572.746094 338.277344 Z M 208.625 538.414062 C 218.859375 531.902344 236.910156 524.472656 245.195312 518.902344 C 235.332031 523.414062 215.265625 532.417969 206.285156 538.5 C 208.960938 536.941406 209.578125 536.921875 208.625 538.414062 Z M 219.785156 527.585938 C 216.167969 527.789062 209.609375 532.125 205.632812 534.890625 C 210.65625 531.597656 217.320312 530.011719 219.785156 527.585938 Z M 260.507812 511.484375 C 259.917969 510.914062 258.921875 512.222656 258.859375 512.914062 C 262.628906 510.953125 266.394531 508.988281 270.160156 507.027344 C 271.761719 505.085938 263.144531 510.332031 260.507812 511.484375 Z M 824.542969 283.421875 C 821.542969 284.414062 817.660156 286.648438 815.289062 288.757812 C 815.949219 289.402344 817.449219 288.828125 819.496094 287.472656 C 819.605469 289.265625 812.386719 290.980469 813.269531 291.652344 C 812.371094 291.648438 812.242188 289.925781 807.886719 293.023438 C 810.933594 293.5 808.394531 299.523438 802.808594 303.464844 C 803.960938 303.65625 806.140625 302.375 807.949219 301.660156 C 809.257812 302.449219 806.527344 303.59375 805.929688 304.554688 C 811.039062 304.769531 819.417969 295.589844 823.597656 296.652344 C 823.011719 299.074219 807.269531 306.464844 809.363281 308.335938 C 804.453125 312.464844 794.144531 315.492188 788.539062 321.476562 C 801.3125 315.121094 815.675781 306.382812 826.175781 303.21875 C 825.9375 304.398438 824.519531 304.265625 823.40625 304.832031 C 822.363281 305.535156 823.078125 306.058594 823.234375 306.660156 C 816.003906 310.59375 812.886719 312.699219 807.925781 314.34375 C 803.957031 318.929688 795.457031 323.90625 786.667969 328.890625 C 788.929688 326.21875 799.328125 319.941406 805.398438 316.390625 C 791.855469 322.488281 783.996094 329.613281 770.144531 336.601562 C 770.394531 336.996094 771.457031 336.28125 772.238281 335.964844 C 771.234375 337.425781 768.453125 339.011719 769.761719 340.28125 C 741.972656 361.71875 692.730469 387.078125 662.503906 405.011719 C 662.28125 404.566406 663.445312 404.03125 664.121094 403.535156 C 657.285156 406.890625 648.277344 413.671875 638.898438 417.613281 C 638.699219 417.097656 639.140625 416.550781 639.929688 415.988281 C 625.875 424.316406 614.171875 432.789062 597.511719 440.039062 C 583.855469 445.988281 601.140625 437.613281 601.007812 437.539062 C 598.300781 436.066406 584.644531 448.625 581.578125 448.847656 C 581.449219 448.085938 584.296875 447.144531 583.921875 446.429688 C 581.085938 446.851562 579.652344 449.359375 575.976562 451.960938 C 575.933594 451.355469 577.671875 450.621094 577.355469 450.050781 C 559.847656 459.355469 542.261719 469.484375 524.503906 479.886719 C 506.730469 490.265625 488.699219 500.765625 470.226562 510.699219 C 469.183594 512.78125 474.828125 509.316406 471.875 511.507812 C 473.835938 511.488281 474.675781 509.582031 477.058594 509.832031 C 477.144531 510.890625 472.773438 512.203125 475.171875 513.128906 C 472.097656 513.714844 471.085938 511.535156 468.339844 511.699219 C 448.28125 519.386719 435.40625 532.105469 414.542969 542.78125 C 415.679688 543.3125 417.710938 542.621094 419.96875 541.59375 C 420.554688 543.59375 405.789062 544.101562 405.796875 549.121094 C 393.503906 553.082031 385.421875 558.269531 372.460938 566.253906 C 372.164062 565.402344 370.789062 565.933594 370.589844 565 C 367.832031 566.785156 368.945312 568.402344 363.71875 570.316406 C 363.417969 569.40625 366.773438 568.363281 367.035156 567.441406 C 358.644531 570.109375 350.945312 576.667969 342.628906 580.851562 C 344.066406 578.941406 341.78125 580.191406 340.023438 580.519531 C 339.859375 581.449219 339.804688 581.507812 337.875 583.339844 C 336.125 583.898438 336.753906 582.621094 338.355469 581.960938 C 325.25 587.933594 304.222656 600.019531 285.667969 610.601562 C 286.308594 611.527344 289.800781 608.703125 291.601562 608.082031 C 291.273438 608.773438 289.308594 610.113281 291.121094 609.457031 C 260.683594 625.265625 223.992188 643.5 197.898438 655.226562 C 199.539062 652.453125 205.980469 649.503906 211.507812 646.582031 C 213.902344 645.210938 209.8125 646.488281 210.59375 644.792969 C 214.273438 643.417969 215.261719 641.398438 217.257812 641.386719 C 218.546875 642.25 212.601562 643.367188 213.890625 644.230469 C 216.082031 644.40625 218.019531 640.78125 221.058594 639.433594 C 212.523438 641.410156 200.535156 648.578125 193.015625 650.402344 C 191.9375 651.035156 192.617188 651.613281 192.753906 652.222656 C 185.273438 653.847656 172.207031 663.144531 162.222656 667.753906 C 176.535156 657.28125 200.347656 646.859375 214.484375 638.308594 C 206.953125 639.152344 200.839844 644.703125 195.941406 646.671875 C 194.691406 647.160156 192.917969 646.660156 192.402344 646.800781 C 191.328125 647.074219 192.066406 648.125 191.917969 648.179688 C 190.316406 648.835938 188.921875 648.214844 187.433594 648.808594 C 181.523438 651.105469 176.835938 656.484375 167.621094 659.4375 C 168.050781 659.882812 169.558594 658.949219 170.710938 658.453125 C 165.902344 662.550781 163.3125 661.074219 157.34375 665.230469 C 157.730469 663.847656 168.765625 658.226562 175.011719 655.144531 C 170.03125 654.949219 162.441406 660.636719 156.429688 663.441406 C 158.652344 662.402344 149.765625 667.324219 155.253906 663.472656 C 157.632812 661.808594 171.308594 655.519531 174.601562 651.96875 C 175.609375 653.226562 182.570312 648.070312 190.082031 644.636719 C 184.179688 645.613281 197.515625 640.050781 201.050781 637.886719 C 196.574219 638.902344 194.628906 638.203125 190.410156 640.535156 C 190.898438 639.007812 196.296875 637.292969 198.753906 635.707031 C 195.125 636.425781 190.136719 638.925781 184.96875 641.640625 C 184.347656 641.066406 185.484375 640.429688 185.234375 639.820312 C 178.871094 644.132812 171.441406 646.058594 169.269531 648.527344 C 165.5 648.191406 160.441406 649.503906 152.890625 654.035156 C 150.128906 654.65625 157.398438 651.210938 158.144531 650.253906 C 152.367188 651.398438 148.085938 653.828125 142.441406 657.082031 C 146.203125 652.285156 155.46875 650.167969 164.378906 645.980469 C 160.257812 644.703125 168.921875 644.871094 170.359375 641.253906 C 170.367188 641.695312 169.632812 642.199219 169.875 642.628906 C 174.804688 640.824219 172.804688 639.226562 176.8125 637.425781 C 173.878906 638.265625 170.699219 640.105469 167.28125 642.261719 C 164.84375 642.761719 171.601562 639.152344 172.316406 638.035156 C 169.84375 637.988281 163.9375 641.894531 161.828125 643.347656 C 164.757812 639.941406 158.496094 643.691406 154.480469 645.371094 C 160.984375 640.832031 165.277344 640.394531 170.226562 636.277344 C 169.902344 635.59375 164.242188 638.496094 168.808594 635.875 C 161.199219 638.496094 153.976562 643.351562 149.765625 645.535156 C 151.953125 642.457031 154.316406 641.878906 160.519531 638.402344 C 157.734375 637.273438 153.023438 643.140625 150.316406 641.878906 C 150.089844 640.839844 154.429688 639.632812 154.613281 638.574219 C 149.421875 639.332031 140.496094 644.871094 133.21875 648.296875 C 136.574219 642.886719 148.171875 639.015625 154.722656 634.027344 C 152.390625 634.289062 143.917969 638.5625 142.355469 640.304688 C 138.632812 641.226562 143.632812 638.214844 145.695312 637.476562 C 139.273438 638.535156 140.789062 641.507812 136.164062 642.308594 C 135.980469 640.648438 141.351562 638.832031 143.113281 637.128906 C 142.613281 636.664062 139.980469 637.988281 140.253906 638.582031 C 138.832031 637.109375 152.050781 631.28125 155.304688 628.140625 C 154.488281 627.164062 147.753906 632.675781 152.226562 629.152344 C 148.371094 630.683594 148.597656 630.078125 144.15625 632.121094 C 150.960938 628.066406 149.691406 627.34375 157.042969 624.476562 C 155.570312 624.40625 152.667969 626.152344 153.050781 623.695312 C 150.46875 624.84375 153.1875 625.804688 149.929688 626.972656 C 149.710938 626.527344 149.492188 626.082031 149.238281 625.625 C 142.699219 628.722656 140.035156 630.785156 134.953125 632.855469 C 141.75 627.878906 144.042969 626.324219 151.621094 623.273438 C 146.804688 623.101562 134.84375 629.78125 132.382812 632.472656 C 130.734375 632.144531 132.777344 631.476562 128.347656 633.960938 C 130.316406 631.988281 129.757812 632.003906 125.992188 634.023438 C 126.941406 632.144531 132.542969 630.472656 134.546875 629.675781 C 133.683594 626.484375 128.515625 631.652344 126.035156 631.757812 C 129.824219 628.289062 135.710938 626.960938 138.898438 624.128906 C 137.503906 624.671875 133.351562 626.371094 129.171875 628.503906 C 133.175781 625.691406 137.496094 620.878906 142.539062 619.488281 C 140.136719 618.234375 135.644531 623.589844 131.632812 623.894531 C 134.890625 620.066406 142.394531 618.910156 147.136719 614.371094 C 145.738281 613.628906 143.394531 617.335938 141.199219 616.832031 C 142.058594 617.992188 132.613281 621.433594 129.558594 622.160156 C 140.59375 615.855469 146.617188 613.285156 158.347656 605.871094 C 151.585938 609.304688 145.886719 610.4375 137.496094 614.214844 C 142.46875 613.816406 135.039062 616.011719 133.460938 615.699219 C 133.128906 617.082031 130.488281 618.5 127.246094 619.960938 C 127.0625 619.523438 128.238281 619.015625 128.929688 618.539062 C 117.304688 622.78125 104.941406 630.132812 89.246094 636.867188 C 108.503906 625.085938 129.863281 617.59375 142.054688 609.085938 C 120.164062 618.191406 108.1875 624.097656 80.054688 637.566406 C 90.800781 630.105469 108.277344 624.046875 119.332031 616.117188 C 120.957031 615.773438 119.390625 616.921875 121.164062 617.421875 C 124.742188 614.429688 141.699219 607.492188 148.726562 603.464844 C 148.296875 603.019531 146.804688 603.976562 145.648438 604.472656 C 146.691406 602.066406 149.359375 602.246094 153.027344 600.160156 C 149.796875 598.710938 143.367188 604.824219 136.425781 607.460938 C 136.855469 607.90625 138.347656 606.949219 139.503906 606.453125 C 138.949219 608.976562 133.355469 608.105469 133.808594 609.347656 C 130.773438 610.269531 134.292969 607.28125 135.988281 606.570312 C 134.769531 606.207031 132.113281 606.800781 135.074219 604.78125 C 134.25 603.898438 131.644531 605.269531 130.378906 604.933594 C 129.746094 605.558594 129.074219 606.171875 127.761719 606.816406 C 124.90625 608.269531 122.070312 609.710938 119.210938 611.164062 C 119.402344 609.800781 124.441406 608.292969 126.5625 606.863281 C 135.652344 599.527344 142.300781 596.84375 153.195312 588.792969 C 156.78125 589.386719 161.414062 583.53125 167.175781 581.078125 C 165.425781 581.847656 154.941406 583.8125 153.898438 587.863281 C 152.046875 588.394531 153.335938 587.132812 153.214844 586.542969 C 150.65625 588.367188 150.230469 588.78125 148.261719 588.511719 C 146.855469 589.417969 149.492188 588.898438 147.777344 589.890625 C 145.621094 590.140625 143.703125 590.289062 137.375 592.910156 C 137.398438 593.855469 138.542969 593.390625 139.730469 592.847656 C 121.785156 601.261719 103.378906 610.621094 82.074219 620.292969 C 81.011719 619.246094 87.425781 618.011719 86.375 616.988281 C 82.65625 617.546875 75.851562 622.078125 70.933594 624.175781 C 70.835938 626.234375 75.003906 622.914062 77.082031 622.195312 C 79.832031 621.671875 69.601562 626.808594 68.523438 626.484375 C 70.226562 622.808594 81.007812 618.917969 87.8125 615.132812 C 87.503906 615.753906 87.183594 616.355469 87.550781 616.953125 C 88.507812 616.476562 89.464844 616 90.421875 615.523438 C 89.917969 614.519531 89.402344 614.929688 91.203125 612.335938 C 93.441406 610.632812 95.457031 613.957031 95.226562 610.886719 C 99.375 609.339844 96.742188 611.832031 100.867188 610.296875 C 102.433594 606.699219 129.535156 596.765625 139.101562 589.222656 C 138.664062 591.261719 142.355469 587.996094 141.894531 590.046875 C 147.191406 585.644531 148.886719 585.261719 154.941406 582.855469 C 156.871094 581.714844 152.957031 582.351562 154.984375 580.589844 C 153.394531 579.296875 149.714844 584.769531 149.808594 582.113281 C 153.324219 580.234375 152.585938 579.660156 154.085938 578.820312 C 155.691406 578.488281 156.703125 578.910156 157.117188 580.078125 C 160.207031 578.769531 160.707031 577.53125 161.164062 576.320312 C 157.605469 579.777344 160.667969 575.488281 156.207031 578.289062 C 156.199219 577.695312 157.917969 577.03125 157.644531 576.4375 C 154.910156 576.777344 149.941406 580.007812 146.789062 580.878906 C 154.957031 576.0625 167.949219 568.984375 168.371094 567.015625 C 168.265625 565.761719 173.710938 565.25 169.765625 567.429688 C 171.351562 566.902344 176.816406 562.371094 181.625 560.246094 C 180.109375 560.257812 178.339844 560.832031 179.765625 558.953125 C 175.351562 560.5625 176.660156 560.546875 173.371094 562.78125 C 173.679688 562.160156 174 561.558594 173.632812 560.957031 C 170.78125 563.007812 172.207031 563.101562 168.898438 563.375 C 190.867188 551.746094 221.847656 534.886719 243.769531 523.015625 C 244.464844 521.222656 247.625 522.382812 249.878906 520.96875 C 253.546875 518.882812 248.011719 519.984375 252.007812 518.160156 C 260.054688 516.910156 288.875 499.765625 303.085938 491.980469 C 290.335938 498.378906 279.660156 503.40625 267.789062 509.34375 C 286.253906 497.378906 305.882812 489.246094 319.777344 478.078125 C 318.902344 479.496094 318.171875 480.863281 316.015625 482.339844 C 340.992188 470.699219 356.753906 459.503906 375.875 450.039062 C 375.226562 449.148438 372.996094 450.339844 370.714844 451.648438 C 367.710938 451.777344 379.628906 447.308594 379.625 445.757812 C 379.59375 450.707031 408.871094 430.859375 417.578125 428.816406 C 412.574219 429.316406 421.328125 426.714844 423.65625 424.421875 C 421.777344 426.878906 425.402344 424.609375 427.859375 423.289062 C 419.621094 424.414062 446.6875 413.515625 457.535156 406.65625 C 434.464844 417.015625 423.101562 422.789062 402.574219 434.597656 C 401.925781 432.957031 407.679688 431.613281 411.230469 428.25 C 409.976562 427.933594 407.519531 429.195312 405.839844 429.449219 C 410.171875 425.136719 413.910156 428.183594 419.898438 424.167969 C 418.976562 423.90625 417.449219 424.433594 415.671875 425.308594 C 416.042969 424.535156 417.578125 423.703125 416.84375 422.980469 C 434.160156 414.289062 451.84375 405.453125 469.773438 396.210938 C 487.652344 386.875 505.804688 377.117188 523.933594 366.417969 C 524.699219 366.136719 525.480469 365.820312 526.292969 365.511719 C 528.050781 363.539062 533.847656 361.308594 536.957031 359.234375 C 535.75 361.078125 530.589844 363.164062 527.160156 365.144531 C 537.488281 360.820312 551.277344 352.761719 564.640625 345.660156 C 618.910156 316.703125 668.027344 285.046875 721.238281 253.453125 C 721.15625 254.21875 720.566406 255.027344 718.960938 255.894531 C 731.582031 250.496094 740.980469 241.429688 750.890625 234.707031 C 749.539062 237.410156 744.398438 240.382812 741.089844 243.222656 C 746.945312 240.507812 757.417969 233.410156 764.769531 228.992188 C 759.835938 233.191406 752.765625 237.574219 745.253906 241.964844 C 752.746094 242.007812 763.90625 234.4375 770.757812 233.019531 C 768.929688 233.382812 771.027344 235.527344 774.097656 234.554688 C 774.347656 234.472656 774.554688 234.414062 774.75 234.335938 C 774.527344 234.523438 774.351562 234.738281 774.339844 234.984375 C 774.339844 234.507812 779.796875 234.765625 776.503906 236.613281 C 785.003906 232.59375 792.746094 229.628906 800.371094 226.878906 C 793.421875 231.3125 773.460938 237.152344 772.558594 244.652344 C 778.503906 245.082031 784.800781 245.023438 795.847656 238.144531 C 796.800781 238.625 797.351562 239.660156 798.941406 239.246094 C 799.238281 240.039062 794.828125 241.015625 792.496094 242.980469 C 791.730469 243.796875 792.136719 244.527344 790.234375 245.445312 C 791.605469 246.347656 794.269531 245.453125 796.34375 245.367188 C 794.714844 247.207031 786.808594 247.214844 788.550781 251.019531 C 789.390625 252.195312 792.859375 249.59375 795.519531 248.160156 C 795.941406 249.179688 793.75 250.4375 791.40625 251.691406 C 793.3125 253.28125 796.199219 252.890625 793.65625 255.601562 C 799.902344 255.238281 800.664062 254.09375 806.734375 252.664062 C 805.871094 254.375 800.386719 256.042969 798.179688 257.011719 C 797.492188 257.964844 796.816406 258.941406 796.160156 259.90625 C 798.683594 260.253906 803.273438 255.230469 804.699219 255.535156 C 804.976562 256.1875 805.265625 256.863281 806.382812 256.296875 C 804.675781 258.421875 799.675781 258.5625 795.714844 261.292969 C 796.25 261.769531 799.996094 259.878906 796.199219 262.15625 C 797.964844 262.273438 801.992188 259.117188 804.085938 258.75 C 802.257812 260.34375 797.925781 263.429688 794.441406 265.472656 C 794.46875 267.011719 796.832031 265.207031 797.953125 265.179688 C 800 264.089844 800.6875 263.136719 799.972656 262.28125 C 803.972656 261.59375 805.558594 262.765625 809.105469 261.050781 C 811.414062 261.277344 805.523438 264.25 808.933594 262.878906 C 807.339844 266.371094 792.652344 271.914062 790.285156 275.363281 C 795.703125 273.582031 800.636719 268.15625 807.398438 266.636719 C 805.25 269.785156 797.601562 272.277344 790.09375 277.207031 C 794.050781 276.332031 798.050781 275.792969 798.8125 277.367188 C 798.871094 278.113281 796.710938 279.054688 795.355469 279.933594 C 798.265625 281.5625 805.339844 277.238281 812.324219 273.023438 C 812.597656 273.675781 812.875 274.328125 814.003906 273.785156 C 812.429688 275.292969 809.894531 276.417969 805.925781 279.03125 C 806.597656 279.910156 809.957031 276.949219 811.71875 276.261719 C 811.882812 277.457031 807.269531 279.085938 805.492188 280.441406 L 804.742188 279.15625 C 802.277344 280.566406 799.828125 282 797.339844 283.425781 C 798.199219 284.585938 801.667969 281.984375 804.308594 280.566406 C 804.882812 284.308594 810.882812 282.4375 814.636719 279.230469 C 815.851562 279.054688 815.847656 280.640625 818.167969 278.921875 C 817.242188 280.308594 815.761719 281.558594 819.605469 279.253906 C 819.828125 279.695312 818.664062 280.230469 818 280.75 C 818.957031 281.5 822.925781 277.929688 824.035156 278.414062 C 817.707031 281.453125 810.707031 286.601562 805.117188 290.480469 C 807.847656 290.507812 811.664062 286.605469 814.371094 285.148438 C 814.738281 286.015625 811.496094 287.207031 812.351562 288.042969 C 816.050781 288.835938 825.109375 280.441406 828.59375 279.835938 C 839.3125 274.242188 826.128906 281.515625 824.542969 283.421875 Z M 182.074219 631.308594 C 180.9375 629.707031 172.050781 635.375 170.433594 636.699219 C 169.347656 638.382812 178.851562 632.699219 182.074219 631.308594 Z M 164.972656 572.089844 L 158.335938 575.484375 L 158.796875 576.359375 C 160.804688 574.933594 166.597656 573.390625 164.972656 572.089844 Z M 174.320312 576.296875 C 171.8125 577.582031 168.609375 578.898438 169.097656 580.089844 C 170.894531 578.816406 176.027344 577.429688 174.320312 576.296875 Z M 175.347656 569.023438 C 173.148438 570.316406 164.328125 574.1875 167.050781 573.824219 C 171.097656 571.347656 174.289062 571.558594 175.347656 569.023438 Z M 188.738281 569.46875 C 185.640625 568.425781 179.25 574.757812 176.878906 576.65625 C 182.617188 574.214844 182.625 571.9375 188.738281 569.46875 Z M 477.695312 504.363281 C 475.820312 505.382812 473.941406 506.40625 472.03125 507.417969 C 472.183594 507.691406 472.351562 507.984375 472.492188 508.292969 C 474.332031 506.996094 479.449219 505.46875 477.695312 504.363281 Z M 495.085938 384.472656 C 499.601562 381.609375 502.828125 380.757812 505.59375 379.296875 C 522.117188 370.632812 493.839844 383.527344 495.085938 384.472656 Z M 531.886719 365.425781 C 533.015625 364.882812 534.484375 363.878906 534.914062 364.328125 C 546.929688 357.261719 540.269531 359.230469 531.886719 365.425781 Z M 577.703125 340.667969 C 574.070312 342.078125 566.109375 346.78125 566.578125 346.875 C 567.777344 347.097656 574.683594 343.167969 577.703125 340.667969 Z M 292.078125 491.574219 C 290.683594 492.175781 290.113281 491.691406 288.792969 492.160156 C 289.832031 493.160156 285.515625 494.414062 285.71875 495.46875 C 287.546875 494.203125 292.195312 492.792969 292.078125 491.574219 Z M 546.671875 350.410156 C 542.710938 352.933594 537.851562 355.503906 535.078125 357.957031 C 539.796875 355.402344 544.640625 352.804688 546.671875 350.410156 Z M 774.785156 234.347656 C 778.390625 233.160156 775.851562 233.480469 774.785156 234.347656 Z M 809.398438 267.910156 C 808.058594 267.761719 797.640625 273.78125 800.167969 273.230469 C 803.441406 270.710938 808.730469 269.328125 809.398438 267.910156 Z M 818.117188 268.070312 C 814.933594 268.570312 811.328125 273.222656 807.703125 273.519531 C 808.226562 273.226562 808.546875 272.570312 807.460938 273.089844 C 804.574219 277.367188 817.023438 269.582031 818.117188 268.070312 Z M 775.414062 341.6875 C 779.597656 338.652344 789.117188 335.5 788.414062 334.25 C 784.011719 337.316406 778.195312 338.335938 775.414062 341.6875 Z M 726.929688 373.347656 C 738.390625 366.835938 752.136719 361.371094 761.183594 355.613281 C 751.398438 359.78125 737.34375 365.714844 726.929688 373.347656 Z M 143.972656 591.785156 C 140.9375 593.992188 136.964844 596.21875 135.398438 598.382812 C 140.082031 596.085938 148.402344 592.230469 145.84375 593.097656 C 142.023438 595.175781 145.679688 592.378906 143.972656 591.785156 Z M 817.015625 319.53125 C 818.996094 318.273438 820.167969 318.183594 820.546875 319.226562 C 822.867188 317.507812 826.246094 315.703125 827.460938 314.09375 C 823.933594 316.429688 819.234375 316.40625 817.015625 319.53125 Z M 137.0625 632.300781 C 132.539062 637.226562 129.441406 634.152344 125.683594 635.8125 C 127.09375 637.261719 136.933594 636.171875 137.0625 632.300781 Z M 102.351562 627.429688 C 99.363281 628.863281 95.386719 629.867188 95.191406 632.128906 C 98.566406 630.535156 101.246094 628.976562 102.351562 627.429688 Z M 97.675781 615.792969 C 106.941406 612.183594 107.25 609.109375 97.675781 615.792969 Z M 104.695312 617.867188 C 116.253906 612.28125 117.085938 611.847656 125.128906 606.378906 C 115.273438 611.277344 109.894531 612.917969 104.695312 617.867188 Z M 126.175781 601.371094 C 122.972656 600.296875 116.457031 606.996094 113.828125 607.632812 C 117.929688 607.070312 120.917969 603.390625 126.175781 601.371094 Z M 412.117188 554.273438 C 415.382812 552.742188 422.242188 550.332031 424.40625 547.746094 C 420.753906 548.746094 414.179688 551.234375 412.117188 554.273438 Z M 106.484375 652.222656 C 107.359375 652.238281 116.554688 646.429688 115.578125 646.554688 C 112.46875 648.570312 111.300781 648.085938 109.410156 648.546875 C 109.128906 649.753906 106.71875 650.296875 109.125 650.382812 C 108.042969 650.957031 106.386719 651.621094 106.484375 652.222656 Z M 145.792969 642.441406 C 133.71875 649.296875 127.035156 652.449219 120.976562 657.25 C 131.164062 651.929688 140.382812 646.429688 145.792969 642.441406 Z M 99.457031 640.648438 C 102.964844 639.128906 110.308594 636.566406 112.785156 633.953125 C 107.972656 636.980469 101.488281 637.714844 99.457031 640.648438 Z M 108 667.125 C 111.640625 664.515625 116.011719 664.695312 117.535156 662.347656 C 115.414062 663.148438 105.96875 666.859375 108 667.125 Z M 121.757812 654.0625 C 127.382812 650.9375 130.175781 649.851562 132.003906 648.316406 C 130.152344 649.117188 132.179688 647.292969 130.609375 647.902344 C 131.402344 648.414062 125.777344 651.269531 125.835938 650.308594 C 126.371094 650.039062 126.726562 649.394531 125.617188 649.867188 C 125.925781 651.214844 122.007812 652.695312 121.757812 654.0625 Z M 127.574219 625.335938 C 126.78125 624.824219 120.039062 628.246094 119.964844 629.183594 C 122.320312 627.683594 128.144531 627.734375 127.574219 625.335938 Z M 132.265625 625.183594 C 132.398438 624.515625 132.863281 623.535156 132.046875 624.742188 C 129.191406 626.730469 124.640625 627.9375 124.21875 628.140625 C 106.871094 636.878906 121.183594 631.726562 132.265625 625.183594 Z M 693.304688 390.015625 C 691.9375 391.46875 687.925781 393.152344 687.257812 394.570312 C 689.242188 394.382812 694.046875 391.394531 693.304688 390.015625 Z M 652.527344 415.773438 C 654.617188 414.273438 659.617188 412.542969 659.773438 411.171875 C 656.867188 412.113281 653.777344 413.847656 652.527344 415.773438 Z M 294.40625 608.871094 C 296.359375 607.027344 304.300781 603.621094 301.765625 604.476562 C 299.296875 604.8125 293.074219 608.152344 294.40625 608.871094 Z M 125.597656 661.652344 C 127.601562 659.902344 134.546875 657.054688 132.050781 657.828125 C 130.0625 657.746094 124.726562 659.78125 125.597656 661.652344 Z M 143.503906 649.761719 C 140.128906 651.832031 133.722656 653.988281 132.292969 656.019531 C 135.691406 653.933594 142.097656 651.777344 143.503906 649.761719 Z M 143.503906 649.761719 " clip-rule="nonzero"/></clipPath><linearGradient x1="-7.40595" gradientTransform="matrix(2.272126, -1.27367, 1.274889, 2.274299, 40.445421, 616.130935)" y1="24.660999" x2="341.11424" gradientUnits="userSpaceOnUse" y2="24.660999" id="id10"><stop stop-opacity="1" stop-color="rgb(8.198547%, 80.799866%, 100%)" offset="0"/><stop stop-opacity="1" stop-color="rgb(8.198547%, 80.799866%, 100%)" offset="0.25"/><stop stop-opacity="1" stop-color="rgb(8.198547%, 80.799866%, 100%)" offset="0.3125"/><stop stop-opacity="1" stop-color="rgb(8.184814%, 80.702209%, 100%)" offset="0.328125"/><stop stop-opacity="1" stop-color="rgb(8.122253%, 80.245972%, 100%)" offset="0.332031"/><stop stop-opacity="1" stop-color="rgb(8.071899%, 79.88739%, 100%)" offset="0.335938"/><stop stop-opacity="1" stop-color="rgb(8.021545%, 79.527283%, 100%)" offset="0.339844"/><stop stop-opacity="1" stop-color="rgb(7.971191%, 79.167175%, 100%)" offset="0.34375"/><stop stop-opacity="1" stop-color="rgb(7.920837%, 78.807068%, 100%)" offset="0.347656"/><stop stop-opacity="1" stop-color="rgb(7.872009%, 78.448486%, 100%)" offset="0.351563"/><stop stop-opacity="1" stop-color="rgb(7.821655%, 78.088379%, 100%)" offset="0.355469"/><stop stop-opacity="1" stop-color="rgb(7.771301%, 77.729797%, 100%)" offset="0.359375"/><stop stop-opacity="1" stop-color="rgb(7.720947%, 77.36969%, 100%)" offset="0.363281"/><stop stop-opacity="1" stop-color="rgb(7.670593%, 77.011108%, 100%)" offset="0.367188"/><stop stop-opacity="1" stop-color="rgb(7.620239%, 76.651001%, 100%)" offset="0.371094"/><stop stop-opacity="1" stop-color="rgb(7.569885%, 76.290894%, 100%)" offset="0.375"/><stop stop-opacity="1" stop-color="rgb(7.519531%, 75.930786%, 100%)" offset="0.378906"/><stop stop-opacity="1" stop-color="rgb(7.470703%, 75.572205%, 100%)" offset="0.382813"/><stop stop-opacity="1" stop-color="rgb(7.420349%, 75.212097%, 100%)" offset="0.386719"/><stop stop-opacity="1" stop-color="rgb(7.369995%, 74.853516%, 100%)" offset="0.390625"/><stop stop-opacity="1" stop-color="rgb(7.319641%, 74.493408%, 100%)" offset="0.394531"/><stop stop-opacity="1" stop-color="rgb(7.269287%, 74.134827%, 100%)" offset="0.398438"/><stop stop-opacity="1" stop-color="rgb(7.218933%, 73.774719%, 100%)" offset="0.402344"/><stop stop-opacity="1" stop-color="rgb(7.170105%, 73.414612%, 100%)" offset="0.40625"/><stop stop-opacity="1" stop-color="rgb(7.119751%, 73.054504%, 100%)" offset="0.410156"/><stop stop-opacity="1" stop-color="rgb(7.069397%, 72.695923%, 100%)" offset="0.414063"/><stop stop-opacity="1" stop-color="rgb(7.019043%, 72.335815%, 100%)" offset="0.417969"/><stop stop-opacity="1" stop-color="rgb(6.968689%, 71.977234%, 100%)" offset="0.421875"/><stop stop-opacity="1" stop-color="rgb(6.918335%, 71.617126%, 100%)" offset="0.425781"/><stop stop-opacity="1" stop-color="rgb(6.867981%, 71.257019%, 100%)" offset="0.429688"/><stop stop-opacity="1" stop-color="rgb(6.817627%, 70.896912%, 100%)" offset="0.433594"/><stop stop-opacity="1" stop-color="rgb(6.768799%, 70.53833%, 100%)" offset="0.4375"/><stop stop-opacity="1" stop-color="rgb(6.718445%, 70.178223%, 100%)" offset="0.441406"/><stop stop-opacity="1" stop-color="rgb(6.668091%, 69.819641%, 100%)" offset="0.445313"/><stop stop-opacity="1" stop-color="rgb(6.617737%, 69.459534%, 100%)" offset="0.449219"/><stop stop-opacity="1" stop-color="rgb(6.567383%, 69.100952%, 100%)" offset="0.453125"/><stop stop-opacity="1" stop-color="rgb(6.517029%, 68.740845%, 100%)" offset="0.457031"/><stop stop-opacity="1" stop-color="rgb(6.468201%, 68.380737%, 100%)" offset="0.460938"/><stop stop-opacity="1" stop-color="rgb(6.417847%, 68.02063%, 100%)" offset="0.464844"/><stop stop-opacity="1" stop-color="rgb(6.367493%, 67.662048%, 100%)" offset="0.46875"/><stop stop-opacity="1" stop-color="rgb(6.317139%, 67.301941%, 100%)" offset="0.472656"/><stop stop-opacity="1" stop-color="rgb(6.266785%, 66.943359%, 100%)" offset="0.476563"/><stop stop-opacity="1" stop-color="rgb(6.216431%, 66.583252%, 100%)" offset="0.480469"/><stop stop-opacity="1" stop-color="rgb(6.166077%, 66.223145%, 100%)" offset="0.484375"/><stop stop-opacity="1" stop-color="rgb(6.115723%, 65.863037%, 100%)" offset="0.488281"/><stop stop-opacity="1" stop-color="rgb(6.066895%, 65.504456%, 100%)" offset="0.492188"/><stop stop-opacity="1" stop-color="rgb(6.016541%, 65.144348%, 100%)" offset="0.496094"/><stop stop-opacity="1" stop-color="rgb(5.966187%, 64.785767%, 100%)" offset="0.5"/><stop stop-opacity="1" stop-color="rgb(5.915833%, 64.425659%, 100%)" offset="0.503906"/><stop stop-opacity="1" stop-color="rgb(5.865479%, 64.067078%, 100%)" offset="0.507812"/><stop stop-opacity="1" stop-color="rgb(5.815125%, 63.70697%, 100%)" offset="0.511719"/><stop stop-opacity="1" stop-color="rgb(5.764771%, 63.346863%, 100%)" offset="0.515625"/><stop stop-opacity="1" stop-color="rgb(5.714417%, 62.986755%, 100%)" offset="0.519531"/><stop stop-opacity="1" stop-color="rgb(5.665588%, 62.628174%, 100%)" offset="0.523438"/><stop stop-opacity="1" stop-color="rgb(5.615234%, 62.268066%, 100%)" offset="0.527344"/><stop stop-opacity="1" stop-color="rgb(5.56488%, 61.909485%, 100%)" offset="0.53125"/><stop stop-opacity="1" stop-color="rgb(5.514526%, 61.549377%, 100%)" offset="0.535156"/><stop stop-opacity="1" stop-color="rgb(5.464172%, 61.190796%, 100%)" offset="0.539063"/><stop stop-opacity="1" stop-color="rgb(5.413818%, 60.830688%, 100%)" offset="0.542969"/><stop stop-opacity="1" stop-color="rgb(5.36499%, 60.470581%, 100%)" offset="0.546875"/><stop stop-opacity="1" stop-color="rgb(5.314636%, 60.110474%, 100%)" offset="0.550781"/><stop stop-opacity="1" stop-color="rgb(5.264282%, 59.751892%, 100%)" offset="0.554688"/><stop stop-opacity="1" stop-color="rgb(5.213928%, 59.391785%, 100%)" offset="0.558594"/><stop stop-opacity="1" stop-color="rgb(5.163574%, 59.033203%, 100%)" offset="0.5625"/><stop stop-opacity="1" stop-color="rgb(5.11322%, 58.673096%, 100%)" offset="0.566406"/><stop stop-opacity="1" stop-color="rgb(5.062866%, 58.312988%, 100%)" offset="0.570313"/><stop stop-opacity="1" stop-color="rgb(5.012512%, 57.952881%, 100%)" offset="0.574219"/><stop stop-opacity="1" stop-color="rgb(4.963684%, 57.594299%, 100%)" offset="0.578125"/><stop stop-opacity="1" stop-color="rgb(4.91333%, 57.234192%, 100%)" offset="0.582031"/><stop stop-opacity="1" stop-color="rgb(4.862976%, 56.87561%, 100%)" offset="0.585938"/><stop stop-opacity="1" stop-color="rgb(4.812622%, 56.515503%, 100%)" offset="0.589844"/><stop stop-opacity="1" stop-color="rgb(4.762268%, 56.156921%, 100%)" offset="0.59375"/><stop stop-opacity="1" stop-color="rgb(4.711914%, 55.796814%, 100%)" offset="0.597656"/><stop stop-opacity="1" stop-color="rgb(4.663086%, 55.436707%, 100%)" offset="0.601563"/><stop stop-opacity="1" stop-color="rgb(4.612732%, 55.076599%, 100%)" offset="0.605469"/><stop stop-opacity="1" stop-color="rgb(4.562378%, 54.718018%, 100%)" offset="0.609375"/><stop stop-opacity="1" stop-color="rgb(4.512024%, 54.35791%, 100%)" offset="0.613281"/><stop stop-opacity="1" stop-color="rgb(4.46167%, 53.999329%, 100%)" offset="0.617188"/><stop stop-opacity="1" stop-color="rgb(4.411316%, 53.639221%, 100%)" offset="0.621094"/><stop stop-opacity="1" stop-color="rgb(4.360962%, 53.279114%, 100%)" offset="0.625"/><stop stop-opacity="1" stop-color="rgb(4.310608%, 52.919006%, 100%)" offset="0.628906"/><stop stop-opacity="1" stop-color="rgb(4.26178%, 52.560425%, 100%)" offset="0.632812"/><stop stop-opacity="1" stop-color="rgb(4.211426%, 52.200317%, 100%)" offset="0.636719"/><stop stop-opacity="1" stop-color="rgb(4.161072%, 51.841736%, 100%)" offset="0.640625"/><stop stop-opacity="1" stop-color="rgb(4.110718%, 51.481628%, 100%)" offset="0.644531"/><stop stop-opacity="1" stop-color="rgb(4.060364%, 51.123047%, 100%)" offset="0.648438"/><stop stop-opacity="1" stop-color="rgb(4.01001%, 50.762939%, 100%)" offset="0.652344"/><stop stop-opacity="1" stop-color="rgb(3.959656%, 50.402832%, 100%)" offset="0.65625"/><stop stop-opacity="1" stop-color="rgb(3.909302%, 50.042725%, 100%)" offset="0.660156"/><stop stop-opacity="1" stop-color="rgb(3.860474%, 49.684143%, 100%)" offset="0.664063"/><stop stop-opacity="1" stop-color="rgb(3.81012%, 49.324036%, 100%)" offset="0.667969"/><stop stop-opacity="1" stop-color="rgb(3.759766%, 48.965454%, 100%)" offset="0.671875"/><stop stop-opacity="1" stop-color="rgb(3.709412%, 48.605347%, 100%)" offset="0.675781"/><stop stop-opacity="1" stop-color="rgb(3.659058%, 48.245239%, 100%)" offset="0.679688"/><stop stop-opacity="1" stop-color="rgb(3.608704%, 47.885132%, 100%)" offset="0.683594"/><stop stop-opacity="1" stop-color="rgb(3.559875%, 47.52655%, 100%)" offset="0.6875"/><stop stop-opacity="1" stop-color="rgb(3.509521%, 47.166443%, 100%)" offset="0.691406"/><stop stop-opacity="1" stop-color="rgb(3.459167%, 46.807861%, 100%)" offset="0.695313"/><stop stop-opacity="1" stop-color="rgb(3.408813%, 46.447754%, 100%)" offset="0.699219"/><stop stop-opacity="1" stop-color="rgb(3.358459%, 46.089172%, 100%)" offset="0.703125"/><stop stop-opacity="1" stop-color="rgb(3.308105%, 45.729065%, 100%)" offset="0.707031"/><stop stop-opacity="1" stop-color="rgb(3.257751%, 45.368958%, 100%)" offset="0.710938"/><stop stop-opacity="1" stop-color="rgb(3.207397%, 45.00885%, 100%)" offset="0.714844"/><stop stop-opacity="1" stop-color="rgb(3.158569%, 44.650269%, 100%)" offset="0.71875"/><stop stop-opacity="1" stop-color="rgb(3.108215%, 44.290161%, 100%)" offset="0.722656"/><stop stop-opacity="1" stop-color="rgb(3.057861%, 43.93158%, 100%)" offset="0.726563"/><stop stop-opacity="1" stop-color="rgb(3.007507%, 43.571472%, 100%)" offset="0.730469"/><stop stop-opacity="1" stop-color="rgb(2.957153%, 43.212891%, 100%)" offset="0.734375"/><stop stop-opacity="1" stop-color="rgb(2.906799%, 42.852783%, 100%)" offset="0.738281"/><stop stop-opacity="1" stop-color="rgb(2.857971%, 42.492676%, 100%)" offset="0.742188"/><stop stop-opacity="1" stop-color="rgb(2.807617%, 42.132568%, 100%)" offset="0.746094"/><stop stop-opacity="1" stop-color="rgb(2.757263%, 41.773987%, 100%)" offset="0.75"/><stop stop-opacity="1" stop-color="rgb(2.706909%, 41.413879%, 100%)" offset="0.753906"/><stop stop-opacity="1" stop-color="rgb(2.656555%, 41.055298%, 100%)" offset="0.757812"/><stop stop-opacity="1" stop-color="rgb(2.606201%, 40.69519%, 100%)" offset="0.761719"/><stop stop-opacity="1" stop-color="rgb(2.555847%, 40.335083%, 100%)" offset="0.765625"/><stop stop-opacity="1" stop-color="rgb(2.505493%, 39.974976%, 100%)" offset="0.769531"/><stop stop-opacity="1" stop-color="rgb(2.456665%, 39.616394%, 100%)" offset="0.773438"/><stop stop-opacity="1" stop-color="rgb(2.406311%, 39.256287%, 100%)" offset="0.777344"/><stop stop-opacity="1" stop-color="rgb(2.355957%, 38.897705%, 100%)" offset="0.78125"/><stop stop-opacity="1" stop-color="rgb(2.305603%, 38.537598%, 100%)" offset="0.785156"/><stop stop-opacity="1" stop-color="rgb(2.255249%, 38.179016%, 100%)" offset="0.789063"/><stop stop-opacity="1" stop-color="rgb(2.204895%, 37.818909%, 100%)" offset="0.792969"/><stop stop-opacity="1" stop-color="rgb(2.154541%, 37.458801%, 100%)" offset="0.796875"/><stop stop-opacity="1" stop-color="rgb(2.104187%, 37.098694%, 100%)" offset="0.800781"/><stop stop-opacity="1" stop-color="rgb(2.055359%, 36.740112%, 100%)" offset="0.804688"/><stop stop-opacity="1" stop-color="rgb(2.005005%, 36.380005%, 100%)" offset="0.808594"/><stop stop-opacity="1" stop-color="rgb(1.954651%, 36.021423%, 100%)" offset="0.8125"/><stop stop-opacity="1" stop-color="rgb(1.904297%, 35.661316%, 100%)" offset="0.816406"/><stop stop-opacity="1" stop-color="rgb(1.853943%, 35.301208%, 100%)" offset="0.820313"/><stop stop-opacity="1" stop-color="rgb(1.803589%, 34.941101%, 100%)" offset="0.824219"/><stop stop-opacity="1" stop-color="rgb(1.754761%, 34.58252%, 100%)" offset="0.828125"/><stop stop-opacity="1" stop-color="rgb(1.704407%, 34.222412%, 100%)" offset="0.832031"/><stop stop-opacity="1" stop-color="rgb(1.654053%, 33.863831%, 100%)" offset="0.835938"/><stop stop-opacity="1" stop-color="rgb(1.603699%, 33.503723%, 100%)" offset="0.839844"/><stop stop-opacity="1" stop-color="rgb(1.553345%, 33.145142%, 100%)" offset="0.84375"/><stop stop-opacity="1" stop-color="rgb(1.502991%, 32.785034%, 100%)" offset="0.847656"/><stop stop-opacity="1" stop-color="rgb(1.452637%, 32.424927%, 100%)" offset="0.851563"/><stop stop-opacity="1" stop-color="rgb(1.402283%, 32.064819%, 100%)" offset="0.855469"/><stop stop-opacity="1" stop-color="rgb(1.353455%, 31.706238%, 100%)" offset="0.859375"/><stop stop-opacity="1" stop-color="rgb(1.303101%, 31.34613%, 100%)" offset="0.863281"/><stop stop-opacity="1" stop-color="rgb(1.252747%, 30.987549%, 100%)" offset="0.867188"/><stop stop-opacity="1" stop-color="rgb(1.202393%, 30.627441%, 100%)" offset="0.871094"/><stop stop-opacity="1" stop-color="rgb(1.152039%, 30.26886%, 100%)" offset="0.875"/><stop stop-opacity="1" stop-color="rgb(1.101685%, 29.908752%, 100%)" offset="0.878906"/><stop stop-opacity="1" stop-color="rgb(1.052856%, 29.548645%, 100%)" offset="0.882812"/><stop stop-opacity="1" stop-color="rgb(1.002502%, 29.188538%, 100%)" offset="0.886719"/><stop stop-opacity="1" stop-color="rgb(0.952148%, 28.829956%, 100%)" offset="0.890625"/><stop stop-opacity="1" stop-color="rgb(0.901794%, 28.469849%, 100%)" offset="0.894531"/><stop stop-opacity="1" stop-color="rgb(0.85144%, 28.111267%, 100%)" offset="0.898438"/><stop stop-opacity="1" stop-color="rgb(0.801086%, 27.75116%, 100%)" offset="0.902344"/><stop stop-opacity="1" stop-color="rgb(0.750732%, 27.391052%, 100%)" offset="0.90625"/><stop stop-opacity="1" stop-color="rgb(0.700378%, 27.030945%, 100%)" offset="0.910156"/><stop stop-opacity="1" stop-color="rgb(0.65155%, 26.672363%, 100%)" offset="0.914063"/><stop stop-opacity="1" stop-color="rgb(0.601196%, 26.312256%, 100%)" offset="0.917969"/><stop stop-opacity="1" stop-color="rgb(0.550842%, 25.953674%, 100%)" offset="0.921875"/><stop stop-opacity="1" stop-color="rgb(0.500488%, 25.593567%, 100%)" offset="0.925781"/><stop stop-opacity="1" stop-color="rgb(0.450134%, 25.234985%, 100%)" offset="0.929688"/><stop stop-opacity="1" stop-color="rgb(0.39978%, 24.874878%, 100%)" offset="0.933594"/><stop stop-opacity="1" stop-color="rgb(0.349426%, 24.514771%, 100%)" offset="0.9375"/><stop stop-opacity="1" stop-color="rgb(0.299072%, 24.154663%, 100%)" offset="0.941406"/><stop stop-opacity="1" stop-color="rgb(0.250244%, 23.796082%, 100%)" offset="0.945312"/><stop stop-opacity="1" stop-color="rgb(0.19989%, 23.435974%, 100%)" offset="0.949219"/><stop stop-opacity="1" stop-color="rgb(0.149536%, 23.077393%, 100%)" offset="0.953125"/><stop stop-opacity="1" stop-color="rgb(0.0991821%, 22.717285%, 100%)" offset="0.957031"/><stop stop-opacity="1" stop-color="rgb(0.0488281%, 22.357178%, 100%)" offset="0.960938"/><stop stop-opacity="1" stop-color="rgb(0.0244141%, 22.177124%, 100%)" offset="0.96875"/><stop stop-opacity="1" stop-color="rgb(0%, 21.998596%, 100%)" offset="1"/></linearGradient></defs><rect x="-144" width="1728" fill="#000000" y="-80.999999" height="971.999992" fill-opacity="1"/><rect x="-144" width="1728" fill="#ffffff" y="-80.999999" height="971.999992" fill-opacity="1"/><rect x="-144" width="1728" fill="#000000" y="-80.999999" height="971.999992" fill-opacity="1"/><g clip-path="url(#id1)"><g clip-path="url(#id2)"><g clip-path="url(#id3)"><g clip-path="url(#id4)"><path fill="url(#id5)" d="M 320.015625 268.871094 L 722.414062 986.71875 L 1562.253906 515.9375 L 1159.855469 -201.914062 Z M 320.015625 268.871094 " fill-rule="nonzero"/></g></g></g></g><g clip-path="url(#id6)"><g clip-path="url(#id7)"><g clip-path="url(#id8)"><g clip-path="url(#id9)"><path fill="url(#id10)" d="M -141.558594 330.902344 L 237.878906 1007.785156 L 1029.761719 563.886719 L 650.324219 -112.996094 Z M -141.558594 330.902344 " fill-rule="nonzero"/></g></g></g></g></svg>