<svg xmlns="http://www.w3.org/2000/svg" xmlns:xlink="http://www.w3.org/1999/xlink" width="500" zoomAndPan="magnify" viewBox="0 0 375 374.999991" height="500" preserveAspectRatio="xMidYMid meet" version="1.0"><defs><clipPath id="id1"><path d="M 4.382812 100 L 108 100 L 108 276 L 4.382812 276 Z M 4.382812 100 " clip-rule="nonzero"/></clipPath><clipPath id="id2"><path d="M 126 37 L 262 37 L 262 338.96875 L 126 338.96875 Z M 126 37 " clip-rule="nonzero"/></clipPath></defs><g clip-path="url(#id1)"><path fill="#08d0ff" d="M 96.734375 275.566406 C 93.90625 275.566406 91.078125 274.488281 88.917969 272.328125 L 4.839844 188.214844 L 88.917969 104.101562 C 93.234375 99.777344 100.234375 99.777344 104.554688 104.101562 C 108.871094 108.417969 108.871094 115.421875 104.554688 119.742188 L 36.113281 188.214844 L 104.554688 256.683594 C 108.871094 261.003906 108.871094 268.003906 104.554688 272.328125 C 102.394531 274.488281 99.566406 275.566406 96.734375 275.566406 " fill-opacity="1" fill-rule="nonzero"/></g><path fill="#08d0ff" d="M 278.074219 275.566406 C 275.246094 275.566406 272.417969 274.488281 270.257812 272.328125 C 265.941406 268.003906 265.941406 261.003906 270.257812 256.683594 L 338.699219 188.214844 L 270.257812 119.742188 C 265.941406 115.421875 265.941406 108.417969 270.257812 104.101562 C 274.574219 99.777344 281.574219 99.777344 285.894531 104.101562 L 369.972656 188.214844 L 285.894531 272.328125 C 283.734375 274.488281 280.90625 275.566406 278.074219 275.566406 " fill-opacity="1" fill-rule="nonzero"/><g clip-path="url(#id2)"><path fill="#08d0ff" d="M 137.800781 338.988281 C 136.429688 338.988281 135.035156 338.734375 133.683594 338.1875 C 128.015625 335.914062 125.269531 329.46875 127.546875 323.800781 L 239.8125 44.375 C 242.09375 38.707031 248.53125 35.957031 254.195312 38.234375 C 259.863281 40.511719 262.609375 46.957031 260.328125 52.625 L 148.0625 332.050781 C 146.328125 336.371094 142.183594 338.988281 137.800781 338.988281 " fill-opacity="1" fill-rule="nonzero"/></g></svg>