<svg xmlns="http://www.w3.org/2000/svg" xmlns:xlink="http://www.w3.org/1999/xlink" width="200" zoomAndPan="magnify" viewBox="0 0 150 37.5" height="50" preserveAspectRatio="xMidYMid meet" version="1.0"><defs><g/><clipPath id="id1"><path d="M 141 8 L 149.011719 8 L 149.011719 24 L 141 24 Z M 141 8 " clip-rule="nonzero"/></clipPath><clipPath id="id2"><path d="M 1.386719 26.726562 L 7.808594 26.726562 L 7.808594 28.734375 L 1.386719 28.734375 Z M 1.386719 26.726562 " clip-rule="nonzero"/></clipPath><clipPath id="id3"><path d="M 0.988281 22.398438 L 2.992188 22.398438 L 2.992188 28.820312 L 0.988281 28.820312 Z M 0.988281 22.398438 " clip-rule="nonzero"/></clipPath><clipPath id="id4"><path d="M 142.191406 3.699219 L 148.609375 3.699219 L 148.609375 5.707031 L 142.191406 5.707031 Z M 142.191406 3.699219 " clip-rule="nonzero"/></clipPath><clipPath id="id5"><path d="M 147.007812 3.613281 L 149.011719 3.613281 L 149.011719 10.035156 L 147.007812 10.035156 Z M 147.007812 3.613281 " clip-rule="nonzero"/></clipPath></defs><g fill="#ffffff" fill-opacity="1"><g transform="translate(5.043672, 23.749832)"><g><path d="M 1.625 0 L 1.625 -15.265625 L 11.578125 -15.265625 L 11.578125 -12.4375 L 5.34375 -12.4375 L 5.34375 -9.15625 L 10 -9.15625 L 10 -6.328125 L 5.34375 -6.328125 L 5.34375 0 Z M 1.625 0 "/></g></g></g><g fill="#ffffff" fill-opacity="1"><g transform="translate(17.544991, 23.749832)"><g><path d="M 1.625 0 L 1.625 -15.265625 L 5.34375 -15.265625 L 5.34375 0 Z M 1.625 0 "/></g></g></g><g fill="#ffffff" fill-opacity="1"><g transform="translate(24.523985, 23.749832)"><g><path d="M 1.625 -15.265625 L 5.34375 -15.265625 L 5.34375 -2.828125 L 9.984375 -2.828125 L 9.984375 0 L 1.625 0 Z M 1.625 -15.265625 "/></g></g></g><g fill="#ffffff" fill-opacity="1"><g transform="translate(34.938127, 23.749832)"><g><path d="M 1.625 0 L 1.625 -15.265625 L 5.34375 -15.265625 L 5.34375 0 Z M 1.625 0 "/></g></g></g><g fill="#ffffff" fill-opacity="1"><g transform="translate(41.917122, 23.749832)"><g><path d="M 13.265625 -10.59375 C 13.265625 -9.5625 12.894531 -8.566406 12.15625 -7.609375 C 11.769531 -7.117188 11.1875 -6.71875 10.40625 -6.40625 C 9.632812 -6.09375 8.71875 -5.9375 7.65625 -5.9375 L 5.34375 -5.9375 L 5.34375 0 L 1.625 0 L 1.625 -15.265625 L 7.65625 -15.265625 C 9.425781 -15.265625 10.800781 -14.804688 11.78125 -13.890625 C 12.769531 -12.984375 13.265625 -11.882812 13.265625 -10.59375 Z M 5.34375 -8.765625 L 7.65625 -8.765625 C 8.21875 -8.765625 8.660156 -8.929688 8.984375 -9.265625 C 9.316406 -9.597656 9.484375 -10.035156 9.484375 -10.578125 C 9.484375 -11.117188 9.316406 -11.5625 8.984375 -11.90625 C 8.648438 -12.257812 8.207031 -12.4375 7.65625 -12.4375 L 5.34375 -12.4375 Z M 5.34375 -8.765625 "/></g></g></g><g fill="#ffffff" fill-opacity="1"><g transform="translate(55.788151, 23.749832)"><g><path d="M 1.625 0 L 1.625 -15.265625 L 5.34375 -15.265625 L 5.34375 0 Z M 1.625 0 "/></g></g></g><g fill="#f7f7f7" fill-opacity="1"><g transform="translate(62.762368, 23.749832)"><g/></g></g><g fill="#ffffff" fill-opacity="1"><g transform="translate(69.284778, 23.749832)"><g><path d="M 5.34375 -5.9375 L 5.34375 0 L 1.625 0 L 1.625 -15.265625 L 7.65625 -15.265625 C 9.425781 -15.265625 10.800781 -14.804688 11.78125 -13.890625 C 12.769531 -12.984375 13.265625 -11.882812 13.265625 -10.59375 C 13.265625 -9.707031 12.992188 -8.84375 12.453125 -8 C 11.921875 -7.164062 11.046875 -6.570312 9.828125 -6.21875 L 13.578125 0 L 9.21875 0 L 5.78125 -5.9375 Z M 5.34375 -12.4375 L 5.34375 -8.765625 L 7.65625 -8.765625 C 8.21875 -8.765625 8.660156 -8.929688 8.984375 -9.265625 C 9.316406 -9.597656 9.484375 -10.035156 9.484375 -10.578125 C 9.484375 -11.117188 9.316406 -11.5625 8.984375 -11.90625 C 8.648438 -12.257812 8.207031 -12.4375 7.65625 -12.4375 Z M 5.34375 -12.4375 "/></g></g></g><g fill="#ffffff" fill-opacity="1"><g transform="translate(83.808053, 23.749832)"><g><path d="M 11.328125 0 L 10.484375 -2.5625 L 5 -2.5625 L 4.15625 0 L 0.203125 0 L 5.5 -15.3125 L 10.03125 -15.3125 L 15.3125 0 Z M 5.9375 -5.390625 L 9.546875 -5.390625 L 7.75 -10.828125 Z M 5.9375 -5.390625 "/></g></g></g><g fill="#ffffff" fill-opacity="1"><g transform="translate(99.309684, 23.749832)"><g><path d="M 1.625 0 L 1.625 -15.265625 L 11.578125 -15.265625 L 11.578125 -12.4375 L 5.34375 -12.4375 L 5.34375 -9.15625 L 10 -9.15625 L 10 -6.328125 L 5.34375 -6.328125 L 5.34375 0 Z M 1.625 0 "/></g></g></g><g fill="#ffffff" fill-opacity="1"><g transform="translate(111.811002, 23.749832)"><g><path d="M 11.328125 0 L 10.484375 -2.5625 L 5 -2.5625 L 4.15625 0 L 0.203125 0 L 5.5 -15.3125 L 10.03125 -15.3125 L 15.3125 0 Z M 5.9375 -5.390625 L 9.546875 -5.390625 L 7.75 -10.828125 Z M 5.9375 -5.390625 "/></g></g></g><g fill="#ffffff" fill-opacity="1"><g transform="translate(127.312633, 23.749832)"><g><path d="M 10.875 -15.3125 L 10.875 -12.484375 L 5.34375 -12.484375 L 5.34375 -9.203125 L 10.21875 -9.203125 L 10.21875 -6.375 L 5.34375 -6.375 L 5.34375 -2.828125 L 10.875 -2.828125 L 10.875 0 L 1.625 0 L 1.625 -15.3125 Z M 10.875 -15.3125 "/></g></g></g><g clip-path="url(#id1)"><g fill="#ffffff" fill-opacity="1"><g transform="translate(139.748732, 23.749832)"><g><path d="M 1.625 -15.265625 L 5.34375 -15.265625 L 5.34375 -2.828125 L 9.984375 -2.828125 L 9.984375 0 L 1.625 0 Z M 1.625 -15.265625 "/></g></g></g></g><g clip-path="url(#id2)"><path fill="#0038ff" d="M 1.386719 26.726562 L 7.808594 26.726562 L 7.808594 28.734375 L 1.386719 28.734375 L 1.386719 26.726562 " fill-opacity="1" fill-rule="nonzero"/></g><g clip-path="url(#id3)"><path fill="#0038ff" d="M 2.992188 22.398438 L 2.992188 28.820312 L 0.984375 28.820312 L 0.984375 22.398438 L 2.992188 22.398438 " fill-opacity="1" fill-rule="nonzero"/></g><g clip-path="url(#id4)"><path fill="#0038ff" d="M 148.609375 5.707031 L 142.191406 5.707031 L 142.191406 3.699219 L 148.609375 3.699219 L 148.609375 5.707031 " fill-opacity="1" fill-rule="nonzero"/></g><g clip-path="url(#id5)"><path fill="#0038ff" d="M 147.007812 10.035156 L 147.007812 3.613281 L 149.015625 3.613281 L 149.015625 10.035156 L 147.007812 10.035156 " fill-opacity="1" fill-rule="nonzero"/></g></svg>