<svg xmlns="http://www.w3.org/2000/svg" xmlns:xlink="http://www.w3.org/1999/xlink" width="1080" zoomAndPan="magnify" viewBox="0 0 810 809.999993" height="1080" preserveAspectRatio="xMidYMid meet" version="1.0"><defs><clipPath id="id1"><path d="M 54.609375 54.609375 L 755.109375 54.609375 L 755.109375 755.109375 L 54.609375 755.109375 Z M 54.609375 54.609375 " clip-rule="nonzero"/></clipPath></defs><g clip-path="url(#id1)"><path fill="#ffffff" d="M 54.609375 132.445312 L 54.609375 677.277344 C 54.609375 720.28125 89.441406 755.109375 132.445312 755.109375 L 677.277344 755.109375 C 720.28125 755.109375 755.109375 720.28125 755.109375 677.277344 L 755.109375 132.445312 C 755.109375 89.441406 720.28125 54.609375 677.277344 54.609375 L 132.445312 54.609375 C 89.441406 54.609375 54.609375 89.441406 54.609375 132.445312 Z M 469.695312 422.414062 L 387.269531 422.414062 L 387.269531 677.277344 L 320.839844 677.277344 L 320.839844 422.414062 L 240.125 422.414062 L 240.125 365.945312 L 469.695312 365.945312 Z M 482.617188 662.722656 L 482.617188 594.578125 C 482.617188 594.578125 519.820312 622.636719 564.496094 622.636719 C 609.171875 622.636719 607.421875 593.449219 607.421875 589.441406 C 607.421875 547.0625 480.902344 547.0625 480.902344 453.195312 C 480.902344 325.511719 665.253906 375.90625 665.253906 375.90625 L 662.957031 436.578125 C 662.957031 436.578125 632.054688 415.953125 597.109375 415.953125 C 562.199219 415.953125 549.59375 432.570312 549.59375 450.316406 C 549.59375 496.121094 677.277344 491.527344 677.277344 583.722656 C 677.277344 725.691406 482.617188 662.722656 482.617188 662.722656 Z M 482.617188 662.722656 " fill-opacity="1" fill-rule="nonzero"/></g></svg>